<svg xmlns="http://www.w3.org/2000/svg" xmlns:xlink="http://www.w3.org/1999/xlink" width="1080" zoomAndPan="magnify" viewBox="0 0 810 809.999993" height="1080" preserveAspectRatio="xMidYMid meet" version="1.0"><defs><g/><clipPath id="86df9dfae2"><path d="M 189 105 L 621 105 L 621 536 L 189 536 Z M 189 105 " clip-rule="nonzero"/></clipPath><clipPath id="ae5664a14f"><path d="M 419 438 L 625.875 438 L 625.875 705 L 419 705 Z M 419 438 " clip-rule="nonzero"/></clipPath></defs><path fill="#d17ab3" d="M 371.785156 397.574219 C 364.375 397.574219 356.945312 394.746094 351.304688 389.105469 L 321.351562 359.152344 C 310.054688 347.855469 310.054688 329.484375 321.351562 318.1875 C 326.816406 312.71875 334.097656 309.703125 341.835938 309.703125 C 349.574219 309.703125 356.851562 312.71875 362.316406 318.1875 L 371.785156 327.65625 L 447.710938 251.734375 C 459.007812 240.4375 477.390625 240.4375 488.6875 251.734375 C 494.15625 257.199219 497.171875 264.476562 497.171875 272.214844 C 497.171875 279.953125 494.15625 287.230469 488.6875 292.699219 L 392.269531 389.117188 C 386.628906 394.746094 379.199219 397.574219 371.785156 397.574219 Z M 341.835938 325.273438 C 338.261719 325.273438 334.894531 326.667969 332.363281 329.199219 C 327.140625 334.421875 327.140625 342.902344 332.363281 348.125 L 362.316406 378.078125 C 367.539062 383.300781 376.035156 383.300781 381.242188 378.078125 L 477.664062 281.660156 C 480.191406 279.128906 481.585938 275.773438 481.585938 272.1875 C 481.585938 268.617188 480.191406 265.25 477.664062 262.71875 C 472.441406 257.496094 463.957031 257.496094 458.734375 262.71875 L 377.292969 344.160156 C 374.25 347.207031 369.3125 347.207031 366.265625 344.160156 L 351.289062 329.183594 C 348.761719 326.667969 345.40625 325.273438 341.835938 325.273438 Z M 341.835938 325.273438 " fill-opacity="1" fill-rule="nonzero"/><path fill="#d17ab3" d="M 405.011719 465.367188 C 366.292969 465.367188 329.886719 450.28125 302.507812 422.910156 C 275.125 395.53125 260.054688 359.125 260.054688 320.40625 C 260.054688 281.683594 275.136719 245.28125 302.507812 217.898438 C 329.886719 190.515625 366.292969 175.445312 405.011719 175.445312 C 443.734375 175.445312 480.136719 190.527344 507.519531 217.898438 C 534.902344 245.28125 549.972656 281.683594 549.972656 320.40625 C 549.972656 359.125 534.890625 395.53125 507.519531 422.910156 C 480.152344 450.292969 443.734375 465.367188 405.011719 465.367188 Z M 405.011719 191.03125 C 370.460938 191.03125 337.964844 204.492188 313.53125 228.921875 C 289.097656 253.355469 275.636719 285.851562 275.636719 320.40625 C 275.636719 354.957031 289.097656 387.453125 313.53125 411.886719 C 337.964844 436.320312 370.460938 449.78125 405.011719 449.78125 C 439.566406 449.78125 472.0625 436.320312 496.496094 411.886719 C 520.929688 387.453125 534.390625 354.957031 534.390625 320.40625 C 534.390625 285.851562 520.929688 253.355469 496.496094 228.921875 C 472.0625 204.476562 439.566406 191.03125 405.011719 191.03125 Z M 405.011719 191.03125 " fill-opacity="1" fill-rule="nonzero"/><g clip-path="url(#86df9dfae2)"><path fill="#d17ab3" d="M 405.011719 535.835938 C 384.871094 535.835938 365.996094 526.148438 354.171875 510.144531 C 335.9375 518.085938 314.75 517.046875 297.296875 506.964844 C 279.84375 496.886719 268.347656 479.070312 266.113281 459.304688 C 246.347656 457.070312 228.515625 445.558594 218.453125 428.121094 C 208.375 410.667969 207.332031 389.484375 215.273438 371.246094 C 199.269531 359.421875 189.582031 340.550781 189.582031 320.40625 C 189.582031 300.261719 199.269531 281.386719 215.273438 269.5625 C 207.316406 251.328125 208.375 230.140625 218.453125 212.6875 C 228.515625 195.238281 246.347656 183.738281 266.113281 181.503906 C 268.347656 161.738281 279.859375 143.910156 297.296875 133.84375 C 314.75 123.777344 335.9375 122.722656 354.171875 130.664062 C 365.996094 114.660156 384.871094 104.972656 405.011719 104.972656 C 425.15625 104.972656 444.03125 114.660156 455.855469 130.664062 C 474.089844 122.710938 495.277344 123.765625 512.730469 133.84375 C 530.179688 143.921875 541.679688 161.738281 543.914062 181.503906 C 563.679688 183.738281 581.507812 195.25 591.574219 212.6875 C 601.652344 230.140625 602.695312 251.328125 594.753906 269.5625 C 610.757812 281.386719 620.445312 300.261719 620.445312 320.40625 C 620.445312 340.550781 610.757812 359.421875 594.753906 371.246094 C 602.710938 389.484375 601.652344 410.667969 591.574219 428.121094 C 581.496094 445.574219 563.679688 457.070312 543.914062 459.304688 C 541.679688 479.070312 530.167969 496.902344 512.730469 506.964844 C 495.289062 517.03125 474.089844 518.085938 455.855469 510.144531 C 444.03125 526.148438 425.15625 535.835938 405.011719 535.835938 Z M 356.878906 492.246094 C 357.554688 492.246094 358.230469 492.328125 358.894531 492.515625 C 360.910156 493.058594 362.613281 494.371094 363.644531 496.183594 C 372.097656 511.023438 387.953125 520.25 405.011719 520.25 C 422.074219 520.25 437.914062 511.039062 446.371094 496.199219 C 447.398438 494.382812 449.117188 493.070312 451.121094 492.53125 C 453.136719 491.988281 455.273438 492.273438 457.070312 493.328125 C 471.820312 501.945312 490.148438 502.015625 504.921875 493.476562 C 519.695312 484.953125 528.816406 469.046875 528.71875 451.957031 C 528.707031 449.875 529.53125 447.871094 531.007812 446.398438 C 532.46875 444.9375 534.457031 444.113281 536.511719 444.113281 C 536.609375 444.113281 536.730469 444.113281 536.824219 444.113281 C 553.800781 444.113281 569.589844 435.019531 578.074219 420.316406 C 586.597656 405.542969 586.542969 387.210938 577.925781 372.464844 C 576.871094 370.664062 576.585938 368.527344 577.125 366.511719 C 577.667969 364.496094 578.980469 362.789062 580.792969 361.761719 C 595.632812 353.308594 604.859375 337.449219 604.859375 320.390625 C 604.859375 303.332031 595.648438 287.488281 580.804688 279.035156 C 578.992188 278.003906 577.679688 276.289062 577.140625 274.285156 C 576.597656 272.269531 576.882812 270.132812 577.9375 268.332031 C 586.554688 253.585938 586.625 235.253906 578.085938 220.480469 C 569.605469 205.789062 553.816406 196.683594 536.835938 196.683594 C 536.730469 196.683594 536.621094 196.683594 536.527344 196.683594 C 534.457031 196.683594 532.480469 195.859375 531.019531 194.398438 C 529.546875 192.921875 528.71875 190.921875 528.734375 188.835938 C 528.828125 171.765625 519.710938 155.855469 504.9375 147.316406 C 490.164062 138.792969 471.832031 138.847656 457.085938 147.464844 C 455.285156 148.523438 453.148438 148.804688 451.132812 148.265625 C 449.117188 147.722656 447.414062 146.398438 446.382812 144.597656 C 437.929688 129.757812 422.074219 120.542969 405.027344 120.542969 C 387.96875 120.542969 372.125 129.757812 363.65625 144.597656 C 362.628906 146.410156 360.910156 147.722656 358.90625 148.265625 C 356.890625 148.804688 354.753906 148.523438 352.953125 147.464844 C 338.207031 138.835938 319.878906 138.78125 305.105469 147.316406 C 290.332031 155.839844 281.210938 171.75 281.308594 188.835938 C 281.320312 190.921875 280.496094 192.921875 279.019531 194.382812 C 277.546875 195.859375 275.570312 196.644531 273.472656 196.671875 C 273.378906 196.671875 273.296875 196.671875 273.203125 196.671875 C 256.222656 196.671875 240.4375 205.777344 231.953125 220.46875 C 223.429688 235.242188 223.484375 253.574219 232.117188 268.320312 C 233.171875 270.117188 233.457031 272.257812 232.914062 274.273438 C 232.375 276.289062 231.046875 277.992188 229.246094 279.019531 C 214.40625 287.476562 205.195312 303.332031 205.195312 320.390625 C 205.195312 337.449219 214.40625 353.292969 229.246094 361.75 C 231.0625 362.777344 232.375 364.496094 232.914062 366.496094 C 233.457031 368.511719 233.171875 370.652344 232.117188 372.449219 C 223.5 387.195312 223.429688 405.527344 231.96875 420.300781 C 240.449219 434.992188 256.238281 444.097656 273.214844 444.097656 C 273.324219 444.097656 273.417969 444.097656 273.527344 444.097656 C 275.597656 444.097656 277.574219 444.921875 279.035156 446.382812 C 280.507812 447.859375 281.332031 449.859375 281.320312 451.945312 C 281.226562 469.03125 290.34375 484.941406 305.117188 493.464844 C 319.890625 501.988281 338.222656 501.933594 352.96875 493.316406 C 354.144531 492.613281 355.511719 492.246094 356.878906 492.246094 Z M 356.878906 492.246094 " fill-opacity="1" fill-rule="nonzero"/></g><g clip-path="url(#ae5664a14f)"><path fill="#d17ab3" d="M 474.238281 705 C 473.957031 705 473.671875 704.988281 473.386719 704.960938 C 470.195312 704.609375 467.542969 702.335938 466.703125 699.238281 L 420.085938 525.257812 C 419.097656 521.5625 420.9375 517.695312 424.425781 516.125 C 433.585938 512.027344 441.378906 504.9375 446.371094 496.195312 C 447.398438 494.382812 449.117188 493.070312 451.121094 492.53125 C 453.136719 491.988281 455.273438 492.273438 457.070312 493.328125 C 471.820312 501.945312 490.148438 502.015625 504.921875 493.476562 C 519.695312 484.953125 528.816406 469.046875 528.71875 451.957031 C 528.707031 449.875 529.53125 447.871094 531.007812 446.398438 C 532.480469 444.921875 534.441406 444.097656 536.566406 444.113281 C 543.5625 444.085938 550.675781 442.597656 557.0625 439.621094 C 559.148438 438.644531 561.566406 438.644531 563.652344 439.621094 C 565.734375 440.59375 567.289062 442.433594 567.886719 444.667969 L 624.746094 656.878906 C 625.585938 659.976562 624.421875 663.277344 621.824219 665.183594 C 619.226562 667.09375 615.738281 667.199219 613.03125 665.46875 L 527.800781 611.164062 L 481.140625 700.804688 C 479.800781 703.402344 477.121094 705 474.238281 705 Z M 436.777344 527.273438 L 476.582031 675.832031 L 517.910156 596.417969 C 518.925781 594.484375 520.699219 593.050781 522.808594 592.496094 C 524.917969 591.925781 527.164062 592.277344 529.019531 593.457031 L 604.523438 641.5625 L 555.0625 457.019531 C 551.421875 458.113281 547.6875 458.871094 543.914062 459.304688 C 541.679688 479.082031 530.179688 496.902344 512.730469 506.980469 C 495.277344 517.058594 474.089844 518.101562 455.855469 510.160156 C 450.726562 517.058594 444.191406 522.929688 436.777344 527.273438 Z M 436.777344 527.273438 " fill-opacity="1" fill-rule="nonzero"/></g><path fill="#d17ab3" d="M 335.785156 705 C 332.90625 705 330.226562 703.402344 328.875 700.804688 L 282.214844 611.164062 L 196.980469 665.46875 C 194.277344 667.199219 190.785156 667.078125 188.1875 665.183594 C 185.589844 663.277344 184.441406 659.988281 185.265625 656.878906 L 242.128906 444.667969 C 242.722656 442.449219 244.277344 440.59375 246.363281 439.621094 C 248.445312 438.644531 250.867188 438.644531 252.949219 439.621094 C 259.335938 442.597656 266.410156 444.125 273.445312 444.113281 C 275.542969 444.097656 277.53125 444.921875 279.007812 446.398438 C 280.480469 447.871094 281.304688 449.875 281.292969 451.957031 C 281.199219 469.046875 290.316406 484.953125 305.089844 493.476562 C 319.863281 502 338.195312 501.945312 352.941406 493.328125 C 354.742188 492.273438 356.878906 491.988281 358.894531 492.53125 C 360.910156 493.070312 362.613281 494.398438 363.640625 496.195312 C 368.621094 504.9375 376.414062 512.011719 385.585938 516.125 C 389.078125 517.695312 390.917969 521.5625 389.929688 525.257812 L 343.308594 699.238281 C 342.46875 702.335938 339.820312 704.621094 336.625 704.960938 C 336.355469 704.988281 336.070312 705 335.785156 705 Z M 285.203125 592.222656 C 285.878906 592.222656 286.554688 592.304688 287.21875 592.496094 C 289.328125 593.0625 291.101562 594.484375 292.117188 596.417969 L 333.445312 675.832031 L 373.246094 527.273438 C 365.820312 522.929688 359.300781 517.070312 354.171875 510.144531 C 335.9375 518.101562 314.734375 517.046875 297.296875 506.980469 C 279.84375 496.902344 268.347656 479.082031 266.113281 459.304688 C 262.339844 458.871094 258.605469 458.113281 254.964844 457.019531 L 205.519531 641.550781 L 281.023438 593.441406 C 282.28125 592.644531 283.726562 592.222656 285.203125 592.222656 Z M 285.203125 592.222656 " fill-opacity="1" fill-rule="nonzero"/><g fill="#ffffff" fill-opacity="1"><g transform="translate(17.871166, 14.532539)"><g><path d="M 0.421875 0 L 0.40625 -0.078125 L 0.390625 -0.078125 C 0.367188 -0.046875 0.34375 -0.0195312 0.3125 0 C 0.289062 0.0078125 0.257812 0.015625 0.21875 0.015625 C 0.164062 0.015625 0.125 0 0.09375 -0.03125 C 0.0625 -0.0625 0.046875 -0.0976562 0.046875 -0.140625 C 0.046875 -0.253906 0.132812 -0.3125 0.3125 -0.3125 L 0.390625 -0.328125 L 0.390625 -0.359375 C 0.390625 -0.398438 0.378906 -0.429688 0.359375 -0.453125 C 0.347656 -0.472656 0.320312 -0.484375 0.28125 -0.484375 C 0.238281 -0.484375 0.1875 -0.46875 0.125 -0.4375 L 0.109375 -0.5 C 0.128906 -0.507812 0.15625 -0.519531 0.1875 -0.53125 C 0.21875 -0.539062 0.25 -0.546875 0.28125 -0.546875 C 0.351562 -0.546875 0.398438 -0.53125 0.421875 -0.5 C 0.453125 -0.46875 0.46875 -0.421875 0.46875 -0.359375 L 0.46875 0 Z M 0.234375 -0.0625 C 0.285156 -0.0625 0.320312 -0.0703125 0.34375 -0.09375 C 0.375 -0.125 0.390625 -0.164062 0.390625 -0.21875 L 0.390625 -0.265625 L 0.3125 -0.265625 C 0.25 -0.253906 0.203125 -0.238281 0.171875 -0.21875 C 0.140625 -0.207031 0.125 -0.179688 0.125 -0.140625 C 0.125 -0.117188 0.132812 -0.0976562 0.15625 -0.078125 C 0.175781 -0.0664062 0.203125 -0.0625 0.234375 -0.0625 Z M 0.234375 -0.0625 "/></g></g></g></svg>