<svg xmlns="http://www.w3.org/2000/svg" xmlns:xlink="http://www.w3.org/1999/xlink" width="1080" zoomAndPan="magnify" viewBox="0 0 810 809.999993" height="1080" preserveAspectRatio="xMidYMid meet" version="1.0"><defs><g/><clipPath id="3fc665d93a"><path d="M 150.75 133 L 659 133 L 659 702 L 150.75 702 Z M 150.75 133 " clip-rule="nonzero"/></clipPath></defs><g fill="#ffffff" fill-opacity="1"><g transform="translate(17.871166, 14.532539)"><g><path d="M 0.421875 0 L 0.40625 -0.078125 L 0.390625 -0.078125 C 0.367188 -0.046875 0.34375 -0.0195312 0.3125 0 C 0.289062 0.0078125 0.257812 0.015625 0.21875 0.015625 C 0.164062 0.015625 0.125 0 0.09375 -0.03125 C 0.0625 -0.0625 0.046875 -0.0976562 0.046875 -0.140625 C 0.046875 -0.253906 0.132812 -0.3125 0.3125 -0.3125 L 0.390625 -0.328125 L 0.390625 -0.359375 C 0.390625 -0.398438 0.378906 -0.429688 0.359375 -0.453125 C 0.347656 -0.472656 0.320312 -0.484375 0.28125 -0.484375 C 0.238281 -0.484375 0.1875 -0.46875 0.125 -0.4375 L 0.109375 -0.5 C 0.128906 -0.507812 0.15625 -0.519531 0.1875 -0.53125 C 0.21875 -0.539062 0.25 -0.546875 0.28125 -0.546875 C 0.351562 -0.546875 0.398438 -0.53125 0.421875 -0.5 C 0.453125 -0.46875 0.46875 -0.421875 0.46875 -0.359375 L 0.46875 0 Z M 0.234375 -0.0625 C 0.285156 -0.0625 0.320312 -0.0703125 0.34375 -0.09375 C 0.375 -0.125 0.390625 -0.164062 0.390625 -0.21875 L 0.390625 -0.265625 L 0.3125 -0.265625 C 0.25 -0.253906 0.203125 -0.238281 0.171875 -0.21875 C 0.140625 -0.207031 0.125 -0.179688 0.125 -0.140625 C 0.125 -0.117188 0.132812 -0.0976562 0.15625 -0.078125 C 0.175781 -0.0664062 0.203125 -0.0625 0.234375 -0.0625 Z M 0.234375 -0.0625 "/></g></g></g><g clip-path="url(#3fc665d93a)"><path fill="#9fd7ea" d="M 328.523438 171.84375 C 333.527344 169.25 338.652344 166.929688 343.898438 164.875 C 349.148438 162.820312 354.488281 161.046875 359.921875 159.550781 C 365.355469 158.058594 370.855469 156.851562 376.414062 155.9375 C 381.976562 155.019531 387.566406 154.398438 393.195312 154.070312 C 398.820312 153.738281 404.445312 153.707031 410.078125 153.96875 C 415.707031 154.230469 421.304688 154.785156 426.878906 155.636719 C 432.449219 156.488281 437.960938 157.625 443.410156 159.054688 C 448.863281 160.484375 454.222656 162.191406 459.496094 164.183594 C 455.746094 165.75 452.601562 168.121094 450.066406 171.292969 C 445.4375 177.941406 442.15625 185.195312 440.214844 193.0625 C 440.039062 194.320312 439.785156 195.566406 439.453125 196.792969 C 439.117188 198.023438 438.707031 199.226562 438.222656 200.402344 C 437.738281 201.578125 437.179688 202.71875 436.550781 203.824219 C 435.921875 204.933594 435.226562 205.996094 434.460938 207.011719 C 433.699219 208.03125 432.875 208.996094 431.988281 209.910156 C 431.101562 210.824219 430.164062 211.679688 429.167969 212.476562 C 428.175781 213.269531 427.136719 214 426.050781 214.664062 C 424.964844 215.328125 423.839844 215.921875 422.679688 216.441406 C 405.007812 225.015625 393.628906 245.488281 387.191406 261.148438 C 386.464844 262.96875 385.875 264.832031 385.417969 266.738281 C 384.964844 268.644531 384.652344 270.574219 384.480469 272.527344 C 384.308594 274.480469 384.28125 276.433594 384.398438 278.390625 C 384.511719 280.34375 384.769531 282.28125 385.171875 284.203125 C 385.570312 286.121094 386.105469 288 386.78125 289.839844 C 387.457031 291.679688 388.261719 293.457031 389.199219 295.179688 C 390.136719 296.902344 391.191406 298.546875 392.371094 300.113281 C 393.546875 301.679688 394.832031 303.152344 396.226562 304.527344 C 397.46875 305.734375 398.78125 306.855469 400.164062 307.898438 C 401.546875 308.941406 402.988281 309.894531 404.488281 310.757812 C 405.988281 311.625 407.535156 312.394531 409.128906 313.066406 C 410.722656 313.742188 412.351562 314.3125 414.019531 314.785156 C 415.683594 315.257812 417.371094 315.628906 419.082031 315.890625 C 420.792969 316.15625 422.511719 316.316406 424.242188 316.367188 C 425.972656 316.421875 427.699219 316.367188 429.421875 316.203125 C 431.148438 316.042969 432.855469 315.777344 434.546875 315.40625 C 451.410156 311.898438 456.792969 314.425781 457.695312 314.964844 C 458.089844 315.171875 458.4375 315.441406 458.738281 315.773438 C 458.867188 318.558594 458.59375 321.300781 457.917969 324.003906 C 456.882812 328.375 456.359375 332.800781 456.347656 337.289062 C 456.335938 341.78125 456.835938 346.210938 457.847656 350.582031 C 459.128906 356.355469 459.738281 362.195312 459.667969 368.109375 C 459.992188 380.308594 460.449219 397.019531 478.738281 401.195312 C 481.847656 401.527344 484.957031 401.527344 488.070312 401.199219 C 491.179688 400.867188 494.222656 400.210938 497.191406 399.226562 C 500.164062 398.246094 502.996094 396.960938 505.691406 395.375 C 508.386719 393.785156 510.886719 391.933594 513.1875 389.808594 C 515.027344 388.496094 516.796875 387.089844 518.492188 385.589844 C 520.1875 384.089844 521.796875 382.503906 523.328125 380.835938 C 524.855469 379.167969 526.292969 377.425781 527.640625 375.605469 C 528.988281 373.789062 530.238281 371.90625 531.386719 369.957031 C 532.539062 368.007812 533.582031 366.003906 534.523438 363.945312 C 535.464844 361.886719 536.292969 359.785156 537.015625 357.640625 C 537.734375 355.496094 538.34375 353.316406 538.835938 351.109375 C 539.332031 348.898438 539.707031 346.671875 539.96875 344.425781 C 540.058594 342.519531 540.347656 340.648438 540.835938 338.808594 C 541.328125 336.964844 542.007812 335.199219 542.875 333.503906 C 543.746094 331.808594 544.78125 330.222656 545.992188 328.75 C 547.199219 327.277344 548.550781 325.949219 550.042969 324.765625 C 551.140625 323.859375 552.148438 322.863281 553.066406 321.777344 C 553.988281 320.691406 554.804688 319.53125 555.519531 318.300781 C 556.230469 317.070312 556.832031 315.785156 557.316406 314.445312 C 557.800781 313.109375 558.164062 311.738281 558.40625 310.335938 C 558.648438 308.933594 558.765625 307.523438 558.753906 306.097656 C 558.746094 304.675781 558.609375 303.265625 558.347656 301.867188 C 558.085938 300.46875 557.707031 299.101562 557.203125 297.769531 C 556.699219 296.441406 556.082031 295.164062 555.351562 293.941406 L 563.019531 291.886719 C 563.363281 294.164062 563.65625 296.449219 563.898438 298.738281 C 564.144531 301.027344 564.339844 303.320312 564.488281 305.617188 C 564.632812 307.917969 564.734375 310.21875 564.78125 312.519531 C 564.832031 314.820312 564.832031 317.125 564.78125 319.425781 C 564.730469 321.726562 564.632812 324.027344 564.488281 326.324219 C 564.339844 328.625 564.144531 330.917969 563.898438 333.207031 C 563.652344 335.496094 563.359375 337.78125 563.015625 340.058594 C 562.671875 342.332031 562.28125 344.601562 561.84375 346.863281 C 561.402344 349.121094 560.917969 351.371094 560.382812 353.613281 C 559.847656 355.851562 559.261719 358.078125 558.632812 360.292969 C 558.003906 362.507812 557.324219 364.710938 556.601562 366.894531 C 555.878906 369.082031 555.109375 371.25 554.289062 373.402344 C 553.472656 375.554688 552.613281 377.691406 551.703125 379.808594 C 550.796875 381.921875 549.84375 384.019531 548.847656 386.09375 C 547.851562 388.171875 546.808594 390.222656 545.726562 392.253906 C 544.640625 394.285156 543.511719 396.292969 542.34375 398.277344 C 541.171875 400.257812 539.960938 402.214844 538.707031 404.148438 C 537.453125 406.078125 536.160156 407.984375 534.824219 409.859375 C 533.488281 411.734375 532.117188 413.582031 530.703125 415.402344 C 529.289062 417.21875 527.835938 419.003906 526.347656 420.761719 C 524.855469 422.515625 523.332031 424.238281 521.765625 425.929688 C 520.203125 427.621094 518.605469 429.277344 516.972656 430.898438 C 515.335938 432.523438 513.667969 434.109375 511.96875 435.660156 C 510.265625 437.210938 508.53125 438.726562 506.765625 440.203125 C 505 441.679688 503.203125 443.121094 501.375 444.519531 C 499.546875 445.921875 497.691406 447.28125 495.804688 448.605469 C 493.917969 449.925781 492.007812 451.207031 490.066406 452.445312 C 488.125 453.6875 486.160156 454.882812 484.167969 456.039062 C 482.175781 457.195312 480.164062 458.308594 478.125 459.378906 C 476.085938 460.449219 474.023438 461.476562 471.941406 462.457031 C 469.859375 463.441406 467.757812 464.378906 465.632812 465.269531 C 463.511719 466.164062 461.371094 467.011719 459.210938 467.8125 C 457.054688 468.613281 454.878906 469.367188 452.6875 470.078125 C 450.496094 470.785156 448.292969 471.445312 446.074219 472.0625 C 443.851562 472.675781 441.621094 473.242188 439.378906 473.761719 C 437.136719 474.28125 434.882812 474.753906 432.617188 475.175781 C 430.355469 475.601562 428.085938 475.972656 425.804688 476.300781 C 423.523438 476.628906 421.238281 476.90625 418.949219 477.132812 C 416.65625 477.363281 414.363281 477.542969 412.0625 477.675781 C 409.765625 477.804688 407.464844 477.886719 405.160156 477.921875 C 402.859375 477.953125 400.558594 477.9375 398.253906 477.871094 C 395.953125 477.804688 393.65625 477.691406 391.359375 477.527344 C 389.0625 477.367188 386.769531 477.152344 384.480469 476.890625 C 382.191406 476.632812 379.910156 476.320312 377.636719 475.964844 C 375.363281 475.605469 373.097656 475.199219 370.839844 474.742188 C 368.582031 474.289062 366.335938 473.785156 364.101562 473.234375 C 361.863281 472.683594 359.640625 472.085938 357.429688 471.441406 C 355.21875 470.792969 353.023438 470.101562 350.84375 469.363281 C 348.664062 468.625 346.5 467.839844 344.351562 467.007812 C 342.203125 466.175781 340.074219 465.296875 337.964844 464.375 C 335.855469 463.453125 333.765625 462.488281 331.699219 461.476562 C 329.628906 460.464844 327.582031 459.410156 325.558594 458.308594 C 323.535156 457.210938 321.539062 456.070312 319.5625 454.886719 C 317.585938 453.703125 315.636719 452.476562 313.714844 451.210938 C 311.792969 449.941406 309.898438 448.636719 308.03125 447.289062 C 306.164062 445.941406 304.328125 444.550781 302.519531 443.125 C 300.710938 441.699219 298.933594 440.234375 297.191406 438.734375 C 295.445312 437.230469 293.730469 435.695312 292.050781 434.117188 C 290.371094 432.542969 288.726562 430.933594 287.117188 429.289062 C 285.503906 427.644531 283.929688 425.964844 282.390625 424.253906 C 280.851562 422.539062 279.347656 420.796875 277.882812 419.019531 C 276.417969 417.242188 274.992188 415.433594 273.605469 413.597656 C 272.214844 411.761719 270.867188 409.894531 269.558594 408 C 268.25 406.105469 266.984375 404.183594 265.757812 402.234375 C 265.402344 401.671875 264.992188 401.148438 264.535156 400.664062 C 264.078125 400.179688 263.574219 399.746094 263.03125 399.363281 C 262.484375 398.976562 261.910156 398.648438 261.300781 398.378906 C 260.691406 398.109375 260.0625 397.898438 259.414062 397.75 C 258.761719 397.605469 258.105469 397.523438 257.4375 397.503906 C 256.773438 397.488281 256.109375 397.535156 255.453125 397.648438 C 254.796875 397.761719 254.15625 397.9375 253.535156 398.175781 C 252.914062 398.414062 252.320312 398.710938 251.757812 399.066406 C 251.191406 399.421875 250.667969 399.832031 250.1875 400.289062 C 249.703125 400.75 249.269531 401.25 248.882812 401.792969 C 248.5 402.339844 248.171875 402.914062 247.898438 403.523438 C 247.628906 404.132812 247.421875 404.761719 247.273438 405.414062 C 247.125 406.0625 247.042969 406.71875 247.027344 407.386719 C 247.007812 408.050781 247.058594 408.714844 247.171875 409.371094 C 247.28125 410.027344 247.457031 410.667969 247.699219 411.289062 C 247.9375 411.910156 248.234375 412.503906 248.589844 413.066406 C 250.152344 415.546875 251.773438 417.984375 253.453125 420.386719 C 255.132812 422.785156 256.871094 425.144531 258.664062 427.460938 C 260.457031 429.777344 262.304688 432.050781 264.207031 434.277344 C 266.109375 436.503906 268.066406 438.683594 270.074219 440.816406 C 272.082031 442.949219 274.140625 445.035156 276.25 447.066406 C 278.359375 449.101562 280.515625 451.082031 282.71875 453.011719 C 284.921875 454.945312 287.171875 456.820312 289.46875 458.640625 C 291.761719 460.460938 294.097656 462.226562 296.480469 463.9375 C 298.859375 465.644531 301.277344 467.296875 303.738281 468.886719 C 306.195312 470.480469 308.691406 472.011719 311.226562 473.484375 C 313.757812 474.957031 316.324219 476.367188 318.925781 477.714844 C 321.527344 479.0625 324.160156 480.347656 326.824219 481.570312 C 329.484375 482.789062 332.175781 483.945312 334.894531 485.039062 C 337.613281 486.128906 340.355469 487.15625 343.125 488.113281 C 345.894531 489.074219 348.683594 489.964844 351.496094 490.789062 C 354.304688 491.617188 357.132812 492.371094 359.980469 493.0625 C 362.828125 493.75 365.691406 494.367188 368.570312 494.917969 C 371.449219 495.46875 374.335938 495.949219 377.238281 496.363281 C 380.136719 496.773438 383.046875 497.113281 385.964844 497.386719 C 388.878906 497.65625 391.804688 497.859375 394.730469 497.988281 C 397.65625 498.117188 400.585938 498.179688 403.515625 498.167969 C 406.445312 498.15625 409.371094 498.074219 412.296875 497.921875 C 415.222656 497.769531 418.144531 497.546875 421.058594 497.253906 C 423.972656 496.960938 426.878906 496.597656 429.777344 496.167969 C 432.675781 495.734375 435.558594 495.230469 438.433594 494.660156 C 441.304688 494.085938 444.164062 493.445312 447.007812 492.738281 C 449.847656 492.027344 452.671875 491.25 455.476562 490.402344 C 458.28125 489.558594 461.066406 488.644531 463.828125 487.664062 C 466.585938 486.683594 469.324219 485.640625 472.035156 484.527344 C 474.742188 483.414062 477.425781 482.238281 480.078125 480.996094 C 482.734375 479.757812 485.355469 478.453125 487.945312 477.085938 C 490.539062 475.71875 493.09375 474.289062 495.617188 472.796875 C 498.136719 471.304688 500.621094 469.753906 503.070312 468.144531 C 505.515625 466.535156 507.925781 464.867188 510.292969 463.140625 C 512.660156 461.414062 514.980469 459.628906 517.261719 457.792969 C 519.542969 455.953125 521.78125 454.0625 523.96875 452.113281 C 526.160156 450.167969 528.300781 448.171875 530.394531 446.121094 C 532.488281 444.070312 534.53125 441.972656 536.523438 439.824219 C 538.515625 437.675781 540.453125 435.480469 542.339844 433.238281 C 544.226562 431 546.058594 428.714844 547.835938 426.382812 C 549.609375 424.054688 551.328125 421.683594 552.992188 419.269531 C 554.652344 416.855469 556.257812 414.40625 557.800781 411.914062 C 559.34375 409.425781 560.828125 406.898438 562.25 404.339844 C 563.671875 401.777344 565.03125 399.183594 566.328125 396.554688 C 567.625 393.929688 568.859375 391.273438 570.027344 388.585938 C 571.195312 385.898438 572.300781 383.1875 573.335938 380.449219 C 574.375 377.707031 575.347656 374.945312 576.253906 372.160156 C 577.15625 369.371094 577.996094 366.566406 578.765625 363.738281 C 579.535156 360.914062 580.234375 358.070312 580.867188 355.207031 C 581.5 352.347656 582.0625 349.472656 582.558594 346.585938 C 583.050781 343.699219 583.476562 340.800781 583.832031 337.890625 C 584.1875 334.984375 584.46875 332.070312 584.683594 329.148438 C 584.898438 326.226562 585.042969 323.300781 585.113281 320.371094 C 585.1875 317.441406 585.191406 314.515625 585.121094 311.585938 C 585.054688 308.65625 584.914062 305.730469 584.703125 302.808594 C 584.496094 299.886719 584.214844 296.972656 583.867188 294.0625 C 583.515625 291.152344 583.097656 288.253906 582.609375 285.367188 C 582.117188 282.476562 581.558594 279.601562 580.929688 276.742188 C 580.304688 273.878906 579.605469 271.035156 578.839844 268.207031 C 578.074219 265.378906 577.242188 262.570312 576.34375 259.785156 C 575.441406 256.996094 574.476562 254.230469 573.441406 251.488281 C 572.40625 248.75 571.308594 246.035156 570.144531 243.34375 C 568.980469 240.65625 567.75 238 566.457031 235.371094 C 565.164062 232.742188 563.808594 230.144531 562.390625 227.582031 C 560.972656 225.015625 559.492188 222.488281 557.953125 219.996094 C 556.414062 217.503906 554.816406 215.050781 553.15625 212.636719 C 551.5 210.21875 549.785156 207.847656 548.011719 205.511719 C 546.238281 203.179688 544.410156 200.890625 542.527344 198.648438 C 540.644531 196.402344 538.710938 194.207031 536.722656 192.054688 C 534.730469 189.902344 532.691406 187.800781 530.601562 185.75 C 528.511719 183.695312 526.375 181.695312 524.1875 179.742188 C 522 177.792969 519.769531 175.898438 517.492188 174.054688 C 515.210938 172.214844 512.890625 170.425781 510.527344 168.695312 C 508.164062 166.964844 505.757812 165.292969 503.3125 163.679688 C 500.871094 162.066406 498.386719 160.511719 495.867188 159.015625 C 493.347656 157.519531 490.792969 156.089844 488.207031 154.714844 C 485.617188 153.34375 482.996094 152.035156 480.34375 150.789062 C 477.691406 149.546875 475.011719 148.363281 472.304688 147.25 C 469.59375 146.132812 466.859375 145.082031 464.101562 144.097656 C 461.34375 143.113281 458.5625 142.195312 455.757812 141.34375 C 452.953125 140.496094 450.132812 139.710938 447.289062 139 C 444.449219 138.285156 441.59375 137.636719 438.71875 137.0625 C 435.847656 136.484375 432.964844 135.976562 430.066406 135.539062 C 427.167969 135.101562 424.265625 134.734375 421.347656 134.4375 C 418.433594 134.140625 415.515625 133.914062 412.589844 133.757812 C 409.664062 133.601562 406.734375 133.515625 403.808594 133.5 C 400.878906 133.484375 397.949219 133.539062 395.023438 133.664062 C 392.09375 133.789062 389.171875 133.984375 386.253906 134.25 C 383.335938 134.519531 380.429688 134.855469 377.527344 135.261719 C 374.625 135.667969 371.734375 136.144531 368.855469 136.691406 C 365.980469 137.234375 363.117188 137.851562 360.265625 138.535156 C 357.417969 139.21875 354.585938 139.96875 351.773438 140.789062 C 348.960938 141.613281 346.171875 142.5 343.402344 143.453125 C 340.632812 144.410156 337.886719 145.429688 335.167969 146.515625 C 332.445312 147.605469 329.753906 148.757812 327.089844 149.972656 C 324.421875 151.191406 321.789062 152.472656 319.1875 153.816406 C 318.597656 154.121094 318.042969 154.484375 317.523438 154.902344 C 317.003906 155.316406 316.527344 155.78125 316.101562 156.289062 C 315.671875 156.800781 315.296875 157.347656 314.976562 157.929688 C 314.65625 158.511719 314.394531 159.121094 314.195312 159.757812 C 313.996094 160.390625 313.855469 161.039062 313.785156 161.703125 C 313.710938 162.363281 313.703125 163.027344 313.757812 163.6875 C 313.816406 164.351562 313.9375 165.003906 314.121094 165.644531 C 314.308594 166.28125 314.554688 166.898438 314.859375 167.488281 C 315.164062 168.078125 315.527344 168.636719 315.941406 169.15625 C 316.355469 169.675781 316.820312 170.152344 317.328125 170.578125 C 317.835938 171.007812 318.382812 171.382812 318.964844 171.707031 C 319.546875 172.027344 320.15625 172.289062 320.789062 172.492188 C 321.425781 172.695312 322.074219 172.832031 322.734375 172.90625 C 323.394531 172.984375 324.058594 172.992188 324.722656 172.9375 C 325.382812 172.882812 326.035156 172.761719 326.675781 172.578125 C 327.316406 172.394531 327.929688 172.148438 328.523438 171.84375 Z M 558.800781 272.003906 L 549.179688 274.582031 C 547.554688 274.976562 546 275.5625 544.519531 276.339844 C 543.039062 277.117188 541.671875 278.058594 540.421875 279.171875 C 539.171875 280.28125 538.074219 281.527344 537.128906 282.910156 C 536.183594 284.289062 535.421875 285.765625 534.839844 287.332031 C 534.359375 288.722656 534.0625 290.152344 533.941406 291.621094 C 533.820312 293.085938 533.886719 294.546875 534.132812 295.996094 C 534.375 297.445312 534.796875 298.84375 535.394531 300.191406 C 535.988281 301.535156 536.742188 302.789062 537.652344 303.945312 C 539.066406 305.8125 538.730469 307.6875 536.652344 309.507812 C 534.097656 311.613281 531.796875 313.964844 529.742188 316.558594 C 527.691406 319.152344 525.929688 321.933594 524.46875 324.902344 C 523.003906 327.867188 521.871094 330.957031 521.0625 334.164062 C 520.253906 337.375 519.792969 340.632812 519.679688 343.9375 C 519.183594 346.9375 518.394531 349.855469 517.3125 352.691406 C 516.226562 355.53125 514.871094 358.230469 513.242188 360.796875 C 511.613281 363.359375 509.746094 365.738281 507.636719 367.921875 C 505.53125 370.109375 503.226562 372.066406 500.722656 373.789062 C 498.371094 376.074219 495.691406 377.875 492.679688 379.1875 C 489.671875 380.496094 486.53125 381.234375 483.253906 381.398438 C 481.234375 380.9375 480.3125 380.730469 479.957031 367.558594 C 480.015625 360.058594 479.183594 352.660156 477.464844 345.359375 C 476.242188 339.410156 476.386719 333.496094 477.894531 327.613281 C 479.460938 318.925781 481.828125 305.792969 468.152344 297.570312 C 465.199219 296.261719 462.152344 295.230469 459.011719 294.476562 C 455.871094 293.722656 452.691406 293.257812 449.464844 293.085938 C 446.242188 292.910156 443.027344 293.03125 439.824219 293.441406 C 436.621094 293.851562 433.484375 294.550781 430.40625 295.535156 C 428.695312 295.933594 426.957031 296.125 425.199219 296.105469 C 423.4375 296.082031 421.707031 295.851562 420.003906 295.410156 C 418.300781 294.96875 416.675781 294.328125 415.128906 293.488281 C 413.582031 292.652344 412.15625 291.640625 410.855469 290.457031 C 410.136719 289.789062 409.46875 289.074219 408.855469 288.304688 C 408.242188 287.535156 407.691406 286.726562 407.199219 285.875 C 406.710938 285.023438 406.285156 284.140625 405.929688 283.226562 C 405.570312 282.3125 405.285156 281.375 405.066406 280.417969 C 404.851562 279.457031 404.707031 278.488281 404.636719 277.507812 C 404.5625 276.53125 404.566406 275.550781 404.644531 274.570312 C 404.71875 273.589844 404.867188 272.621094 405.089844 271.664062 C 405.3125 270.707031 405.605469 269.773438 405.96875 268.859375 C 407.058594 265.394531 408.429688 262.046875 410.085938 258.8125 C 411.742188 255.578125 413.660156 252.507812 415.835938 249.601562 C 418.015625 246.691406 420.421875 243.988281 423.058594 241.488281 C 425.695312 238.988281 428.523438 236.730469 431.542969 234.710938 C 433.332031 233.882812 435.066406 232.953125 436.742188 231.921875 C 438.421875 230.890625 440.035156 229.761719 441.582031 228.539062 C 443.128906 227.316406 444.597656 226.007812 445.988281 224.609375 C 447.378906 223.214844 448.683594 221.742188 449.902344 220.191406 C 451.117188 218.640625 452.238281 217.023438 453.265625 215.34375 C 454.292969 213.660156 455.214844 211.921875 456.039062 210.128906 C 456.859375 208.339844 457.570312 206.503906 458.175781 204.628906 C 458.78125 202.753906 459.273438 200.847656 459.652344 198.914062 C 460.921875 193.449219 463.085938 188.363281 466.148438 183.660156 C 469.53125 181.894531 473.078125 180.550781 476.78125 179.632812 C 480.488281 178.714844 484.246094 178.242188 488.0625 178.222656 C 492.324219 180.859375 496.453125 183.691406 500.449219 186.714844 C 504.449219 189.734375 508.300781 192.933594 512 196.3125 C 515.703125 199.691406 519.242188 203.230469 522.613281 206.9375 C 525.988281 210.640625 529.183594 214.496094 532.203125 218.496094 C 535.222656 222.496094 538.046875 226.628906 540.683594 230.890625 C 543.316406 235.152344 545.75 239.527344 547.980469 244.015625 C 550.210938 248.503906 552.230469 253.085938 554.039062 257.761719 C 555.84375 262.433594 557.429688 267.183594 558.800781 272.003906 Z M 657.722656 524.660156 C 657.269531 521.847656 656.535156 519.109375 655.511719 516.449219 C 654.488281 513.792969 653.207031 511.265625 651.660156 508.871094 C 650.109375 506.480469 648.335938 504.273438 646.328125 502.25 C 644.320312 500.226562 642.128906 498.429688 639.75 496.863281 C 638.796875 496.210938 637.816406 495.601562 636.808594 495.035156 C 635.804688 494.46875 634.777344 493.949219 633.726562 493.46875 C 632.671875 492.992188 631.605469 492.558594 630.515625 492.171875 C 629.429688 491.785156 628.324219 491.449219 627.207031 491.15625 C 626.089844 490.867188 624.964844 490.625 623.824219 490.429688 C 622.6875 490.234375 621.542969 490.089844 620.390625 489.992188 C 619.242188 489.898438 618.089844 489.851562 616.933594 489.855469 C 615.78125 489.859375 614.628906 489.914062 613.476562 490.015625 C 612.328125 490.117188 611.183594 490.269531 610.046875 490.46875 C 608.910156 490.671875 607.785156 490.921875 606.667969 491.21875 C 605.550781 491.515625 604.453125 491.863281 603.367188 492.253906 C 602.28125 492.648438 601.214844 493.085938 600.164062 493.570312 C 599.117188 494.054688 598.09375 494.582031 597.089844 495.15625 C 596.085938 495.730469 595.109375 496.34375 594.160156 497 C 593.210938 497.65625 592.292969 498.351562 591.402344 499.089844 C 590.511719 499.824219 589.65625 500.597656 588.832031 501.40625 L 526.621094 562.707031 C 518.585938 554.605469 502.683594 546.019531 471.203125 544.417969 C 464.253906 544.082031 457.347656 543.355469 450.480469 542.234375 C 443.613281 541.113281 436.832031 539.605469 430.136719 537.714844 C 423.441406 535.824219 416.875 533.558594 410.4375 530.921875 C 403.996094 528.28125 397.730469 525.289062 391.632812 521.941406 C 381.457031 515.886719 370.574219 511.65625 358.988281 509.242188 C 326.753906 503.082031 298.535156 507.898438 281.542969 522.488281 C 270.300781 531.386719 257.929688 538.234375 244.425781 543.042969 L 244.425781 538.515625 C 244.425781 537.519531 244.375 536.527344 244.277344 535.535156 C 244.179688 534.542969 244.03125 533.554688 243.835938 532.578125 C 243.640625 531.601562 243.398438 530.636719 243.109375 529.679688 C 242.816406 528.726562 242.480469 527.789062 242.097656 526.871094 C 241.71875 525.949219 241.292969 525.050781 240.820312 524.167969 C 240.351562 523.289062 239.839844 522.4375 239.285156 521.609375 C 238.730469 520.777344 238.136719 519.980469 237.503906 519.210938 C 236.871094 518.4375 236.203125 517.699219 235.5 516.996094 C 234.792969 516.289062 234.054688 515.621094 233.285156 514.988281 C 232.515625 514.355469 231.714844 513.761719 230.886719 513.210938 C 230.058594 512.65625 229.203125 512.144531 228.324219 511.671875 C 227.445312 511.203125 226.546875 510.777344 225.625 510.394531 C 224.703125 510.011719 223.765625 509.675781 222.8125 509.386719 C 221.859375 509.097656 220.894531 508.855469 219.914062 508.660156 C 218.9375 508.464844 217.953125 508.316406 216.960938 508.21875 C 215.96875 508.117188 214.972656 508.070312 213.976562 508.066406 L 160.898438 508.066406 C 160.234375 508.066406 159.574219 508.132812 158.917969 508.261719 C 158.265625 508.394531 157.632812 508.585938 157.015625 508.839844 C 156.398438 509.09375 155.816406 509.40625 155.261719 509.777344 C 154.707031 510.148438 154.195312 510.570312 153.722656 511.039062 C 153.25 511.511719 152.832031 512.023438 152.460938 512.578125 C 152.089844 513.132812 151.777344 513.71875 151.523438 514.332031 C 151.265625 514.949219 151.074219 515.582031 150.945312 516.238281 C 150.816406 516.890625 150.75 517.550781 150.75 518.21875 L 150.75 691.734375 C 150.75 692.398438 150.816406 693.058594 150.945312 693.714844 C 151.074219 694.367188 151.265625 695.003906 151.523438 695.617188 C 151.777344 696.234375 152.089844 696.820312 152.460938 697.371094 C 152.832031 697.925781 153.25 698.4375 153.722656 698.910156 C 154.195312 699.382812 154.707031 699.800781 155.261719 700.171875 C 155.816406 700.542969 156.398438 700.855469 157.015625 701.109375 C 157.632812 701.367188 158.265625 701.558594 158.917969 701.6875 C 159.574219 701.820312 160.234375 701.882812 160.898438 701.882812 L 213.976562 701.882812 C 214.972656 701.882812 215.96875 701.832031 216.960938 701.734375 C 217.953125 701.636719 218.9375 701.488281 219.914062 701.292969 C 220.894531 701.097656 221.859375 700.855469 222.8125 700.566406 C 223.765625 700.273438 224.703125 699.9375 225.625 699.558594 C 226.546875 699.175781 227.445312 698.75 228.324219 698.277344 C 229.203125 697.808594 230.058594 697.296875 230.886719 696.742188 C 231.714844 696.1875 232.515625 695.59375 233.285156 694.960938 C 234.054688 694.328125 234.792969 693.660156 235.5 692.957031 C 236.203125 692.25 236.871094 691.511719 237.503906 690.742188 C 238.136719 689.972656 238.730469 689.171875 239.285156 688.34375 C 239.839844 687.515625 240.351562 686.660156 240.820312 685.78125 C 241.292969 684.902344 241.71875 684.003906 242.101562 683.082031 C 242.480469 682.160156 242.816406 681.222656 243.109375 680.269531 C 243.398438 679.316406 243.640625 678.351562 243.835938 677.371094 C 244.03125 676.394531 244.179688 675.410156 244.277344 674.417969 C 244.375 673.425781 244.425781 672.429688 244.425781 671.433594 L 244.425781 670.144531 L 273.082031 667.847656 C 282.269531 667.117188 291.449219 667.207031 300.621094 668.113281 C 309.792969 669.019531 318.8125 670.726562 327.679688 673.238281 C 328.320312 673.367188 391.820312 686.445312 412.679688 691.277344 C 427.402344 694.785156 442.328125 696.597656 457.460938 696.722656 C 463.738281 696.917969 469.992188 696.605469 476.21875 695.785156 C 482.449219 694.964844 488.570312 693.648438 494.582031 691.832031 C 500.59375 690.019531 506.421875 687.730469 512.066406 684.96875 C 517.707031 682.207031 523.089844 679.011719 528.210938 675.375 C 562.109375 650 645.640625 560.445312 649.808594 555.902344 C 651.503906 553.710938 652.960938 551.367188 654.175781 548.875 C 655.386719 546.382812 656.335938 543.792969 657.015625 541.105469 C 657.695312 538.417969 658.097656 535.6875 658.214844 532.917969 C 658.335938 530.148438 658.171875 527.394531 657.722656 524.660156 Z M 224.128906 671.433594 C 224.125 672.101562 224.0625 672.761719 223.929688 673.414062 C 223.800781 674.066406 223.605469 674.703125 223.351562 675.316406 C 223.097656 675.933594 222.78125 676.515625 222.414062 677.070312 C 222.042969 677.625 221.621094 678.136719 221.152344 678.609375 C 220.679688 679.078125 220.167969 679.5 219.613281 679.871094 C 219.058594 680.238281 218.476562 680.554688 217.859375 680.808594 C 217.246094 681.0625 216.609375 681.257812 215.957031 681.386719 C 215.304688 681.519531 214.644531 681.582031 213.976562 681.585938 L 171.050781 681.585938 L 171.050781 528.367188 L 213.976562 528.367188 C 214.644531 528.367188 215.304688 528.433594 215.957031 528.566406 C 216.609375 528.695312 217.246094 528.886719 217.859375 529.144531 C 218.476562 529.398438 219.058594 529.710938 219.613281 530.082031 C 220.167969 530.453125 220.679688 530.871094 221.152344 531.34375 C 221.621094 531.816406 222.042969 532.328125 222.414062 532.882812 C 222.78125 533.433594 223.097656 534.019531 223.351562 534.636719 C 223.605469 535.25 223.800781 535.882812 223.929688 536.539062 C 224.0625 537.191406 224.125 537.851562 224.128906 538.515625 Z M 634.328125 542.808594 C 633.476562 543.726562 548.5 634.832031 516.050781 659.117188 C 486.3125 681.382812 445.921875 678.136719 417.257812 671.503906 C 396.160156 666.613281 334.390625 653.894531 332.46875 653.523438 C 322.554688 650.738281 312.472656 648.847656 302.222656 647.855469 C 291.976562 646.863281 281.71875 646.785156 271.457031 647.617188 L 244.425781 649.785156 L 244.425781 564.921875 C 253.523438 561.882812 262.296875 558.09375 270.75 553.554688 C 279.199219 549.015625 287.203125 543.796875 294.765625 537.894531 C 300.574219 532.90625 318.085938 522.109375 355.171875 529.179688 C 364.550781 531.175781 373.347656 534.640625 381.570312 539.574219 C 388.359375 543.308594 395.339844 546.648438 402.507812 549.589844 C 409.675781 552.535156 416.988281 555.0625 424.441406 557.175781 C 431.898438 559.289062 439.449219 560.976562 447.09375 562.230469 C 454.742188 563.488281 462.433594 564.304688 470.171875 564.6875 C 509.796875 566.707031 514.667969 578.269531 515.03125 583.945312 C 515.007812 585.371094 514.75 586.75 514.265625 588.085938 C 513.78125 589.425781 513.089844 590.648438 512.195312 591.753906 C 508.367188 597.246094 496.957031 607.058594 463.507812 611.132812 C 456.808594 611.957031 450.125 611.832031 443.460938 610.761719 C 436.796875 609.6875 430.414062 607.710938 424.3125 604.828125 C 419.636719 602.785156 414.84375 601.066406 409.9375 599.667969 C 405.03125 598.273438 400.054688 597.207031 395.003906 596.480469 C 389.957031 595.75 384.878906 595.359375 379.777344 595.3125 C 374.675781 595.261719 369.59375 595.554688 364.535156 596.1875 C 363.871094 596.257812 363.222656 596.390625 362.585938 596.589844 C 361.949219 596.789062 361.339844 597.042969 360.753906 597.363281 C 360.167969 597.679688 359.621094 598.050781 359.105469 598.476562 C 358.59375 598.902344 358.128906 599.375 357.710938 599.890625 C 357.289062 600.410156 356.925781 600.960938 356.613281 601.550781 C 356.304688 602.140625 356.054688 602.753906 355.863281 603.394531 C 355.675781 604.03125 355.550781 604.683594 355.488281 605.34375 C 355.425781 606.007812 355.429688 606.671875 355.5 607.332031 C 355.566406 607.996094 355.699219 608.644531 355.898438 609.28125 C 356.09375 609.917969 356.351562 610.527344 356.667969 611.113281 C 356.984375 611.699219 357.355469 612.25 357.78125 612.761719 C 358.207031 613.273438 358.675781 613.742188 359.195312 614.160156 C 359.710938 614.582031 360.265625 614.945312 360.851562 615.257812 C 361.441406 615.570312 362.054688 615.820312 362.695312 616.011719 C 363.332031 616.199219 363.984375 616.328125 364.644531 616.386719 C 365.308594 616.449219 365.972656 616.449219 366.632812 616.378906 C 370.90625 615.828125 375.199219 615.570312 379.507812 615.605469 C 383.816406 615.644531 388.101562 615.976562 392.363281 616.601562 C 396.625 617.230469 400.828125 618.144531 404.964844 619.347656 C 409.101562 620.550781 413.136719 622.03125 417.070312 623.789062 C 424.78125 627.054688 432.773438 629.320312 441.050781 630.589844 C 449.328125 631.855469 457.632812 632.089844 465.964844 631.28125 C 498.179688 627.355469 519.558594 617.628906 529.519531 602.371094 C 531.472656 599.457031 532.9375 596.320312 533.925781 592.957031 C 534.910156 589.59375 535.363281 586.164062 535.292969 582.660156 L 603.082031 515.871094 C 603.925781 515.054688 604.832031 514.316406 605.804688 513.660156 C 606.777344 513 607.800781 512.433594 608.871094 511.957031 C 609.945312 511.476562 611.046875 511.09375 612.1875 510.808594 C 613.324219 510.523438 614.480469 510.339844 615.652344 510.257812 C 616.824219 510.171875 617.992188 510.191406 619.160156 510.3125 C 620.328125 510.433594 621.476562 510.65625 622.605469 510.976562 C 623.734375 511.296875 624.824219 511.714844 625.882812 512.230469 C 626.9375 512.742188 627.941406 513.34375 628.890625 514.03125 C 629.445312 514.417969 629.980469 514.832031 630.496094 515.269531 C 631.011719 515.707031 631.503906 516.171875 631.972656 516.65625 C 632.441406 517.144531 632.886719 517.652344 633.308594 518.179688 C 633.730469 518.710938 634.125 519.257812 634.492188 519.828125 C 634.859375 520.394531 635.199219 520.980469 635.507812 521.582031 C 635.820312 522.179688 636.101562 522.796875 636.351562 523.421875 C 636.601562 524.050781 636.824219 524.691406 637.011719 525.339844 C 637.203125 525.988281 637.359375 526.644531 637.484375 527.308594 C 637.609375 527.976562 637.703125 528.644531 637.761719 529.316406 C 637.824219 529.992188 637.851562 530.667969 637.847656 531.34375 C 637.84375 532.019531 637.804688 532.695312 637.734375 533.367188 C 637.664062 534.039062 637.5625 534.707031 637.425781 535.371094 C 637.292969 536.03125 637.125 536.6875 636.925781 537.332031 C 636.726562 537.980469 636.5 538.617188 636.238281 539.238281 C 635.980469 539.863281 635.6875 540.472656 635.371094 541.070312 C 635.050781 541.667969 634.703125 542.246094 634.328125 542.808594 Z M 163.867188 237.210938 C 150.96875 291.0625 215.492188 320.929688 236.507812 329.125 C 236.746094 343.117188 235.472656 356.972656 232.679688 370.683594 C 232.550781 371.339844 232.488281 372 232.492188 372.664062 C 232.492188 373.332031 232.5625 373.992188 232.691406 374.644531 C 232.824219 375.296875 233.019531 375.933594 233.277344 376.546875 C 233.53125 377.160156 233.847656 377.746094 234.21875 378.300781 C 234.589844 378.851562 235.011719 379.363281 235.484375 379.832031 C 235.957031 380.304688 236.472656 380.722656 237.027344 381.089844 C 237.582031 381.460938 238.167969 381.769531 238.785156 382.023438 C 239.402344 382.277344 240.035156 382.46875 240.691406 382.597656 C 241.34375 382.722656 242.003906 382.789062 242.671875 382.785156 C 243.335938 382.785156 243.996094 382.714844 244.648438 382.585938 C 245.304688 382.453125 245.9375 382.257812 246.550781 382.003906 C 247.167969 381.746094 247.75 381.429688 248.304688 381.058594 C 248.855469 380.6875 249.367188 380.265625 249.839844 379.792969 C 250.308594 379.320312 250.726562 378.808594 251.097656 378.253906 C 251.464844 377.699219 251.777344 377.113281 252.03125 376.496094 C 252.285156 375.878906 252.476562 375.246094 252.601562 374.589844 C 255.585938 359.75 256.957031 344.765625 256.71875 329.628906 C 278.378906 323.921875 329.738281 305.085938 330.90625 254.386719 C 330.816406 250.644531 331.058594 246.925781 331.628906 243.230469 C 332.203125 239.53125 333.097656 235.914062 334.316406 232.378906 C 335.535156 228.839844 337.054688 225.441406 338.878906 222.175781 C 340.703125 218.910156 342.804688 215.832031 345.179688 212.941406 C 345.835938 212.273438 346.390625 211.527344 346.84375 210.710938 C 347.300781 209.890625 347.632812 209.023438 347.851562 208.113281 C 348.066406 207.203125 348.15625 206.277344 348.117188 205.34375 C 348.082031 204.40625 347.917969 203.492188 347.628906 202.601562 C 347.34375 201.710938 346.941406 200.875 346.421875 200.09375 C 345.90625 199.3125 345.292969 198.617188 344.585938 198.003906 C 343.875 197.390625 343.097656 196.886719 342.25 196.484375 C 341.402344 196.085938 340.519531 195.808594 339.59375 195.652344 C 305.238281 190.457031 278.222656 193.59375 259.03125 204.867188 C 239.519531 189.664062 208.664062 180.691406 166.308594 178.394531 C 165.34375 178.367188 164.390625 178.472656 163.457031 178.714844 C 162.523438 178.953125 161.640625 179.316406 160.808594 179.808594 C 159.976562 180.296875 159.226562 180.890625 158.5625 181.589844 C 157.898438 182.289062 157.34375 183.070312 156.898438 183.925781 C 156.453125 184.78125 156.132812 185.683594 155.941406 186.628906 C 155.75 187.574219 155.695312 188.53125 155.773438 189.492188 C 155.851562 190.453125 156.058594 191.386719 156.402344 192.289062 C 156.742188 193.191406 157.199219 194.03125 157.777344 194.804688 C 159.773438 197.914062 161.414062 201.203125 162.703125 204.664062 C 163.992188 208.128906 164.902344 211.691406 165.425781 215.347656 C 165.953125 219.003906 166.082031 222.675781 165.820312 226.363281 C 165.558594 230.050781 164.90625 233.667969 163.867188 237.210938 Z M 320.339844 213.890625 C 317.226562 220.109375 314.851562 226.597656 313.210938 233.351562 C 311.566406 240.109375 310.703125 246.964844 310.617188 253.917969 C 309.988281 281.117188 287.882812 296.148438 269.238281 304.039062 C 280.207031 283.222656 290.054688 253.785156 277.875 227.582031 C 276.582031 225.011719 275.105469 222.546875 273.445312 220.195312 C 280.871094 217.175781 288.554688 215.132812 296.496094 214.066406 C 304.4375 213 312.386719 212.941406 320.339844 213.890625 Z M 259.46875 236.140625 C 267.957031 254.398438 260.453125 276.769531 251.925781 293.304688 C 250.738281 287.871094 249.125 282.566406 247.085938 277.386719 C 245.050781 272.210938 242.617188 267.226562 239.785156 262.4375 C 236.953125 257.648438 233.761719 253.113281 230.207031 248.835938 C 226.652344 244.554688 222.785156 240.582031 218.597656 236.921875 C 218.0625 236.527344 217.496094 236.191406 216.894531 235.910156 C 216.292969 235.628906 215.671875 235.410156 215.027344 235.253906 C 214.382812 235.09375 213.730469 235 213.070312 234.96875 C 212.40625 234.9375 211.75 234.96875 211.09375 235.070312 C 210.4375 235.167969 209.796875 235.328125 209.171875 235.550781 C 208.550781 235.773438 207.953125 236.058594 207.382812 236.398438 C 206.816406 236.738281 206.285156 237.128906 205.792969 237.574219 C 205.300781 238.019531 204.859375 238.507812 204.460938 239.039062 C 204.066406 239.570312 203.722656 240.132812 203.4375 240.734375 C 203.152344 241.332031 202.929688 241.949219 202.765625 242.59375 C 202.601562 243.234375 202.5 243.886719 202.464844 244.550781 C 202.429688 245.210938 202.457031 245.871094 202.550781 246.527344 C 202.640625 247.183594 202.796875 247.824219 203.015625 248.449219 C 203.234375 249.074219 203.511719 249.675781 203.847656 250.246094 C 204.183594 250.816406 204.570312 251.351562 205.011719 251.847656 C 205.453125 252.339844 205.9375 252.789062 206.464844 253.191406 C 210.207031 256.625 213.625 260.355469 216.71875 264.382812 C 219.8125 268.410156 222.539062 272.671875 224.894531 277.171875 C 227.25 281.671875 229.199219 286.339844 230.746094 291.175781 C 232.292969 296.015625 233.410156 300.949219 234.101562 305.980469 C 212.457031 295.925781 175.960938 273.867188 183.613281 241.941406 C 185.363281 235.042969 186.148438 228.039062 185.96875 220.929688 C 185.785156 213.816406 184.648438 206.859375 182.546875 200.0625 C 224.101562 204.617188 250.550781 216.964844 259.46875 236.140625 Z M 334.089844 437.496094 C 335.101562 438.921875 336.265625 440.207031 337.589844 441.351562 C 338.914062 442.492188 340.355469 443.460938 341.914062 444.253906 C 343.472656 445.046875 345.105469 445.640625 346.808594 446.035156 C 348.511719 446.433594 350.234375 446.617188 351.984375 446.59375 L 352.019531 446.59375 C 367.546875 446.59375 376.164062 434.226562 377.617188 409.835938 C 377.839844 406.179688 381.191406 404.167969 391.839844 399.578125 L 396.730469 397.4375 C 399.046875 396.234375 401.195312 394.785156 403.179688 393.089844 C 405.164062 391.398438 406.933594 389.5 408.484375 387.40625 C 410.035156 385.308594 411.332031 383.0625 412.371094 380.667969 C 413.410156 378.277344 414.167969 375.796875 414.640625 373.234375 C 415.347656 370.886719 415.785156 368.492188 415.953125 366.046875 C 416.125 363.601562 416.023438 361.167969 415.648438 358.746094 C 415.277344 356.324219 414.640625 353.972656 413.742188 351.695312 C 412.84375 349.414062 411.703125 347.261719 410.324219 345.238281 C 409.566406 344.351562 408.753906 343.515625 407.886719 342.730469 C 407.023438 341.949219 406.109375 341.222656 405.152344 340.554688 C 404.195312 339.882812 403.199219 339.277344 402.167969 338.738281 C 401.132812 338.195312 400.066406 337.71875 398.972656 337.3125 C 397.878906 336.902344 396.765625 336.566406 395.628906 336.300781 C 394.492188 336.035156 393.339844 335.839844 392.179688 335.71875 C 391.019531 335.597656 389.855469 335.550781 388.6875 335.574219 C 387.519531 335.601562 386.359375 335.703125 385.203125 335.875 C 379.023438 336.109375 378.785156 335.820312 377.746094 334.101562 C 376.535156 331.636719 375.652344 329.054688 375.105469 326.363281 C 374.820312 324.171875 374.292969 322.035156 373.519531 319.964844 C 372.746094 317.890625 371.75 315.933594 370.523438 314.09375 C 369.296875 312.25 367.878906 310.570312 366.269531 309.054688 C 364.65625 307.539062 362.894531 306.226562 360.980469 305.117188 C 359.210938 304.394531 357.394531 303.804688 355.535156 303.351562 C 353.675781 302.898438 351.796875 302.585938 349.890625 302.414062 C 347.984375 302.242188 346.078125 302.214844 344.167969 302.328125 C 342.257812 302.445312 340.367188 302.699219 338.496094 303.097656 C 336.625 303.496094 334.792969 304.03125 333 304.707031 C 331.210938 305.378906 329.480469 306.179688 327.808594 307.113281 C 326.136719 308.046875 324.546875 309.097656 323.035156 310.269531 C 321.519531 311.4375 320.101562 312.714844 318.78125 314.101562 C 317.460938 315.484375 316.25 316.957031 315.148438 318.523438 C 314.046875 320.085938 313.070312 321.726562 312.214844 323.4375 C 311.359375 325.148438 310.636719 326.914062 310.046875 328.734375 C 309.457031 330.554688 309.007812 332.410156 308.695312 334.296875 C 308.382812 336.183594 308.214844 338.085938 308.1875 339.996094 C 308.160156 341.910156 308.273438 343.816406 308.53125 345.710938 C 308.789062 347.605469 309.1875 349.472656 309.726562 351.308594 C 310.265625 353.144531 310.9375 354.929688 311.742188 356.664062 C 312.695312 358.539062 313.886719 360.242188 315.320312 361.78125 C 316.753906 363.316406 318.371094 364.625 320.171875 365.703125 C 323.648438 367.550781 326.695312 369.941406 329.3125 372.878906 C 330.179688 374.652344 330.875 376.492188 331.402344 378.394531 C 331.929688 380.296875 332.273438 382.230469 332.441406 384.195312 C 332.605469 386.164062 332.589844 388.128906 332.386719 390.089844 C 332.1875 392.054688 331.808594 393.984375 331.25 395.875 C 329.96875 399.242188 329.066406 402.707031 328.535156 406.265625 C 328.007812 409.828125 327.863281 413.40625 328.109375 416.996094 C 328.355469 420.589844 328.980469 424.113281 329.988281 427.570312 C 330.996094 431.027344 332.363281 434.335938 334.089844 437.496094 Z M 330.542969 348.195312 C 324.179688 341.59375 329.199219 330.414062 335.714844 326.105469 C 339.152344 323.785156 342.945312 322.5 347.085938 322.25 C 353.226562 322.25 354.113281 326.265625 355.453125 331.4375 C 356.433594 336.066406 358.074219 340.449219 360.371094 344.585938 C 361.027344 345.648438 361.757812 346.652344 362.5625 347.605469 C 363.367188 348.558594 364.238281 349.445312 365.175781 350.269531 C 366.109375 351.089844 367.105469 351.839844 368.152344 352.515625 C 369.199219 353.1875 370.292969 353.78125 371.429688 354.292969 C 372.566406 354.808594 373.734375 355.234375 374.933594 355.570312 C 376.132812 355.910156 377.351562 356.160156 378.589844 356.316406 C 379.824219 356.472656 381.066406 356.539062 382.3125 356.511719 C 383.558594 356.484375 384.796875 356.367188 386.027344 356.15625 C 391.960938 355.910156 393.054688 356.160156 394.515625 357.964844 C 395.199219 359.644531 395.574219 361.390625 395.640625 363.207031 C 395.707031 365.019531 395.457031 366.789062 394.898438 368.515625 C 394.566406 370.625 393.835938 372.582031 392.703125 374.394531 C 391.570312 376.203125 390.128906 377.71875 388.375 378.9375 L 383.808594 380.933594 C 372.46875 385.820312 358.363281 391.902344 357.355469 408.621094 C 356.691406 419.6875 354.695312 426.292969 352.003906 426.296875 C 348.84375 426.296875 348.574219 419.285156 348.484375 417.210938 C 348.285156 411.902344 349.023438 406.722656 350.691406 401.679688 C 351.425781 398.964844 357.496094 374.675781 344.773438 359.726562 C 342.640625 357.164062 340.230469 354.890625 337.546875 352.910156 C 335.070312 351.550781 332.734375 349.980469 330.542969 348.195312 Z M 330.542969 348.195312 " fill-opacity="1" fill-rule="nonzero"/></g></svg>