<svg version="1.0" xmlns="http://www.w3.org/2000/svg"
 width="512.000000pt" height="512.000000pt" viewBox="0 0 512.000000 512.000000"
 preserveAspectRatio="xMidYMid meet">

<g transform="translate(0.000000,512.000000) scale(0.100000,-0.100000)"
fill="currentColor" stroke="none">
<path d="M2903 4644 c3 -18 1 -24 -9 -20 -9 3 -14 -2 -14 -14 0 -21 -26 -28
-32 -9 -2 7 -17 7 -46 0 -37 -8 -43 -7 -38 6 4 10 1 13 -12 10 -9 -3 -34 -8
-55 -12 -21 -3 -35 -10 -32 -14 2 -5 -2 -14 -10 -21 -20 -17 -19 -40 3 -41 12
0 13 -2 3 -6 -7 -3 -22 -14 -33 -25 -11 -11 -23 -16 -27 -12 -3 5 -17 11 -30
12 -21 3 -23 1 -16 -25 4 -15 8 -37 9 -47 2 -29 25 -31 35 -4 5 12 7 26 4 31
-9 15 7 6 26 -14 14 -15 17 -27 12 -38 -5 -9 -5 -26 0 -39 7 -18 14 -21 34
-16 14 3 25 2 25 -3 0 -13 28 -12 33 1 6 16 83 14 80 -1 -5 -21 19 -14 24 7 7
25 23 26 23 1 0 -22 45 -34 72 -20 12 6 18 6 18 0 0 -5 28 -9 65 -8 52 2 64 5
60 16 -5 12 -3 12 12 -1 10 -8 24 -13 31 -11 7 3 23 -2 35 -10 12 -8 40 -17
62 -20 22 -3 57 -9 77 -15 25 -6 40 -6 47 1 8 8 11 7 11 -4 0 -11 10 -15 40
-13 34 2 40 -1 40 -18 0 -17 4 -19 23 -13 31 10 97 13 102 4 3 -4 42 -10 87
-14 46 -4 88 -11 93 -15 11 -9 69 -21 103 -22 32 0 27 -18 -6 -18 -24 0 -28
-4 -27 -27 0 -19 -5 -27 -14 -25 -9 2 -12 -4 -8 -20 5 -17 1 -27 -12 -35 -10
-7 -22 -9 -26 -5 -4 4 -14 7 -23 8 -55 3 -55 3 -42 19 10 13 9 15 -9 15 -12 0
-32 -5 -43 -11 -15 -8 -22 -8 -28 1 -6 9 -13 9 -29 1 -11 -7 -21 -16 -21 -21
0 -4 -13 -11 -30 -15 -16 -4 -30 -11 -30 -17 0 -6 -6 -8 -14 -5 -8 3 -22 -3
-31 -13 -10 -11 -22 -17 -28 -13 -6 4 -8 0 -4 -10 4 -11 2 -14 -7 -11 -7 3
-16 -2 -19 -10 -4 -9 -13 -12 -28 -9 -17 5 -21 3 -17 -8 9 -24 -27 -61 -54
-54 -28 7 -88 -28 -88 -50 0 -12 -6 -14 -27 -9 -17 5 -30 2 -37 -7 -6 -8 -28
-25 -48 -38 -21 -12 -38 -29 -38 -38 0 -9 -6 -13 -15 -9 -19 7 -19 -3 0 -28 7
-10 19 -15 25 -11 16 10 3 -35 -16 -54 -12 -13 -16 -12 -35 4 -19 18 -21 19
-30 2 -6 -9 -17 -17 -26 -17 -14 0 -14 2 3 14 18 14 18 15 -6 24 -22 9 -26 7
-34 -19 -7 -23 -14 -28 -32 -25 -14 3 -24 0 -24 -7 0 -7 -4 -7 -9 2 -8 12 -12
12 -25 2 -14 -11 -16 -11 -16 3 0 10 -5 14 -10 11 -6 -4 -10 -12 -9 -18 1 -7
1 -19 0 -27 -1 -13 -4 -12 -15 2 -15 20 -56 14 -56 -8 0 -8 -13 -17 -29 -20
-17 -4 -32 -13 -35 -21 -3 -8 -10 -11 -16 -8 -14 9 -13 -8 2 -23 9 -9 7 -13
-5 -18 -9 -3 -17 -14 -17 -24 0 -11 -4 -21 -8 -24 -9 -5 -42 29 -42 44 0 24
-22 16 -65 -25 -26 -24 -51 -43 -54 -42 -11 3 -51 -28 -51 -40 0 -6 -10 -13
-22 -15 -15 -2 -22 -9 -22 -20 1 -10 -2 -15 -7 -12 -11 6 -32 -14 -42 -38 -3
-10 -11 -18 -17 -18 -14 0 -13 -53 2 -68 8 -8 8 -12 1 -12 -6 0 -16 7 -23 15
-16 19 -30 19 -30 0 0 -9 -6 -15 -12 -14 -34 4 -48 -2 -48 -21 0 -11 -7 -20
-15 -20 -8 0 -14 -3 -13 -7 1 -5 -5 -21 -12 -36 -11 -23 -11 -35 -2 -60 11
-27 10 -34 -5 -44 -9 -7 -29 -13 -44 -13 -16 0 -32 -6 -36 -13 -10 -17 -89
-57 -97 -50 -3 4 -6 2 -7 -3 0 -5 -2 -17 -4 -26 -2 -10 0 -20 5 -23 16 -10 -2
-40 -37 -65 -19 -14 -42 -33 -51 -42 -9 -10 -21 -18 -26 -18 -17 0 -35 -35
-36 -68 0 -20 -6 -35 -16 -39 -12 -5 -14 -15 -9 -53 7 -51 -2 -66 -44 -68 -25
-1 -46 -25 -46 -51 0 -8 -6 -16 -13 -19 -6 -2 -12 4 -12 13 0 9 -4 13 -10 10
-5 -3 -10 -15 -10 -26 0 -10 -5 -19 -11 -19 -8 0 -8 -5 1 -15 7 -8 10 -22 6
-30 -3 -8 -1 -15 4 -15 6 0 10 -5 10 -12 0 -9 -3 -9 -12 0 -19 19 -33 14 -36
-14 -1 -15 -6 -32 -11 -38 -5 -6 -12 -26 -16 -44 -4 -18 -16 -38 -26 -45 -11
-7 -22 -28 -25 -48 -4 -23 -13 -38 -27 -45 -16 -7 -21 -17 -20 -37 2 -22 -2
-27 -13 -23 -8 3 -13 2 -10 -3 3 -5 -6 -30 -20 -55 -20 -36 -31 -46 -51 -46
-20 0 -24 4 -18 18 4 11 3 13 -3 7 -14 -15 -25 -68 -12 -60 5 3 10 1 10 -4 0
-6 8 -11 18 -12 10 0 12 -3 5 -6 -7 -2 -13 -11 -13 -19 0 -15 -21 -15 -31 0
-4 5 -17 0 -29 -12 -14 -12 -18 -22 -11 -27 27 -16 -6 -109 -57 -160 -16 -17
-20 -25 -11 -31 9 -5 7 -11 -6 -20 -12 -9 -16 -21 -13 -38 3 -14 0 -27 -6 -30
-7 -3 -7 -7 2 -14 8 -6 11 -18 7 -35 -6 -24 -9 -25 -22 -11 -13 12 -18 13 -24
3 -4 -7 -5 -17 -3 -21 3 -4 -7 -8 -23 -8 -20 0 -31 -7 -39 -25 -9 -18 -9 -25
0 -29 6 -2 4 -5 -6 -5 -11 -1 -15 -7 -11 -21 4 -15 9 -17 23 -10 48 26 53 0 8
-42 -23 -21 -38 -28 -55 -23 -13 3 -23 1 -23 -4 0 -5 -3 -17 -7 -27 -4 -12 -3
-15 5 -10 8 5 10 2 6 -8 -3 -9 -1 -16 5 -16 8 0 8 -5 0 -19 -7 -11 -9 -26 -4
-37 4 -11 7 -30 6 -43 -2 -14 1 -21 8 -17 6 4 11 0 11 -8 0 -9 -3 -15 -8 -14
-11 3 -52 -22 -52 -32 0 -13 -37 -50 -50 -50 -13 0 -13 -6 5 -39 8 -16 11 -31
8 -35 -9 -9 33 -46 43 -38 4 4 4 1 0 -6 -4 -7 -12 -10 -17 -7 -5 4 -16 0 -24
-8 -13 -13 -13 -17 0 -27 22 -18 18 -37 -10 -66 -18 -18 -27 -40 -31 -80 -4
-30 -11 -57 -16 -60 -4 -3 -5 -10 -2 -16 4 -6 1 -14 -5 -18 -7 -4 -14 -23 -17
-44 -3 -28 0 -38 13 -43 42 -16 48 -48 15 -85 -18 -21 -15 -22 27 -7 27 10 30
13 19 27 -11 13 -9 15 14 10 15 -3 30 0 33 6 2 6 2 1 -1 -11 -3 -13 -1 -23 5
-23 5 0 16 -3 24 -6 24 -9 61 78 53 126 -3 22 -2 41 4 45 5 3 10 18 10 33 1
15 7 38 14 51 15 28 10 61 -10 61 -24 0 -15 18 14 26 20 5 23 8 10 11 -21 5
-22 12 -8 47 5 14 16 26 25 26 8 0 15 5 15 10 0 6 -10 10 -22 10 -22 1 -22 1
5 18 16 10 27 25 27 39 0 12 8 26 18 32 15 9 15 13 4 31 -11 18 -11 24 1 33
34 29 63 107 39 107 -4 0 -8 18 -8 40 -1 31 2 40 16 40 9 0 33 17 52 38 28 30
35 45 31 65 -3 16 -1 27 6 27 6 0 11 9 11 20 0 24 -16 26 -28 4 -5 -9 -14 -14
-21 -10 -18 11 -13 26 9 26 11 0 20 5 20 10 0 6 11 10 25 10 30 0 45 26 38 64
-5 24 -3 28 11 23 10 -4 19 -1 22 8 4 8 10 12 15 9 5 -3 9 -1 9 5 0 5 3 16 6
24 6 17 -33 31 -40 13 -2 -6 -5 -1 -5 10 -1 16 4 21 22 19 13 -2 30 2 38 9 20
15 48 76 42 93 -3 7 2 13 12 13 9 0 13 4 10 10 -3 5 -1 18 5 29 7 13 7 22 0
26 -13 8 38 75 57 75 22 0 53 42 47 63 -4 13 1 20 15 24 12 3 21 12 21 19 0 8
7 14 15 14 23 0 18 38 -7 46 -15 4 -25 1 -35 -12 -12 -16 -13 -16 -13 8 0 18
5 25 18 24 10 0 16 6 16 17 -1 9 2 17 7 17 5 0 9 11 9 24 0 23 23 41 40 31 11
-7 20 36 14 63 -5 16 0 24 20 33 19 9 25 17 20 31 -5 17 4 23 34 19 7 -1 12
10 12 29 0 20 5 30 15 30 19 0 55 31 55 47 0 7 4 13 9 13 5 0 12 13 16 30 4
17 13 30 21 30 17 0 17 5 2 30 -10 15 -9 22 6 39 10 11 24 17 32 14 8 -3 22 3
32 14 9 11 25 22 36 26 13 5 17 13 12 32 -5 19 -3 23 8 19 9 -3 22 6 33 23 10
15 23 34 30 41 12 12 17 40 14 68 -1 7 5 14 14 18 8 3 16 1 16 -4 1 -6 2 -14
3 -19 0 -5 4 -12 7 -15 6 -6 8 1 12 46 1 14 6 30 10 34 4 5 5 1 1 -9 -4 -12
-1 -17 10 -17 10 0 13 6 10 15 -4 10 0 15 15 15 12 0 21 5 21 10 0 6 7 10 15
10 9 0 12 6 9 15 -4 8 1 17 10 21 9 3 14 9 11 14 -2 4 8 13 23 19 24 11 25 14
9 22 -10 6 -15 14 -12 20 4 5 1 9 -4 9 -6 0 -11 -5 -11 -11 0 -6 -6 -9 -14 -6
-7 3 -19 0 -25 -6 -8 -8 -11 -7 -11 5 0 9 -5 18 -12 20 -6 2 -8 10 -4 16 10
17 26 15 26 -3 0 -8 5 -15 10 -15 6 0 10 7 10 16 0 11 6 13 19 9 11 -3 22 -1
26 5 4 6 13 9 21 6 7 -3 16 -1 19 5 4 5 11 7 16 4 5 -4 9 -1 9 5 0 6 5 8 10 5
6 -4 8 -11 5 -16 -4 -5 -1 -9 5 -9 7 0 14 9 17 20 3 11 10 20 15 20 5 0 6 -5
2 -12 -4 -7 -3 -8 4 -4 15 9 16 46 2 46 -7 0 -8 6 -1 17 5 10 5 26 0 40 -12
32 8 40 22 9 13 -28 35 -40 45 -25 4 7 10 6 19 -1 10 -9 16 -7 24 8 7 13 17
18 30 15 16 -4 19 -1 14 16 -5 21 -23 29 -23 11 0 -7 -7 -7 -21 0 -11 7 -18
18 -15 25 3 8 1 17 -4 20 -13 8 -13 25 0 25 6 0 15 -10 20 -22 5 -13 9 -17 9
-9 1 10 4 11 15 2 10 -8 16 -9 21 -1 3 5 17 10 31 10 13 0 24 5 24 10 0 6 11
15 25 22 19 8 28 8 40 -2 12 -10 15 -10 15 0 0 9 3 10 14 1 16 -13 42 -6 50
15 3 8 12 14 21 14 8 0 15 3 15 8 0 4 15 14 33 21 17 8 38 21 45 28 7 7 23 13
35 13 12 0 37 9 55 20 28 17 32 23 22 35 -7 8 -19 15 -26 15 -8 0 -14 5 -14
11 0 5 -4 7 -10 4 -5 -3 -10 -1 -10 5 0 7 6 10 14 7 7 -3 24 0 38 7 19 10 26
10 37 -1 7 -8 20 -13 29 -11 13 3 16 13 14 45 -2 30 1 42 13 47 9 3 13 11 9
17 -4 8 -3 9 4 5 7 -4 12 -14 12 -22 0 -9 8 -12 23 -10 12 3 28 5 35 5 7 1 23
12 36 26 20 21 28 24 49 16 25 -10 37 -6 37 12 0 5 -7 7 -15 3 -8 -3 -15 -2
-15 2 1 10 78 44 88 38 5 -3 17 9 27 27 10 17 20 26 22 20 3 -8 13 -8 37 2 19
8 37 11 41 7 5 -4 6 0 2 9 -4 13 1 16 26 17 58 0 58 1 48 20 -9 16 -6 18 18
14 17 -2 34 3 44 12 17 18 47 22 47 6 0 -13 32 0 50 22 15 17 114 48 157 48
12 0 25 5 28 10 4 7 13 6 26 -1 16 -8 29 -7 54 5 38 18 59 21 50 6 -3 -5 -2
-10 4 -10 5 0 12 4 15 9 3 5 17 9 31 9 14 0 25 -4 25 -9 0 -5 -4 -9 -10 -9 -5
0 -10 -4 -10 -10 0 -5 8 -7 18 -3 11 4 10 0 -5 -11 -13 -10 -23 -26 -23 -37 0
-38 -48 -99 -78 -99 -16 0 -20 -7 -20 -41 -1 -28 -7 -47 -21 -61 -12 -10 -21
-26 -21 -35 0 -9 -13 -28 -30 -42 -27 -24 -29 -29 -21 -68 7 -37 6 -40 -9 -31
-14 9 -25 3 -57 -30 -23 -23 -47 -42 -54 -42 -11 0 -11 -2 1 -10 9 -6 19 -5
28 3 12 9 14 8 11 -8 -3 -11 -11 -20 -19 -20 -21 0 -50 -31 -62 -66 -5 -16
-17 -29 -26 -29 -8 0 -12 -3 -9 -6 3 -4 0 -16 -8 -28 -8 -11 -15 -33 -15 -48
0 -18 -5 -28 -15 -28 -8 0 -15 -4 -15 -10 0 -5 7 -10 15 -10 8 0 15 -4 15 -10
0 -5 -7 -10 -14 -10 -8 0 -26 -11 -40 -24 l-26 -23 26 -27 c15 -14 34 -26 43
-26 9 -1 1 -7 -16 -15 -18 -8 -33 -21 -33 -30 0 -8 -4 -15 -8 -15 -20 0 -65
-49 -59 -63 3 -9 3 -17 -1 -19 -4 -2 -17 -15 -30 -29 -21 -24 -31 -56 -36
-114 -1 -24 -44 -75 -63 -75 -7 0 -13 -6 -13 -14 0 -8 -6 -17 -12 -19 -13 -5
17 -11 36 -8 5 1 4 -5 -4 -13 -7 -9 -9 -16 -4 -16 4 0 3 -5 -4 -12 -17 -17
-15 -38 3 -38 18 0 20 -21 3 -38 -9 -9 -9 -15 0 -24 9 -9 17 -7 33 8 22 19 22
19 15 -3 -5 -16 -3 -23 6 -23 28 0 41 18 36 49 -4 24 -2 28 9 20 10 -9 13 -6
15 12 0 13 1 32 0 42 -2 20 14 23 25 3 11 -19 53 -2 53 22 0 10 5 23 12 30 9
9 9 12 -3 12 -11 0 -16 10 -16 30 0 18 6 30 14 30 7 0 13 9 13 20 0 12 5 17
14 14 22 -8 78 76 71 106 -4 17 -3 21 4 11 5 -7 15 -11 22 -9 9 4 5 10 -13 18
-21 10 -31 10 -41 1 -15 -12 -47 -5 -47 10 0 8 31 14 53 10 5 -1 11 8 14 20 4
15 11 19 25 15 17 -4 19 -1 15 20 -3 18 0 24 14 24 12 0 16 5 13 15 -4 8 1 17
9 21 9 3 18 12 21 21 5 11 2 13 -10 9 -12 -5 -15 -2 -10 10 3 8 6 20 6 25 0 5
11 9 25 9 21 0 25 5 25 29 0 23 -5 30 -27 36 -21 5 -24 8 -12 15 7 5 22 7 32
4 9 -3 17 -1 17 5 0 6 -4 11 -10 11 -5 0 -10 5 -10 10 0 6 7 10 15 10 8 0 15
-6 15 -14 0 -9 7 -12 19 -9 13 3 17 11 14 24 -4 13 0 19 11 19 11 0 14 -4 10
-12 -5 -9 -2 -8 9 1 11 8 14 18 8 25 -14 18 -18 72 -6 83 6 5 16 8 23 5 6 -2
12 2 12 9 0 6 10 22 23 34 43 44 49 55 32 55 -8 0 -15 5 -15 10 0 6 9 10 20
10 11 0 20 7 20 16 0 8 -4 12 -10 9 -5 -3 -18 -1 -27 4 -16 9 -16 10 4 11 12
0 25 5 28 11 8 12 55 33 70 31 6 -1 18 12 27 28 9 17 13 30 8 30 -6 0 -1 9 10
20 11 11 20 24 20 28 0 4 13 15 28 24 30 18 36 48 14 70 -18 18 -14 34 11 46
18 9 19 11 5 13 -10 1 -22 2 -28 3 -13 1 -11 16 5 39 11 15 17 17 34 8 12 -7
21 -17 21 -23 0 -6 9 -1 20 12 11 13 20 29 20 37 0 7 8 14 18 15 9 0 22 2 27
3 6 2 16 3 23 4 9 1 11 8 7 21 -3 11 -2 20 3 20 15 0 21 35 9 55 -8 15 -7 17
8 11 12 -4 16 -2 12 8 -3 7 0 19 6 25 8 8 8 11 -1 11 -7 0 -12 5 -12 11 0 20
27 38 49 32 19 -5 23 0 20 23 0 4 5 11 13 15 10 7 9 9 -3 9 -23 0 -31 49 -13
74 8 11 14 27 13 36 0 11 -2 12 -6 2 -4 -10 -9 -7 -20 8 -13 19 -13 24 -2 31
12 7 11 9 -1 9 -8 -1 -24 -7 -34 -15 -21 -16 -40 -10 -29 8 4 7 0 7 -10 -1
-18 -15 -37 -8 -37 14 0 8 -4 14 -10 14 -5 0 -7 7 -4 15 4 8 14 15 24 15 12 0
21 12 28 43 10 37 9 40 -4 23 -8 -11 -14 -14 -14 -8 0 9 -17 12 -54 10 -30 -2
-51 -7 -48 -12 5 -8 -22 -4 -71 10 -16 5 -18 2 -12 -17 7 -21 6 -22 -9 -10
-13 11 -16 11 -17 0 0 -8 -4 -4 -9 9 -8 20 -15 22 -52 17 -28 -3 -36 -2 -24 3
26 11 4 26 -25 17 -11 -4 -26 -1 -34 5 -10 9 -20 7 -39 -5 -25 -17 -26 -16
-26 3 0 11 -7 22 -15 26 -8 3 -15 17 -15 31 0 14 -4 25 -10 25 -5 0 -7 -8 -4
-17 5 -15 4 -15 -6 1 -10 15 -14 16 -21 5 -6 -10 -9 -8 -9 9 0 12 -4 22 -10
22 -5 0 -10 -4 -10 -10 0 -5 -7 -10 -15 -10 -8 0 -15 -5 -15 -11 0 -6 -9 -9
-20 -6 -11 3 -20 1 -20 -5 0 -6 -7 -8 -15 -4 -10 4 -15 -1 -15 -15 0 -17 -4
-20 -22 -15 -13 4 -28 8 -35 10 -15 3 -53 36 -51 45 3 24 -4 41 -17 41 -8 0
-15 -5 -15 -11 0 -6 -6 -9 -13 -6 -15 5 -39 -18 -29 -28 4 -4 -3 -2 -15 4 -17
9 -29 9 -43 1 -28 -15 -43 -4 -30 21 13 23 -2 26 -24 3 -9 -8 -16 -12 -17 -7
0 4 -4 -1 -8 -12 -5 -12 -4 -23 3 -27 6 -5 1 -8 -12 -8 -19 0 -21 4 -16 25 7
28 -10 35 -20 8 -5 -13 -9 -14 -15 -5 -4 7 -12 12 -17 11 -21 -4 -34 2 -34 14
0 8 -12 14 -30 14 -16 0 -30 -4 -30 -9 0 -13 -38 -9 -43 5 -3 6 -6 -6 -7 -28
-1 -22 -4 -31 -7 -20 -8 31 -19 38 -42 26 -18 -10 -22 -9 -30 12 -8 19 -15 23
-35 20 -14 -3 -23 -9 -20 -14 3 -5 0 -9 -5 -9 -6 0 -11 4 -11 9 0 5 -3 17 -7
27 -4 12 -3 15 6 10 24 -15 70 -13 74 3 3 9 8 24 12 34 5 12 2 17 -8 17 -8 0
-17 -5 -19 -11 -2 -5 -11 -7 -21 -3 -11 4 -16 13 -12 24 5 15 -2 19 -37 25
-36 6 -44 4 -56 -13 -13 -20 -14 -19 -50 16 -20 21 -40 36 -44 35 -4 -2 -8 2
-8 7 0 6 -5 10 -11 10 -7 0 -9 -10 -6 -26z m83 -91 c-10 -10 -19 5 -10 18 6
11 8 11 12 0 2 -7 1 -15 -2 -18z m-231 -43 c10 -11 16 -20 13 -20 -3 0 -13 9
-23 20 -10 11 -16 20 -13 20 3 0 13 -9 23 -20z m308 -7 c5 -28 -2 -36 -20 -22
-10 9 -13 8 -13 -5 0 -13 -5 -16 -21 -11 -14 5 -25 2 -30 -6 -8 -11 -12 -11
-23 4 -10 12 -23 16 -49 13 -23 -3 -40 0 -47 10 -10 11 -9 14 8 14 12 0 24 5
28 11 4 7 21 9 40 6 19 -3 34 -2 34 3 0 5 20 8 44 7 38 -2 45 -6 49 -24z
m-258 7 c-3 -5 -11 -10 -16 -10 -6 0 -7 5 -4 10 3 6 11 10 16 10 6 0 7 -4 4
-10z m349 -49 c3 -5 -1 -12 -10 -15 -25 -10 -34 -7 -28 9 7 17 30 20 38 6z
m479 -16 c-3 -9 -8 -14 -10 -11 -3 3 -2 9 2 15 9 16 15 13 8 -4z m-248 -24
c-9 -16 -25 -3 -18 15 4 10 9 12 15 6 6 -6 7 -15 3 -21z m-325 -1 c0 -5 -4
-10 -10 -10 -5 0 -10 5 -10 10 0 6 5 10 10 10 6 0 10 -4 10 -10z m240 -20 c0
-5 -4 -10 -10 -10 -5 0 -10 5 -10 10 0 6 5 10 10 10 6 0 10 -4 10 -10z m515 0
c-3 -5 -11 -10 -16 -10 -6 0 -7 5 -4 10 3 6 11 10 16 10 6 0 7 -4 4 -10z m-5
-66 c0 -9 -8 -14 -17 -13 -35 3 -43 -1 -43 -23 -1 -21 -2 -21 -11 -5 -8 14 -6
21 11 35 28 23 60 26 60 6z m71 -27 c-6 -6 -11 -19 -11 -29 0 -28 -17 -21 -23
9 -7 35 -2 42 24 36 14 -4 17 -9 10 -16z m-301 -7 c0 -5 -4 -10 -10 -10 -5 0
-10 5 -10 10 0 6 5 10 10 10 6 0 10 -4 10 -10z m706 -70 c0 -12 -4 -16 -9 -11
-5 5 -6 14 -3 20 10 15 12 14 12 -9z m106 -42 c6 -15 -1 -38 -10 -38 -4 0 -8
11 -8 25 -2 26 10 34 18 13z m88 -13 c0 -9 -6 -12 -15 -9 -8 4 -12 10 -9 15 8
14 24 10 24 -6z m-50 -5 c0 -5 -2 -10 -4 -10 -3 0 -8 5 -11 10 -3 6 -1 10 4
10 6 0 11 -4 11 -10z m-323 -11 c16 -6 23 -13 17 -17 -6 -4 -14 -14 -17 -22
-4 -10 -6 -8 -6 8 -1 12 -4 21 -8 21 -19 -3 -33 2 -33 11 0 13 12 13 47 -1z
m206 -16 c-7 -2 -19 -2 -25 0 -7 3 -2 5 12 5 14 0 19 -2 13 -5z m-262 -40 c-6
-10 -11 -14 -11 -10 0 13 -40 -13 -40 -26 0 -8 4 -7 10 3 8 12 10 12 16 -3 11
-29 -12 -45 -33 -24 -15 15 -16 20 -4 39 11 17 11 22 0 29 -8 4 -10 11 -6 15
3 4 13 1 22 -6 11 -9 15 -9 15 -1 0 7 5 9 10 6 6 -3 10 -1 10 6 0 10 3 10 11
2 8 -8 8 -16 0 -30z m389 33 c0 -3 -4 -8 -10 -11 -5 -3 -10 -1 -10 4 0 6 5 11
10 11 6 0 10 -2 10 -4z m-255 -15 c3 -5 1 -12 -5 -16 -5 -3 -10 1 -10 9 0 18
6 21 15 7z m46 -18 c8 -10 9 -14 2 -10 -6 4 -14 3 -18 -3 -3 -5 3 -10 14 -10
12 0 21 7 21 15 0 8 6 12 14 9 19 -7 16 -73 -3 -96 -11 -13 -19 -14 -34 -6
-15 7 -22 7 -29 -3 -6 -10 -7 -4 -3 16 4 17 8 42 10 58 4 45 5 47 9 47 2 0 10
-8 17 -17z m139 8 c0 -17 -18 -21 -24 -6 -3 9 0 15 9 15 8 0 15 -4 15 -9z
m-193 -58 c-3 -3 -11 -2 -17 2 -9 6 -9 10 1 16 14 8 27 -7 16 -18z m169 15
c-4 7 -1 12 8 12 21 0 21 -16 0 -24 -25 -10 -34 -7 -34 10 0 14 2 15 17 3 11
-10 14 -10 9 -1z m-496 -8 c0 -5 -5 -10 -11 -10 -5 0 -7 5 -4 10 3 6 8 10 11
10 2 0 4 -4 4 -10z m610 -4 c0 -3 -4 -8 -10 -11 -5 -3 -10 -1 -10 4 0 6 5 11
10 11 6 0 10 -2 10 -4z m-573 -26 c1 -11 -2 -20 -8 -20 -5 0 -9 9 -9 20 0 11
4 20 8 20 4 0 8 -9 9 -20z m273 -11 c0 -6 -4 -7 -10 -4 -5 3 -10 11 -10 16 0
6 5 7 10 4 6 -3 10 -11 10 -16z m-555 -9 c3 -5 -1 -10 -9 -10 -9 0 -16 5 -16
10 0 6 4 10 9 10 6 0 13 -4 16 -10z m63 -19 c22 -9 30 -16 22 -21 -13 -8 -70
19 -70 33 0 5 3 7 8 5 4 -3 22 -10 40 -17z m762 9 c0 -5 -8 -10 -17 -10 -15 0
-16 2 -3 10 19 12 20 12 20 0z m-622 -23 c3 -16 -12 -21 -55 -20 -7 1 -13 -8
-13 -18 0 -10 -4 -19 -10 -19 -12 0 -13 30 -1 49 5 7 13 11 19 7 5 -3 15 1 22
9 16 19 34 15 38 -8z m364 -9 c-7 -7 -12 -8 -12 -2 0 6 3 14 7 17 3 4 9 5 12
2 2 -3 -1 -11 -7 -17z m-592 6 c0 -3 -8 -14 -18 -24 -18 -19 -18 -19 -34 -1
-9 11 -14 21 -12 24 6 6 64 7 64 1z m396 -31 c-10 -10 -19 5 -10 18 6 11 8 11
12 0 2 -7 1 -15 -2 -18z m414 15 c0 -5 -6 -8 -12 -8 -9 0 -8 -4 2 -10 13 -9
13 -10 0 -10 -16 0 -40 18 -40 31 0 4 11 6 25 5 14 0 25 -4 25 -8z m-570 -13
c0 -2 -10 -9 -22 -15 -22 -11 -22 -10 -4 4 21 17 26 19 26 11z m-349 -35 c16
9 19 7 19 -10 0 -14 6 -20 16 -18 9 2 20 -7 25 -19 6 -17 5 -23 -5 -23 -7 0
-19 -7 -27 -16 -7 -8 -21 -13 -31 -11 -10 3 -18 1 -18 -4 0 -6 -9 -1 -21 10
-12 11 -29 17 -38 14 -9 -3 -5 4 9 16 l25 20 -47 -3 c-51 -4 -65 9 -23 20 13
3 29 12 35 19 9 10 18 11 36 4 17 -6 32 -5 45 1z m119 -51 c0 -14 -16 -11 -29
5 -10 12 -8 13 8 9 12 -3 21 -9 21 -14z m800 -4 c0 -2 -7 -5 -15 -9 -9 -3 -15
0 -15 9 0 9 6 12 15 9 8 -4 15 -7 15 -9z m-750 -9 c0 -3 -4 -8 -10 -11 -5 -3
-10 -1 -10 4 0 6 5 11 10 11 6 0 10 -2 10 -4z m659 -25 c8 -5 9 -11 3 -15 -13
-8 -42 3 -42 15 0 11 21 11 39 0z m-723 -45 c1 -17 -2 -23 -12 -19 -15 5 -19
25 -7 36 12 13 18 7 19 -17z m-166 -83 c0 -15 -36 -18 -45 -3 -3 6 2 10 12 10
16 1 16 2 -2 12 -28 15 -28 15 -20 28 8 14 55 -26 55 -47z m-80 -10 c0 -7 -7
-13 -16 -13 -11 0 -14 5 -10 16 3 9 6 21 6 27 0 16 20 -14 20 -30z m908 -25
c17 -17 15 -30 -5 -26 -9 2 -17 11 -19 21 -3 20 7 22 24 5z m-1118 -69 c0 -5
-4 -9 -10 -9 -5 0 -10 7 -10 16 0 8 5 12 10 9 6 -3 10 -10 10 -16z m-86 -34
c-4 -8 -8 -15 -10 -15 -2 0 -4 7 -4 15 0 8 4 15 10 15 5 0 7 -7 4 -15z m76
-11 c0 -8 -5 -12 -10 -9 -6 4 -8 11 -5 16 9 14 15 11 15 -7z m-350 -19 c0 -8
-4 -15 -10 -15 -5 0 -10 7 -10 15 0 8 5 15 10 15 6 0 10 -7 10 -15z m64 -20
c-4 -8 -1 -22 6 -30 17 -20 4 -76 -16 -68 -17 6 -12 29 5 26 6 -2 11 6 11 17
0 11 -6 20 -14 20 -8 0 -16 6 -19 13 -3 9 -8 9 -21 -2 -16 -13 -16 -12 -5 12
13 30 64 41 53 12z m-126 -7 c7 -7 12 -19 12 -27 -1 -14 -3 -13 -14 2 -7 9
-19 17 -25 17 -7 0 -9 5 -6 10 8 13 18 13 33 -2z m228 -33 c-3 -9 -11 -13 -16
-10 -8 5 -7 11 1 21 14 18 24 11 15 -11z m1064 -15 c-8 -5 -17 -7 -19 -4 -3 3
1 9 9 14 8 5 17 7 19 4 3 -3 -1 -9 -9 -14z m-980 -15 c0 -8 -7 -15 -15 -15
-16 0 -20 12 -8 23 11 12 23 8 23 -8z m-40 -16 c0 -5 -4 -9 -10 -9 -5 0 -10 7
-10 16 0 8 5 12 10 9 6 -3 10 -10 10 -16z m-510 1 c0 -5 -4 -10 -9 -10 -6 0
-13 5 -16 10 -3 6 1 10 9 10 9 0 16 -4 16 -10z m460 -15 c7 -8 8 -15 2 -15 -5
0 -15 7 -22 15 -7 8 -8 15 -2 15 5 0 15 -7 22 -15z m-125 -55 c4 -6 -1 -7 -11
-3 -10 3 -15 2 -12 -3 4 -5 -5 -10 -18 -10 -28 -2 -33 12 -6 19 30 8 41 7 47
-3z m-365 -104 c14 -18 13 -19 -2 -13 -10 3 -20 2 -23 -3 -9 -15 -25 -12 -25
5 0 15 -22 20 -70 16 -24 -2 -24 -2 8 25 17 15 32 32 32 39 0 13 53 -33 80
-69z m24 43 c-3 -5 -10 -7 -15 -3 -5 3 -7 10 -3 15 3 5 10 7 15 3 5 -3 7 -10
3 -15z m62 9 c4 -7 3 -8 -4 -4 -7 4 -12 2 -12 -4 0 -6 -4 -8 -10 -5 -5 3 -10
10 -10 16 0 13 27 11 36 -3z m1325 -31 c-15 -15 -24 -2 -16 24 7 20 8 21 17 5
7 -12 7 -21 -1 -29z m-1378 -8 c-8 -8 -13 -7 -18 2 -5 8 -4 10 3 5 7 -4 12 -2
12 5 0 7 3 9 7 6 4 -4 2 -12 -4 -18z m101 -78 c-8 -8 -44 32 -37 42 3 5 14 -1
24 -14 10 -13 16 -26 13 -28z m-404 -82 c0 -6 -4 -7 -10 -4 -5 3 -10 11 -10
16 0 6 5 7 10 4 6 -3 10 -11 10 -16z m-80 -212 c0 -7 -9 -18 -20 -24 -26 -17
-38 3 -14 22 24 18 34 19 34 2z m1580 -22 c-14 -16 -40 -20 -40 -6 0 10 17 19
39 20 11 1 11 -2 1 -14z m-1750 -178 c0 -4 -4 -5 -10 -2 -5 3 -10 1 -10 -4 0
-6 -4 -11 -10 -11 -11 0 -14 43 -3 54 8 7 33 -21 33 -37z m70 15 c0 -4 -9 -8
-20 -9 -11 -1 -18 2 -15 8 7 11 35 12 35 1z m1520 -82 c0 -5 -4 -10 -10 -10
-5 0 -10 5 -10 10 0 6 5 10 10 10 6 0 10 -4 10 -10z m130 -50 c0 -5 -2 -10 -4
-10 -3 0 -8 5 -11 10 -3 6 -1 10 4 10 6 0 11 -4 11 -10z m-110 -40 c0 -5 -4
-10 -10 -10 -5 0 -10 5 -10 10 0 6 5 10 10 10 6 0 10 -4 10 -10z m-2438 -1302
c-7 -7 -12 -8 -12 -2 0 14 12 26 19 19 2 -3 -1 -11 -7 -17z m98 -188 c0 -5 -5
-10 -11 -10 -5 0 -7 5 -4 10 3 6 8 10 11 10 2 0 4 -4 4 -10z m-205 -460 c-3
-5 -11 -10 -16 -10 -6 0 -7 5 -4 10 3 6 11 10 16 10 6 0 7 -4 4 -10z m25 -30
c0 -5 -2 -10 -4 -10 -3 0 -8 5 -11 10 -3 6 -1 10 4 10 6 0 11 -4 11 -10z"/>
<path d="M3432 3865 c10 -10 49 -14 43 -4 -4 5 -16 9 -27 9 -12 0 -19 -2 -16
-5z"/>
<path d="M2676 4641 c-3 -5 1 -11 9 -15 8 -3 15 -1 15 4 0 13 -18 22 -24 11z"/>
<path d="M3230 4643 c-22 -9 -31 -26 -17 -35 19 -12 24 -9 29 17 3 14 5 25 4
24 0 0 -8 -3 -16 -6z"/>
<path d="M3288 4603 c5 -21 7 -23 10 -9 2 10 0 22 -6 28 -6 6 -7 0 -4 -19z"/>
<path d="M3257 4591 c3 -12 9 -21 14 -21 14 0 11 16 -5 29 -12 10 -13 8 -9 -8z"/>
<path d="M3310 4583 c0 -35 17 -53 31 -32 11 17 8 41 -5 39 -5 -1 -13 4 -17
12 -6 9 -9 2 -9 -19z"/>
<path d="M3376 4604 c6 -3 9 -17 7 -32 -4 -25 -3 -26 11 -9 17 22 11 47 -13
46 -9 0 -11 -3 -5 -5z"/>
<path d="M3411 4546 c-13 -23 -9 -46 7 -46 9 0 62 46 62 53 0 4 -6 4 -14 1 -8
-3 -17 -1 -21 5 -10 17 -21 13 -34 -13z"/>
<path d="M3520 4555 c7 -8 17 -15 22 -15 6 0 5 7 -2 15 -7 8 -17 15 -22 15 -6
0 -5 -7 2 -15z"/>
<path d="M2599 4524 c-12 -14 -11 -16 5 -13 11 2 21 10 24 17 5 17 -13 15 -29
-4z"/>
<path d="M3361 4494 c0 -11 3 -14 6 -6 3 7 2 16 -1 19 -3 4 -6 -2 -5 -13z"/>
<path d="M2535 4410 c-3 -5 -1 -10 4 -10 6 0 11 5 11 10 0 6 -2 10 -4 10 -3 0
-8 -4 -11 -10z"/>
<path d="M4135 4380 c-3 -5 -1 -10 4 -10 6 0 11 5 11 10 0 6 -2 10 -4 10 -3 0
-8 -4 -11 -10z"/>
<path d="M2785 4340 c3 -5 8 -10 11 -10 2 0 4 5 4 10 0 6 -5 10 -11 10 -5 0
-7 -4 -4 -10z"/>
<path d="M4525 4250 c3 -5 8 -10 11 -10 2 0 4 5 4 10 0 6 -5 10 -11 10 -5 0
-7 -4 -4 -10z"/>
<path d="M4510 4130 c-13 -8 -12 -10 3 -10 9 0 17 5 17 10 0 12 -1 12 -20 0z"/>
<path d="M4297 3744 c-9 -9 4 -35 14 -28 5 3 9 12 9 20 0 14 -12 19 -23 8z"/>
<path d="M4255 3700 c-8 -13 5 -13 25 0 13 8 13 10 -2 10 -9 0 -20 -4 -23 -10z"/>
<path d="M3022 3680 c9 -14 14 -16 20 -7 13 20 9 27 -12 27 -18 0 -19 -3 -8
-20z"/>
<path d="M3136 3541 c-10 -15 19 -49 31 -37 4 4 3 10 -3 14 -6 4 -13 14 -16
22 -3 11 -6 11 -12 1z"/>
<path d="M3195 3510 c3 -5 8 -10 11 -10 2 0 4 5 4 10 0 6 -5 10 -11 10 -5 0
-7 -4 -4 -10z"/>
<path d="M3981 3224 c0 -11 3 -14 6 -6 3 7 2 16 -1 19 -3 4 -6 -2 -5 -13z"/>
<path d="M2635 3219 c-12 -19 3 -22 27 -5 l22 16 -21 0 c-12 0 -25 -5 -28 -11z"/>
<path d="M3890 3080 c0 -5 5 -10 11 -10 5 0 7 5 4 10 -3 6 -8 10 -11 10 -2 0
-4 -4 -4 -10z"/>
<path d="M3399 2498 c7 -10 11 -24 8 -33 -4 -8 -2 -17 3 -20 18 -11 10 42 -7
56 -16 13 -17 12 -4 -3z"/>
<path d="M1610 2425 c7 -9 15 -13 17 -11 7 7 -7 26 -19 26 -6 0 -6 -6 2 -15z"/>
<path d="M1540 2310 c0 -5 5 -10 10 -10 6 0 10 5 10 10 0 6 -4 10 -10 10 -5 0
-10 -4 -10 -10z"/>
<path d="M1705 2150 c-3 -5 -4 -10 -1 -10 2 0 11 -3 20 -6 11 -4 16 -1 16 10
0 18 -25 22 -35 6z"/>
<path d="M1408 2071 c-23 -22 -23 -26 2 -28 11 -1 18 2 15 7 -3 4 1 10 7 13 9
3 10 8 3 15 -7 6 -16 4 -27 -7z"/>
<path d="M1035 470 c-8 -13 5 -13 25 0 13 8 13 10 -2 10 -9 0 -20 -4 -23 -10z"/>
<path d="M1007 433 c3 -7 9 -10 15 -7 5 3 12 -3 15 -15 6 -23 19 -29 20 -8 0
6 4 19 7 28 5 12 -1 15 -28 15 -24 0 -32 -4 -29 -13z"/>
</g>
</svg>
