<svg version="1.0" xmlns="http://www.w3.org/2000/svg" width="512.000000pt" height="512.000000pt" viewBox="0 0 512.000000 512.000000" preserveAspectRatio="xMidYMid meet">

<g transform="translate(0.000000,512.000000) scale(0.100000,-0.100000)"
fill="currentColor" stroke="none">
<path d="M578 4193 c-19 -5 -24 -18 -9 -27 15 -10 0 -57 -18 -54 -26 5 -27
-39 -1 -47 28 -9 22 -40 -8 -39 -12 0 -22 -5 -22 -13 0 -7 5 -13 11 -13 8 0 8
-4 1 -13 -9 -10 -6 -17 8 -29 10 -9 21 -14 24 -11 3 4 6 -1 6 -9 0 -9 7 -18
15 -22 8 -3 12 -12 9 -21 -4 -10 0 -15 10 -15 9 0 16 -5 16 -11 0 -5 -5 -7
-10 -4 -6 3 -17 0 -25 -8 -13 -13 -13 -16 1 -21 9 -4 14 -12 10 -21 -3 -8 -9
-22 -12 -30 -5 -11 -1 -14 12 -9 18 5 18 5 1 -6 -25 -16 -12 -30 29 -30 19 0
34 -5 34 -11 0 -6 7 -9 15 -5 11 4 18 -6 26 -39 11 -45 22 -55 35 -33 5 7 10
3 16 -12 6 -15 5 -27 -3 -34 -8 -8 -13 -7 -16 2 -3 6 -9 10 -14 6 -5 -3 -17 2
-26 11 -12 13 -18 14 -24 4 -4 -7 -1 -18 6 -25 7 -8 11 -23 8 -34 -3 -12 0
-20 6 -20 7 0 9 -4 6 -10 -3 -5 0 -10 8 -10 16 0 19 -29 4 -47 -5 -8 -6 -13 0
-13 5 0 15 6 22 13 10 10 12 9 9 -3 -2 -9 6 -16 20 -18 28 -4 29 -23 1 -19
-14 1 -23 -4 -24 -15 -2 -10 2 -18 9 -18 6 0 19 -9 29 -20 9 -11 24 -20 32
-20 16 0 20 -12 8 -24 -4 -4 -9 -18 -10 -31 -3 -19 1 -25 16 -25 14 0 19 -5
15 -15 -4 -9 0 -15 10 -15 9 0 16 -4 16 -10 0 -5 7 -10 15 -10 8 0 14 -6 12
-12 -1 -7 6 -12 16 -10 9 2 17 -2 17 -9 0 -6 6 -9 14 -6 7 3 18 1 24 -5 6 -6
21 -11 34 -12 20 -1 23 -5 20 -40 -3 -33 -1 -38 13 -32 13 5 15 2 10 -15 -5
-15 -4 -19 4 -15 6 4 11 1 11 -6 1 -8 7 -5 16 7 14 19 16 19 25 3 6 -10 16
-18 24 -18 7 0 17 -10 21 -22 3 -12 17 -32 30 -45 13 -13 24 -28 24 -33 0 -6
20 -10 45 -10 25 0 45 -5 45 -11 0 -6 -9 -8 -20 -4 -27 8 -25 3 8 -33 22 -23
32 -28 45 -20 11 6 17 5 17 -1 0 -6 8 -8 18 -5 14 5 15 4 2 -5 -13 -10 -11
-14 10 -31 14 -11 33 -18 43 -16 9 2 17 1 17 -3 0 -12 68 -12 75 -1 3 6 18 10
31 10 19 0 29 -8 37 -30 6 -17 16 -29 22 -26 5 2 10 -9 10 -25 0 -16 -3 -29
-7 -29 -5 0 -28 -55 -28 -68 0 -4 5 -1 12 6 26 26 39 -1 17 -36 -9 -14 -6 -25
13 -53 19 -29 23 -46 21 -93 -2 -58 -2 -58 24 -51 21 5 24 4 16 -7 -6 -7 -14
-28 -18 -46 -4 -20 -13 -32 -23 -32 -12 0 -13 -3 -5 -11 6 -6 9 -18 6 -25 -3
-8 0 -14 6 -14 6 0 11 -3 11 -8 0 -4 -21 -7 -47 -6 -47 2 -47 2 -25 -16 12
-10 22 -22 22 -28 0 -5 9 -19 20 -32 22 -25 26 -40 10 -40 -5 0 -10 -7 -10
-16 0 -12 7 -15 25 -12 14 3 25 1 25 -3 0 -5 -11 -9 -25 -9 -23 0 -24 -2 -15
-20 6 -11 17 -20 25 -20 7 0 16 -13 20 -30 6 -27 35 -44 35 -20 0 6 7 10 15
10 19 0 19 -19 0 -26 -8 -4 -15 -16 -15 -28 1 -18 2 -19 13 -5 7 9 19 14 27
11 8 -3 12 -1 8 3 -4 5 -3 15 4 22 9 11 9 17 -3 24 -10 7 -8 9 11 7 14 -2 29
-12 35 -25 5 -13 13 -23 17 -23 5 0 8 -4 8 -9 0 -17 -33 -5 -41 15 -7 18 -10
15 -13 -16 -1 -10 -9 -14 -23 -12 -17 2 -23 -2 -23 -17 0 -14 5 -19 15 -15 12
5 14 0 9 -25 -4 -18 -3 -31 2 -30 31 5 45 -2 39 -21 -5 -14 -2 -20 9 -20 9 0
16 5 16 10 0 16 27 12 34 -5 3 -9 0 -15 -9 -15 -7 0 -17 -5 -21 -11 -4 -8 0
-9 15 -4 23 7 30 -12 10 -32 -7 -7 -1 -12 20 -16 43 -9 46 -8 43 9 -2 9 10 28
26 44 17 16 29 30 27 32 -1 2 8 14 20 27 12 12 25 19 28 14 4 -6 -3 -19 -13
-31 -22 -24 -37 -92 -21 -92 6 0 11 -8 11 -19 0 -15 7 -18 43 -16 23 1 36 0
30 -2 -7 -3 -13 -17 -13 -32 0 -15 -4 -31 -9 -37 -6 -5 -6 -24 -1 -44 4 -19 8
-32 9 -28 1 5 12 -2 26 -14 19 -16 22 -24 13 -35 -6 -7 -8 -17 -4 -21 4 -4 14
2 22 13 8 11 23 19 33 17 10 -2 21 4 24 13 9 21 39 19 35 -3 -1 -9 1 -23 5
-29 5 -8 4 -13 -2 -13 -6 0 -11 -5 -11 -11 0 -5 4 -7 10 -4 5 3 10 1 10 -4 0
-6 3 -10 8 -9 15 5 73 -22 68 -31 -7 -10 40 -24 54 -16 6 4 10 1 10 -5 0 -6
10 -14 23 -19 16 -6 24 -4 29 8 13 30 8 39 -27 51 -32 11 -48 30 -25 30 6 0
10 -5 10 -11 0 -5 5 -7 11 -3 6 3 21 2 32 -4 12 -6 31 -14 42 -18 19 -7 19 -8
-2 -11 -29 -5 -29 -14 0 -39 14 -12 33 -18 54 -16 27 3 35 -1 45 -22 15 -34
58 -37 58 -3 1 20 2 21 14 5 16 -22 56 -24 56 -3 0 18 1 18 33 2 16 -8 23 -17
17 -23 -4 -5 -6 -21 -3 -36 4 -20 12 -28 38 -32 18 -4 40 -4 49 0 9 3 16 2 16
-4 0 -6 14 -15 31 -21 40 -14 62 -13 29 1 l-25 10 35 13 c29 10 36 10 43 -1
12 -20 39 -17 36 4 -3 31 1 33 31 17 35 -18 38 -31 10 -40 -29 -9 -25 -22 10
-30 17 -4 28 -11 24 -16 -3 -5 4 -9 14 -9 14 0 22 10 27 33 7 26 9 28 12 10 2
-12 11 -24 18 -27 20 -7 31 14 14 25 -11 8 -10 12 5 24 25 19 45 19 52 1 3 -8
18 -14 33 -14 16 1 34 -3 42 -7 7 -5 30 -8 51 -6 22 1 38 -2 38 -8 0 -25 19
-9 25 21 9 40 17 46 55 40 26 -4 28 -6 17 -23 -10 -16 -9 -21 3 -29 11 -7 16
-5 18 5 5 21 23 19 28 -3 8 -27 45 -40 74 -25 30 15 67 17 75 3 3 -5 15 -10
26 -10 11 0 18 -4 15 -9 -3 -5 1 -12 9 -15 9 -3 18 1 21 9 3 7 12 11 21 8 9
-4 13 -1 12 8 -4 17 18 59 31 59 5 0 7 -9 5 -20 -3 -15 3 -21 31 -26 18 -3 40
-4 48 -1 8 3 17 1 19 -6 3 -8 11 -3 23 11 17 20 22 22 51 11 32 -11 35 -14 37
-53 1 -11 7 -21 14 -24 7 -2 11 2 10 10 -5 20 34 10 54 -15 16 -21 16 -23 -7
-44 -13 -13 -31 -23 -38 -23 -9 0 -17 -14 -21 -35 -4 -19 -12 -35 -17 -35 -6
0 -17 -7 -26 -15 -8 -9 -23 -13 -33 -10 -13 4 -19 -1 -23 -17 -4 -13 -20 -29
-37 -36 -16 -8 -30 -18 -30 -24 0 -6 -8 -18 -18 -27 -10 -9 -22 -25 -26 -36
-5 -13 -9 -16 -14 -8 -5 8 -13 9 -22 3 -13 -8 -13 -13 -2 -31 12 -19 11 -21
-15 -19 -41 3 -50 1 -35 -9 11 -7 10 -13 -8 -29 -14 -13 -18 -22 -11 -27 6 -3
11 -20 11 -38 0 -24 -3 -28 -12 -19 -17 17 -28 15 -28 -4 0 -9 -6 -14 -12 -11
-18 6 -50 -12 -42 -24 3 -6 -3 -13 -15 -16 -21 -5 -30 -43 -11 -43 6 0 10 -7
10 -15 0 -9 -6 -12 -17 -8 -10 4 -14 2 -10 -4 9 -14 -19 -43 -39 -43 -15 0
-19 -26 -5 -34 5 -4 7 -20 5 -36 -3 -17 -1 -31 5 -31 6 -1 16 -3 21 -4 6 -1
13 -3 18 -4 4 -1 -2 -8 -12 -16 -19 -14 -18 -15 13 -21 18 -4 35 -13 38 -20 3
-8 19 -13 39 -12 25 1 33 5 30 15 -4 8 -1 11 5 7 7 -4 10 1 7 12 -3 20 -48 33
-48 15 0 -6 -14 -11 -30 -11 -26 0 -29 2 -18 14 7 8 16 12 19 10 4 -2 12 3 19
11 11 13 15 13 33 0 29 -20 37 -19 37 6 0 19 1 19 17 3 16 -15 17 -15 24 2 3
11 1 25 -5 33 -7 9 -1 8 17 -3 16 -11 27 -14 27 -7 0 6 -4 11 -10 11 -5 0 -10
5 -10 10 0 6 11 10 23 10 21 0 24 4 22 36 -2 24 -11 44 -29 61 -33 31 -29 38
10 18 29 -15 29 -14 40 18 13 38 43 49 51 18 3 -12 13 -21 23 -21 13 0 16 -6
13 -24 -3 -13 0 -33 6 -44 13 -24 -5 -44 -19 -22 -4 7 -13 11 -21 8 -8 -3 -5
-11 11 -26 25 -24 40 -28 40 -12 0 5 6 7 14 4 9 -3 15 4 18 24 3 22 1 29 -9
25 -9 -4 -11 0 -6 13 9 25 32 60 38 57 3 -2 14 -3 25 -3 17 0 20 7 20 49 0 28
-5 53 -10 56 -15 9 -2 25 21 25 15 0 18 -5 13 -24 -4 -16 -1 -25 10 -29 9 -4
16 -2 16 4 0 6 5 7 10 4 6 -3 18 1 27 11 16 16 16 16 -4 10 -18 -6 -20 -3 -16
14 3 13 14 20 28 20 26 0 42 29 23 42 -11 6 -10 8 0 8 8 0 12 9 10 23 -2 14
-10 22 -23 22 -13 0 -20 7 -20 20 0 11 5 19 12 18 6 -2 29 15 49 37 42 44 84
54 84 20 0 -23 10 -25 29 -7 11 10 13 9 7 0 -15 -26 10 -12 29 16 10 16 23 29
28 28 13 -3 16 53 5 76 -6 12 -5 17 7 17 9 0 15 -9 15 -24 0 -32 10 -57 20
-51 5 3 6 14 3 25 -4 15 0 20 16 20 11 0 21 3 21 8 0 4 4 13 9 21 8 12 12 12
25 2 14 -12 16 -10 16 8 0 13 -9 25 -24 30 -13 5 -26 19 -29 31 -5 20 -4 21
18 6 15 -10 26 -12 30 -6 9 14 -4 70 -16 70 -6 0 -7 5 -4 10 5 8 11 8 20 0 10
-8 14 -7 17 2 5 15 -13 68 -24 68 -4 0 -8 7 -8 16 0 31 23 7 44 -46 16 -40 28
-56 43 -58 25 -4 76 26 68 39 -3 5 1 21 9 37 13 25 13 32 2 47 -7 10 -11 27
-8 37 3 12 -1 18 -12 18 -9 0 -16 -4 -16 -9 0 -5 -9 -7 -20 -4 -12 3 -20 0
-20 -8 0 -7 -3 -9 -7 -6 -12 13 30 47 59 47 30 0 31 8 8 82 -7 21 -5 28 8 33
14 5 11 9 -13 19 -19 8 -25 15 -17 20 7 4 12 18 12 32 0 13 5 24 10 24 6 0 10
4 10 10 0 5 -3 9 -7 9 -25 -4 -32 3 -28 29 2 20 -3 32 -16 40 -17 11 -23 9
-43 -13 -29 -31 -36 -31 -36 -3 0 20 -1 21 -20 3 -12 -11 -20 -13 -20 -6 0 7
13 20 30 29 56 32 50 74 -11 70 -26 -1 -45 4 -59 17 -13 11 -24 15 -28 10 -12
-17 -62 -17 -68 0 -3 8 -15 15 -25 15 -10 0 -19 4 -19 9 0 5 -21 12 -46 16
-34 5 -44 10 -40 21 4 9 -2 14 -16 14 -12 0 -30 8 -41 18 -15 12 -21 14 -24 5
-3 -7 -10 -13 -16 -13 -8 0 -7 4 1 12 7 7 12 15 12 19 0 7 -47 19 -104 26 -21
2 -45 11 -53 19 -8 8 -21 14 -28 14 -9 0 -12 6 -8 16 4 12 1 15 -13 12 -11 -2
-18 -11 -18 -21 1 -9 -4 -17 -12 -17 -8 0 -14 -4 -14 -10 0 -5 9 -10 20 -10
17 0 19 -4 14 -27 -10 -42 -18 -46 -44 -18 -26 28 -17 34 12 8 25 -22 23 -2
-4 32 -11 15 -22 43 -23 62 -2 22 -10 40 -24 49 -26 19 -61 9 -61 -17 0 -23
-17 -25 -22 -2 -3 15 -5 15 -18 1 -8 -8 -21 -13 -28 -10 -7 2 -19 -2 -27 -8
-12 -10 -13 -16 -3 -27 9 -11 8 -13 -3 -11 -8 2 -14 -5 -14 -14 0 -20 -15 -37
-15 -17 -1 10 -3 9 -11 -3 -12 -21 -41 -24 -33 -4 7 18 -27 31 -37 14 -5 -8
-1 -15 11 -20 10 -4 21 -16 25 -27 3 -12 11 -19 16 -15 5 3 7 9 5 13 -3 4 16
8 42 10 25 1 48 4 50 6 2 2 5 18 7 35 2 29 20 59 29 49 2 -2 7 -16 11 -32 6
-23 4 -27 -14 -27 -14 0 -21 -6 -21 -18 0 -10 -5 -23 -12 -30 -9 -9 -7 -12 13
-13 13 -1 31 -2 41 -3 25 -2 34 -16 10 -16 -13 0 -22 -6 -22 -15 0 -21 17 -19
47 5 34 27 45 25 37 -5 -8 -30 6 -32 32 -4 17 18 19 19 30 4 8 -10 14 -12 19
-6 14 23 33 10 40 -28 5 -30 10 -38 23 -34 10 2 22 -5 30 -17 10 -17 10 -20
-2 -20 -8 0 -18 5 -21 10 -11 17 -35 -9 -35 -37 0 -27 24 -41 44 -24 7 6 22 8
31 4 13 -4 16 -3 11 5 -4 7 -3 12 2 12 18 0 21 -13 7 -27 -21 -20 -19 -33 6
-33 11 0 18 3 15 8 -2 4 2 15 9 26 13 17 14 17 26 -3 10 -15 16 -17 26 -9 10
8 13 6 13 -5 0 -21 36 -40 66 -34 13 2 21 0 18 -4 -10 -17 17 -9 56 16 l40 25
6 -25 c3 -14 11 -25 18 -25 6 0 4 -5 -4 -10 -11 -7 -12 -12 -3 -21 6 -6 9 -18
6 -25 -3 -8 -2 -22 2 -31 12 -27 13 -53 2 -53 -5 0 -7 -9 -4 -20 3 -11 1 -23
-4 -26 -5 -3 -9 -14 -9 -25 0 -10 -5 -19 -12 -19 -6 0 -9 -3 -5 -6 24 -24 -91
-57 -118 -34 -12 10 -15 9 -16 -6 0 -16 -2 -16 -11 4 -6 12 -16 23 -22 24 -6
0 -16 2 -23 2 -6 1 -21 10 -32 20 -17 15 -23 16 -36 6 -8 -7 -12 -17 -8 -24 3
-6 3 -8 -2 -4 -4 4 -13 3 -20 -2 -8 -7 -25 -4 -51 9 -24 12 -43 16 -49 10 -13
-13 -72 -11 -81 2 -4 7 -21 9 -43 5 -54 -9 -85 -9 -206 2 -60 5 -113 8 -117 6
-15 -9 -107 -13 -112 -5 -8 12 -124 12 -132 -1 -3 -5 -13 0 -20 11 -12 17 -18
19 -34 9 -14 -9 -25 -9 -45 0 -14 7 -36 12 -48 12 -13 0 -32 7 -44 15 -12 8
-28 12 -36 9 -9 -3 -25 0 -37 6 -12 7 -45 13 -74 14 -28 2 -45 1 -38 -1 21 -8
13 -23 -13 -23 -16 0 -25 6 -25 15 0 8 -1 15 -3 15 -1 0 -27 9 -57 20 -42 15
-56 17 -63 7 -7 -9 -10 -9 -14 1 -2 6 -10 12 -17 12 -7 0 -25 11 -40 25 -15
14 -32 25 -38 25 -5 0 -19 11 -29 25 -12 14 -26 22 -34 18 -9 -3 -18 4 -24 18
-5 13 -10 19 -10 12 -1 -19 -38 -3 -51 23 -7 13 -21 26 -31 29 -9 3 -19 15
-22 25 -3 13 -17 23 -37 26 -20 4 -27 10 -19 14 13 9 -18 30 -44 30 -7 0 -20
12 -28 26 -7 15 -31 44 -51 66 -20 22 -40 48 -43 59 -7 21 -20 25 -30 9 -3 -5
1 -10 10 -10 9 0 13 -5 10 -11 -5 -7 -14 -4 -26 7 -15 13 -16 20 -7 31 9 11 9
16 -2 23 -7 4 -10 15 -7 23 3 8 -1 24 -8 35 -8 10 -11 22 -8 26 3 3 1 6 -6 6
-7 0 -10 4 -7 9 7 11 -18 33 -27 24 -6 -6 -10 33 -5 40 2 1 -5 13 -15 27 -9
13 -17 34 -17 45 0 15 -2 17 -9 6 -7 -11 -13 -9 -30 8 -24 24 -29 40 -6 21 9
-7 18 -10 21 -7 9 9 -5 27 -22 27 -8 0 -15 6 -15 13 -2 13 -5 79 -7 145 -2 34
-6 44 -24 51 l-21 8 22 15 c18 13 20 19 12 42 -9 22 -7 28 14 42 14 9 25 26
25 38 0 16 2 18 9 7 10 -16 51 -23 51 -9 0 5 5 6 10 3 6 -3 10 -2 10 4 0 6 7
8 15 5 9 -4 15 0 15 9 0 13 6 13 35 4 19 -6 35 -16 35 -24 0 -7 4 -13 9 -13 5
0 12 -8 14 -17 4 -14 5 -13 6 4 1 29 16 37 32 17 12 -14 16 -13 36 12 l22 28
24 -22 c29 -28 40 -28 32 -1 -5 15 -4 19 4 15 6 -4 14 0 17 8 3 9 11 13 18 9
22 -14 37 -11 46 10 5 13 9 16 10 7 0 -13 1 -13 10 0 8 12 13 13 30 2 12 -7
20 -8 21 -2 1 5 2 14 3 19 0 5 5 13 10 18 5 5 6 3 2 -4 -5 -9 0 -13 15 -13 16
0 20 5 16 20 -3 11 -1 20 5 20 5 0 2 7 -7 16 -9 9 -14 19 -11 21 9 10 106 11
112 2 9 -16 25 -10 23 9 -5 52 17 75 29 30 l6 -23 6 24 c6 28 30 41 30 17 0
-25 36 -19 48 9 7 15 20 25 32 25 11 0 20 5 20 10 0 6 -4 10 -9 10 -5 0 -12 7
-15 16 -3 8 -2 12 3 9 21 -12 23 19 3 36 -19 14 -19 18 -6 23 20 8 34 -1 34
-20 0 -8 7 -14 15 -14 18 0 19 12 3 28 -7 7 -8 12 -2 12 5 0 18 -10 29 -22 12
-15 20 -18 23 -10 2 7 13 12 25 12 18 0 19 2 7 10 -12 8 -11 10 8 10 12 0 22
4 22 8 0 5 15 7 32 6 18 -1 36 0 40 2 9 6 -11 64 -23 64 -5 0 -9 4 -9 10 0 5
6 7 14 4 8 -3 17 -1 21 5 3 6 1 11 -5 11 -6 0 -8 5 -5 10 3 6 1 10 -4 10 -6 0
-11 7 -11 15 0 22 21 18 27 -5 3 -11 12 -20 20 -20 8 0 12 4 9 9 -3 4 4 19 16
32 14 16 22 20 25 12 3 -7 11 -13 19 -13 9 0 12 5 9 10 -3 6 4 10 16 10 26 0
15 16 -16 23 -11 2 -8 4 7 2 28 -1 46 20 25 29 -9 3 -8 8 3 18 9 7 14 21 12
32 -5 25 14 44 30 28 9 -9 9 -12 -2 -12 -10 0 -11 -3 -4 -10 13 -13 44 -2 44
14 0 7 -11 19 -24 26 -26 13 -43 40 -26 40 6 0 10 5 10 11 0 6 -7 8 -17 5 -10
-4 -14 -4 -10 0 3 4 -3 16 -16 26 -22 20 -22 20 -2 35 19 15 19 15 -7 9 -22
-5 -28 -3 -28 10 0 10 6 14 14 11 7 -3 23 1 35 9 12 9 21 11 21 5 0 -6 5 -11
11 -11 5 0 7 5 4 10 -3 6 1 10 9 10 9 0 16 -7 16 -15 0 -8 5 -15 10 -15 6 0
10 -11 10 -25 0 -29 21 -33 44 -9 20 20 20 30 0 38 -12 4 -15 2 -10 -9 3 -8 0
-15 -5 -15 -7 0 -9 10 -5 28 8 32 9 62 2 69 -11 12 -87 15 -100 4 -7 -6 -21
-8 -31 -5 -17 7 -17 8 1 21 13 10 14 13 3 13 -12 0 -12 2 0 9 12 8 12 13 3 24
-10 12 -4 16 40 22 29 5 45 10 36 12 -11 3 -18 14 -18 29 0 17 -6 24 -19 24
-11 0 -23 5 -26 10 -4 6 -14 1 -26 -12 -14 -17 -17 -18 -13 -5 3 9 1 17 -5 17
-6 0 -11 -4 -11 -10 0 -5 -4 -10 -10 -10 -5 0 -10 9 -10 20 0 26 -12 26 -28 0
-11 -18 -10 -21 7 -28 20 -7 21 -9 21 -37 0 -8 8 -15 19 -15 13 0 20 -9 23
-29 4 -30 -11 -61 -31 -61 -6 0 -11 -7 -11 -15 0 -26 -15 -16 -16 10 -1 14 2
25 7 25 12 0 7 53 -6 62 -5 4 -12 2 -16 -4 -4 -7 -11 -2 -19 11 -10 19 -9 25
6 35 12 9 14 15 6 20 -17 11 -14 37 6 53 16 14 16 14 0 9 -12 -3 -18 0 -18 9
0 8 -5 15 -11 15 -5 0 -7 5 -4 10 3 6 -3 10 -14 10 -16 0 -21 6 -21 25 0 14
-4 25 -9 25 -4 0 -20 11 -36 25 -21 20 -30 23 -41 14 -24 -20 -17 18 8 41 l22
20 -22 0 c-13 0 -24 -6 -26 -12 -15 -51 -14 -50 -40 -33 -18 12 -25 13 -28 4
-6 -17 -58 -2 -58 17 0 8 7 17 15 20 8 4 15 13 15 22 0 13 -2 13 -18 -1 -10
-10 -24 -17 -31 -17 -7 0 -9 -4 -6 -10 3 -5 1 -10 -4 -10 -6 0 -10 -5 -9 -11
2 -6 -3 -14 -9 -16 -8 -3 -13 4 -13 16 0 12 -6 21 -15 21 -8 0 -15 5 -15 10 0
6 -7 10 -15 10 -8 0 -22 11 -31 25 -15 22 -42 27 -29 4 4 -5 -1 -12 -9 -15 -9
-3 -16 -17 -16 -31 0 -20 -4 -24 -19 -20 -12 3 -22 -1 -26 -12 -6 -14 -8 -14
-18 -1 -7 9 -20 14 -30 12 -9 -2 -19 4 -22 12 -3 9 -7 23 -10 33 -5 13 -10 11
-28 -13 -12 -16 -31 -30 -42 -32 -11 -1 -31 -5 -44 -8 -23 -5 -23 -5 -5 -26
18 -20 18 -21 1 -15 -23 9 -59 -59 -38 -72 9 -6 10 -10 2 -15 -6 -4 -8 -12 -5
-18 4 -7 2 -8 -4 -4 -7 4 -12 2 -12 -4 0 -6 -5 -8 -11 -5 -6 4 -13 -2 -16 -14
-3 -12 -11 -21 -17 -21 -7 0 -22 -11 -34 -25 -12 -14 -31 -25 -42 -25 -14 0
-18 -5 -13 -16 4 -10 0 -20 -10 -26 -10 -5 -17 -15 -17 -23 0 -7 -5 -15 -12
-17 -8 -3 -4 -12 10 -26 12 -12 20 -23 17 -23 -3 -1 -9 -2 -14 -3 -6 0 -16 -7
-22 -13 -23 -23 -37 -14 -44 27 -5 29 -12 40 -25 40 -10 0 -21 -7 -24 -16 -9
-23 -8 -24 14 -24 11 0 20 -4 20 -10 0 -6 -9 -6 -26 0 -14 6 -26 10 -28 10 -1
0 -2 -9 -2 -20 0 -11 6 -20 13 -20 14 0 14 2 18 -57 2 -32 -1 -43 -12 -43 -10
0 -12 -6 -8 -19 5 -18 3 -19 -25 -11 -18 5 -39 15 -48 22 -9 8 -13 8 -9 2 4
-7 0 -15 -9 -18 -12 -4 -15 -2 -10 9 3 8 1 15 -4 15 -6 0 -10 -4 -10 -10 0 -5
-9 -10 -20 -10 -22 0 -26 -20 -8 -38 9 -9 9 -12 0 -12 -7 0 -12 -8 -12 -17 0
-15 -2 -16 -10 -3 -11 18 -24 6 -26 -25 0 -15 5 -25 13 -25 7 0 13 5 13 11 0
5 5 7 12 3 8 -5 3 -14 -15 -30 l-26 -22 24 -16 c13 -9 29 -16 35 -16 6 0 19
-8 28 -17 16 -15 14 -16 -20 -10 -31 5 -37 2 -41 -15 -4 -13 3 -28 20 -44 14
-13 21 -24 15 -24 -6 0 -9 -7 -5 -16 5 -13 2 -15 -15 -9 -16 4 -22 2 -22 -8 0
-9 -6 -17 -12 -20 -10 -3 -10 -7 1 -20 11 -14 11 -18 -3 -23 -21 -8 -55 25
-37 36 16 9 11 42 -7 48 -8 2 -10 -2 -6 -13 4 -10 -1 -22 -15 -32 -19 -12 -20
-17 -9 -31 9 -11 10 -16 2 -19 -7 -2 -10 -12 -7 -21 3 -12 -5 -21 -24 -28 -23
-9 -32 -7 -48 8 -11 11 -27 17 -37 15 -11 -3 -20 2 -24 15 -3 11 -12 17 -19
14 -18 -6 -55 30 -55 55 0 16 -3 18 -19 10 -21 -12 -81 5 -94 27 -5 7 -12 10
-18 7 -5 -4 -9 -1 -9 4 0 6 -7 11 -16 11 -11 0 -14 5 -10 16 4 10 0 18 -13 21
-11 3 -22 11 -25 19 -3 8 -12 14 -21 14 -8 0 -15 6 -15 14 0 9 -12 16 -27 18
-21 2 -32 13 -46 41 -10 21 -22 35 -27 32 -6 -3 -16 6 -22 21 -14 31 -54 75
-61 67 -3 -2 -8 5 -12 16 -3 11 -15 23 -26 26 -12 4 -18 13 -15 21 5 14 -32
47 -45 38 -4 -2 -10 9 -14 26 -5 21 -12 30 -27 30 -14 0 -18 5 -15 15 4 8 2
17 -3 20 -6 4 -10 15 -10 26 0 11 -7 19 -16 19 -10 0 -13 6 -10 18 4 10 -2 34
-11 53 -10 19 -18 39 -19 46 -1 7 -9 27 -18 45 -9 17 -19 45 -22 62 -3 16 -16
40 -30 53 -14 13 -22 28 -19 33 3 6 1 10 -4 10 -14 0 -14 37 -1 45 5 3 2 14
-7 25 -9 10 -18 26 -19 33 -5 33 -16 57 -25 52 -5 -4 -9 8 -9 24 0 20 -5 31
-15 31 -7 0 -19 8 -25 18 -8 12 -13 13 -16 5 -9 -21 -34 -15 -34 7 0 20 -2 21
-32 13z m82 -57 c0 -3 -4 -8 -10 -11 -5 -3 -10 -1 -10 4 0 6 5 11 10 11 6 0
10 -2 10 -4z m-68 -158 c-7 -7 -12 -8 -12 -2 0 14 12 26 19 19 2 -3 -1 -11 -7
-17z m1838 -37 c0 -5 9 -13 20 -16 21 -7 28 -35 9 -35 -7 0 -8 -7 -4 -17 4
-10 8 -23 9 -30 1 -7 5 -16 9 -19 11 -11 8 -26 -4 -22 -6 2 -20 28 -31 58 -30
82 -31 90 -19 90 6 0 11 -4 11 -9z m305 -41 c3 -5 -1 -10 -9 -10 -9 0 -16 5
-16 10 0 6 4 10 9 10 6 0 13 -4 16 -10z m-1995 -14 c0 -8 6 -17 13 -19 6 -3 3
-6 -9 -6 -26 -1 -34 7 -27 25 7 18 23 18 23 0z m1946 -8 c3 -13 13 -31 21 -40
9 -10 13 -25 9 -34 -5 -13 -1 -15 21 -11 16 4 22 4 16 1 -14 -6 -18 -36 -6
-47 3 -4 12 -2 20 4 10 9 13 8 13 0 0 -7 4 -10 9 -6 6 3 25 -1 43 -9 25 -11
28 -15 13 -15 -18 -2 -19 -2 -2 -12 24 -14 22 -32 -3 -24 -35 11 -19 -15 25
-42 11 -6 19 -16 18 -22 -2 -6 3 -11 10 -11 7 0 18 -9 25 -20 7 -11 8 -20 3
-20 -6 0 -13 5 -16 10 -8 13 -35 13 -35 0 0 -5 14 -24 31 -41 22 -22 27 -34
19 -39 -9 -5 -9 -9 -1 -14 6 -4 16 -4 23 0 7 5 8 3 3 -6 -6 -10 -3 -12 13 -8
12 4 22 2 22 -3 0 -5 -5 -9 -11 -9 -6 0 -8 -10 -5 -22 3 -13 3 -17 0 -10 -12
27 -25 11 -18 -24 l7 -36 -25 16 c-14 9 -40 18 -57 21 -65 8 -115 -86 -78
-146 10 -17 9 -22 -6 -33 -16 -13 -16 -15 3 -39 11 -14 17 -32 14 -42 -6 -15
-8 -14 -25 1 -11 9 -19 22 -19 29 0 6 -6 23 -12 38 -16 33 -58 38 -58 7 0 -11
5 -20 11 -20 8 0 8 -4 0 -13 -7 -9 -8 -24 -1 -47 11 -38 4 -54 -11 -27 -6 9
-15 17 -21 17 -9 0 -9 -3 0 -12 7 -7 12 -26 11 -42 0 -29 -1 -29 -9 -8 -13 30
-40 58 -67 66 -17 6 -22 2 -25 -15 -2 -12 -9 -24 -17 -27 -8 -3 -11 0 -7 7 4
6 2 11 -4 11 -7 0 -14 -9 -17 -20 -3 -11 -12 -20 -19 -20 -8 0 -14 -4 -14 -10
0 -5 -6 -7 -14 -4 -7 3 -20 -2 -29 -10 -9 -9 -23 -16 -31 -16 -9 0 -16 -5 -16
-10 0 -6 -6 -10 -12 -9 -27 3 -38 -2 -38 -16 0 -8 -7 -15 -15 -15 -8 0 -15 -5
-15 -11 0 -6 -7 -9 -15 -6 -8 4 -27 0 -42 -8 -15 -8 -36 -12 -45 -9 -12 3 -18
0 -18 -10 0 -9 -6 -13 -14 -10 -8 3 -21 -5 -29 -17 -12 -16 -22 -20 -39 -16
-13 4 -48 3 -76 -2 -39 -6 -55 -5 -63 5 -9 11 -8 14 6 14 11 0 15 5 12 14 -3
8 0 20 8 26 8 6 21 35 31 63 9 29 21 58 27 65 6 8 5 17 -3 27 -10 12 -9 16 4
21 9 3 16 12 16 19 0 7 8 15 18 17 26 7 65 87 51 104 -9 11 -8 14 1 14 9 0 11
9 7 30 -6 28 7 43 15 18 9 -25 30 5 24 33 -5 28 7 48 19 29 9 -15 25 -12 25 5
0 9 -9 15 -24 15 -19 0 -26 7 -31 30 -4 16 -14 34 -23 39 -16 9 -16 11 2 28
18 17 18 17 11 -4 -6 -20 -3 -23 24 -23 21 0 34 -7 42 -22 7 -13 12 -25 11
-28 -1 -3 7 -6 18 -6 15 -1 21 7 26 35 9 47 22 65 40 50 16 -13 54 -2 54 16 0
8 9 16 19 20 12 4 18 12 14 21 -4 10 0 12 11 8 17 -7 22 11 6 21 -6 4 -8 10
-6 14 3 4 1 24 -5 45 -8 29 -7 39 5 52 19 18 36 10 36 -16 0 -11 11 -22 31
-29 27 -9 30 -9 25 5 -5 14 -1 16 24 10 23 -4 36 0 50 14 11 11 20 25 20 30 0
6 9 10 20 10 24 0 24 5 7 56 -16 47 -15 70 1 67 19 -4 14 35 -5 40 -14 4 -13
5 4 6 14 1 24 -7 29 -21z m-366 -18 c0 -5 -8 -10 -17 -10 -15 0 -16 2 -3 10
19 12 20 12 20 0z m17 -46 c-3 -3 -12 -4 -19 -1 -8 3 -5 6 6 6 11 1 17 -2 13
-5z m-1677 -18 c0 -3 -4 -8 -10 -11 -5 -3 -10 -1 -10 4 0 6 5 11 10 11 6 0 10
-2 10 -4z m1860 -17 c0 -5 -14 -9 -31 -9 -24 0 -30 -4 -25 -15 4 -10 -1 -15
-14 -15 -26 0 -15 27 18 44 26 14 52 11 52 -5z m123 -2 c3 -7 -3 -13 -13 -13
-10 0 -16 6 -13 13 3 7 9 13 13 13 4 0 10 -6 13 -13z m285 1 c-5 -13 -48 -22
-48 -10 0 14 12 22 33 22 10 0 17 -5 15 -12z m-558 -29 c0 -5 -4 -9 -10 -9 -5
0 -10 7 -10 16 0 8 5 12 10 9 6 -3 10 -10 10 -16z m795 -29 c3 -5 1 -10 -4
-10 -6 0 -11 5 -11 10 0 6 2 10 4 10 3 0 8 -4 11 -10z m-2425 -40 c0 -5 -5
-10 -11 -10 -5 0 -7 5 -4 10 3 6 8 10 11 10 2 0 4 -4 4 -10z m2184 -6 c9 -24
0 -29 -18 -11 -8 8 -12 17 -9 21 11 10 21 7 27 -10z m-724 -43 c0 -6 -4 -13
-10 -16 -5 -3 -10 1 -10 9 0 9 5 16 10 16 6 0 10 -4 10 -9z m49 -5 c10 -12 8
-13 -8 -9 -12 3 -21 1 -21 -6 0 -6 -5 -11 -10 -11 -7 0 -7 6 0 20 13 24 23 25
39 6z m691 -6 c0 -5 -2 -10 -4 -10 -3 0 -8 5 -11 10 -3 6 -1 10 4 10 6 0 11
-4 11 -10z m50 -25 c-7 -8 -17 -12 -22 -9 -6 4 -5 10 3 15 22 14 33 10 19 -6z
m-2262 -21 c14 -15 14 -16 -3 -13 -10 2 -20 10 -23 17 -5 17 6 15 26 -4z
m2342 -145 c0 -35 -15 -31 -22 6 -4 17 -1 25 8 25 9 0 14 -11 14 -31z m-190
-49 c0 -5 -4 -10 -10 -10 -5 0 -10 5 -10 10 0 6 5 10 10 10 6 0 10 -4 10 -10z
m-895 -29 c3 -13 4 -26 0 -29 -3 -3 -5 2 -5 12 0 10 -14 23 -32 31 l-33 14 32
-2 c25 -2 33 -8 38 -26z m-80 9 c7 0 16 -13 20 -30 4 -20 13 -30 25 -30 16 0
54 -58 55 -85 0 -5 4 -16 9 -23 4 -7 5 -16 2 -19 -3 -4 -6 -1 -6 5 0 7 -4 12
-10 12 -17 0 -11 -22 11 -41 15 -13 19 -24 13 -36 -4 -10 -8 -25 -8 -33 -1 -8
-7 -15 -15 -15 -14 0 -23 23 -23 63 0 12 -6 22 -14 22 -8 0 -14 9 -14 19 0 10
-8 22 -17 26 -17 6 -17 7 0 16 9 6 22 7 27 4 6 -3 10 -2 10 4 0 5 -5 13 -11
17 -8 4 -7 9 2 15 7 4 10 11 6 15 -7 8 -57 -14 -69 -31 -4 -5 -10 -6 -14 -3
-3 4 3 25 14 46 20 38 16 72 -6 58 -6 -4 -16 3 -23 15 -10 19 -9 21 6 16 9 -4
23 -7 30 -7z m1064 -29 c-15 -5 -22 6 -14 19 6 9 10 9 16 -1 5 -8 4 -15 -2
-18z m-44 -29 c-8 -8 -25 10 -19 20 4 6 9 5 15 -3 4 -7 6 -15 4 -17z m-805 -2
c0 -5 -7 -10 -16 -10 -8 0 -12 5 -9 10 3 6 10 10 16 10 5 0 9 -4 9 -10z m915
-20 c3 -6 -1 -7 -9 -4 -18 7 -21 14 -7 14 6 0 13 -4 16 -10z m-1185 -35 c0 -3
-8 -5 -18 -5 -10 0 -19 7 -19 14 0 11 5 13 19 5 10 -5 18 -12 18 -14z m-925
-4 c-3 -6 -11 -8 -17 -5 -6 4 -5 9 3 15 16 10 23 4 14 -10z m145 -107 c0 -2
-9 -4 -20 -4 -11 0 -20 4 -20 9 0 5 9 7 20 4 11 -3 20 -7 20 -9z m50 2 c0 -2
3 -12 6 -20 4 -12 2 -15 -9 -10 -21 8 -30 34 -12 34 8 0 15 -2 15 -4z m793
-11 c-3 -9 -8 -14 -10 -11 -3 3 -2 9 2 15 9 16 15 13 8 -4z m612 -85 c-3 -5 2
-21 11 -35 13 -20 14 -25 2 -25 -14 0 -40 55 -30 64 9 10 24 7 17 -4z m355
-16 c0 -8 -4 -12 -10 -9 -5 3 -10 10 -10 16 0 5 5 9 10 9 6 0 10 -7 10 -16z
m-896 -55 c-11 -18 -32 -9 -27 11 4 16 8 18 19 9 8 -6 11 -15 8 -20z m656 11
c0 -5 -4 -10 -10 -10 -5 0 -10 5 -10 10 0 6 5 10 10 10 6 0 10 -4 10 -10z
m-300 -110 c0 -21 -18 -17 -28 6 -11 23 -10 24 8 14 11 -6 20 -15 20 -20z
m-513 3 c3 -10 13 -26 21 -35 14 -16 13 -18 -6 -18 -15 0 -22 6 -22 19 0 11
-4 23 -10 26 -13 8 -13 25 0 25 6 0 13 -8 17 -17z m503 -72 c0 -9 -5 -23 -11
-31 -8 -12 -9 -10 -4 8 4 15 1 24 -9 28 -9 3 -14 10 -11 15 9 13 35 -1 35 -20z
m-110 -6 c10 -12 10 -15 -3 -15 -8 0 -20 7 -27 15 -10 12 -10 15 3 15 8 0 20
-7 27 -15z m-42 -31 c-4 -3 -12 5 -18 18 -12 22 -12 22 6 6 10 -10 15 -20 12
-24z m-515 -36 c7 -7 13 -25 14 -41 1 -15 9 -34 17 -43 9 -8 16 -21 16 -28 0
-7 8 -21 18 -32 16 -16 17 -22 5 -32 -11 -11 -19 0 -48 63 -20 42 -40 73 -45
70 -11 -7 -31 35 -23 48 7 11 33 8 46 -5z m64 -4 c-3 -3 -12 -4 -19 -1 -8 3
-5 6 6 6 11 1 17 -2 13 -5z m443 -14 c0 -5 -4 -10 -10 -10 -5 0 -10 5 -10 10
0 6 5 10 10 10 6 0 10 -4 10 -10z m-330 -41 c0 -5 5 -9 11 -9 6 0 17 -7 25
-15 13 -13 11 -14 -18 -8 -39 7 -34 3 -42 30 -6 18 -4 22 8 17 9 -3 16 -10 16
-15z m-155 -89 c3 -5 1 -10 -4 -10 -6 0 -11 5 -11 10 0 6 2 10 4 10 3 0 8 -4
11 -10z m190 -10 c3 -5 1 -10 -4 -10 -6 0 -11 5 -11 10 0 6 2 10 4 10 3 0 8
-4 11 -10z m-117 -188 l10 -29 -39 11 c-37 10 -51 34 -16 28 8 -1 18 2 22 8 9
15 12 13 23 -18z m132 -46 c-13 -13 -35 7 -25 24 5 8 11 8 21 -1 10 -8 12 -15
4 -23z m-147 -6 c-4 -4 -20 -10 -35 -14 -22 -5 -26 -3 -21 10 3 10 13 14 25
11 15 -4 18 -2 14 10 -6 13 -4 14 9 3 9 -7 12 -16 8 -20z m72 20 c8 -13 -5
-13 -25 0 -13 8 -13 10 2 10 9 0 20 -4 23 -10z m-95 -111 c0 -5 5 -7 11 -3 7
4 10 1 7 -7 -6 -18 -47 -24 -62 -8 -8 9 -6 10 12 6 19 -4 21 -3 11 9 -9 11 -8
14 5 14 9 0 16 -5 16 -11z m184 -36 c-4 -10 -7 -30 -7 -45 0 -31 -8 -35 -26
-14 -9 11 -9 16 0 21 8 6 7 10 -2 16 -11 7 -10 9 5 9 12 0 16 5 12 15 -3 9 0
15 10 15 12 0 14 -5 8 -17z m-131 -13 c-3 -11 -1 -26 5 -33 12 -14 25 -77 17
-77 -3 0 -13 16 -21 35 -8 19 -18 35 -24 35 -14 0 -21 -18 -10 -25 8 -5 8 -11
0 -20 -9 -11 -18 -12 -49 -6 -2 1 2 7 8 14 6 8 8 17 4 20 -3 4 -1 7 5 7 7 0
12 5 12 10 0 6 -7 10 -15 10 -8 0 -15 5 -15 10 0 9 14 14 33 11 4 -1 10 6 13
14 4 8 14 15 24 15 13 0 17 -5 13 -20z m186 -126 c-7 -8 -20 -12 -30 -9 -11 4
-19 2 -19 -4 0 -6 -7 -8 -15 -5 -24 10 -18 20 18 31 41 12 62 6 46 -13z m76 0
c14 -9 25 -21 25 -26 0 -7 -4 -7 -12 0 -13 10 -19 12 -38 12 -5 0 -10 7 -10
15 0 19 5 19 35 -1z m1785 -58 c0 -2 -7 -9 -15 -16 -12 -10 -15 -10 -15 4 0 9
7 16 15 16 8 0 15 -2 15 -4z m-1876 -21 c-4 -8 -2 -15 4 -15 6 0 12 5 14 12 2
6 10 8 16 4 18 -11 14 -23 -9 -29 -14 -4 -20 -11 -16 -20 7 -19 -13 -39 -27
-28 -6 5 -22 11 -36 13 -24 3 -24 4 8 18 18 8 32 22 31 30 -2 23 0 30 11 30 5
0 7 -7 4 -15z m-147 -27 c-3 -8 -6 -5 -6 6 -1 11 2 17 5 13 3 -3 4 -12 1 -19z
m2337 -69 c-10 -16 -23 -9 -21 10 1 15 4 17 14 9 7 -5 10 -14 7 -19z m-34 2
c0 -5 -9 -11 -19 -14 -14 -3 -18 -1 -14 9 6 15 33 19 33 5z m-2194 -28 c-10
-11 -37 -12 -30 -2 3 5 12 9 21 9 9 0 13 -3 9 -7z m258 -18 c4 -10 -1 -15 -14
-15 -20 0 -26 11 -13 23 10 11 20 8 27 -8z m1916 -56 c0 -5 -4 -9 -9 -9 -5 0
-11 -6 -14 -12 -2 -7 -2 -3 0 10 2 15 -2 22 -12 22 -10 0 -15 9 -15 28 l1 27
24 -28 c14 -15 25 -32 25 -38z m200 37 c0 -3 -4 -8 -10 -11 -5 -3 -10 -1 -10
4 0 6 5 11 10 11 6 0 10 -2 10 -4z m185 -54 c-3 -3 -11 0 -18 7 -9 10 -8 11 6
5 10 -3 15 -9 12 -12z m-2170 -13 c11 -17 -1 -21 -15 -4 -8 9 -8 15 -2 15 6 0
14 -5 17 -11z m1665 -9 c0 -5 -4 -10 -9 -10 -6 0 -13 5 -16 10 -3 6 1 10 9 10
9 0 16 -4 16 -10z m323 -16 c-4 -10 -9 -12 -18 -4 -6 5 -14 9 -16 7 -2 -1 2 3
10 10 17 15 32 8 24 -13z m-2158 -4 c3 -5 -1 -10 -10 -10 -9 0 -13 5 -10 10 3
6 8 10 10 10 2 0 7 -4 10 -10z m179 -18 c3 -5 -8 -6 -25 -4 -16 2 -29 6 -29 8
0 8 49 4 54 -4z m1876 0 c0 -4 -15 -8 -32 -9 -30 -1 -31 -1 -8 7 34 11 40 11
40 2z m210 -12 c0 -5 -2 -10 -4 -10 -3 0 -8 5 -11 10 -3 6 -1 10 4 10 6 0 11
-4 11 -10z m-2070 -30 c0 -5 -4 -10 -10 -10 -5 0 -10 5 -10 10 0 6 5 10 10 10
6 0 10 -4 10 -10z m-142 -22 c18 -18 15 -27 -8 -21 -11 3 -20 12 -20 19 0 17
12 18 28 2z m136 -80 c-3 -4 -12 -8 -20 -8 -8 0 -14 -7 -14 -15 0 -17 -9 -19
-29 -6 -12 7 -12 13 -3 24 7 7 9 17 5 21 -4 3 2 13 13 21 17 12 21 12 36 -8 9
-12 14 -25 12 -29z m76 37 c0 -8 5 -15 12 -15 6 0 8 -3 5 -6 -8 -8 -37 14 -37
27 0 5 5 9 10 9 6 0 10 -7 10 -15z m2056 -40 c-36 -19 -50 -19 -34 0 7 8 24
14 38 15 25 0 25 0 -4 -15z m-2101 -5 c-3 -5 -12 -10 -18 -10 -7 0 -6 4 3 10
19 12 23 12 15 0z m2235 -4 c0 -3 -4 -8 -10 -11 -5 -3 -10 -1 -10 4 0 6 5 11
10 11 6 0 10 -2 10 -4z m-1953 -22 c-3 -3 -12 -4 -19 -1 -8 3 -5 6 6 6 11 1
17 -2 13 -5z m1938 -92 c-8 -8 -25 10 -19 20 4 6 9 5 15 -3 4 -7 6 -15 4 -17z
m-2095 8 c0 -5 -4 -10 -10 -10 -5 0 -10 5 -10 10 0 6 5 10 10 10 6 0 10 -4 10
-10z m1990 0 c0 -5 -5 -10 -11 -10 -5 0 -7 5 -4 10 3 6 8 10 11 10 2 0 4 -4 4
-10z m-1592 -81 c-2 -6 -8 -10 -13 -10 -5 0 -11 4 -13 10 -2 6 4 11 13 11 9 0
15 -5 13 -11z m-118 -9 c0 -5 -4 -10 -9 -10 -6 0 -13 5 -16 10 -3 6 1 10 9 10
9 0 16 -4 16 -10z m1360 -4 c0 -3 -4 -8 -10 -11 -5 -3 -10 -1 -10 4 0 6 5 11
10 11 6 0 10 -2 10 -4z m-550 -16 c0 -5 -5 -10 -11 -10 -5 0 -7 5 -4 10 3 6 8
10 11 10 2 0 4 -4 4 -10z m1029 -29 c-15 -5 -22 6 -14 19 6 9 10 9 16 -1 5 -8
4 -15 -2 -18z m-389 0 c13 -26 13 -32 -2 -28 -9 1 -12 -9 -11 -29 2 -24 -3
-34 -21 -43 -25 -14 -70 -6 -60 10 3 6 1 16 -6 24 -8 10 -6 17 12 29 20 14 21
18 8 27 -13 9 -13 10 2 6 9 -3 24 1 35 8 24 19 30 18 43 -4z m-1140 -12 c0
-11 -4 -17 -10 -14 -5 3 -10 13 -10 21 0 8 5 14 10 14 6 0 10 -9 10 -21z m224
5 c4 -10 1 -14 -6 -12 -15 5 -23 28 -10 28 5 0 13 -7 16 -16z m1171 -4 c3 -5
-1 -10 -9 -10 -8 0 -17 -10 -19 -22 -3 -17 -5 -14 -6 10 -1 32 20 45 34 22z
m-115 -246 c0 -8 -4 -12 -10 -9 -5 3 -10 10 -10 16 0 5 5 9 10 9 6 0 10 -7 10
-16z m-40 -64 c0 -5 -2 -10 -4 -10 -3 0 -8 5 -11 10 -3 6 -1 10 4 10 6 0 11
-4 11 -10z m-214 -107 c-10 -26 -29 1 -21 28 7 20 8 21 17 5 5 -9 7 -24 4 -33z
m-51 17 c-3 -5 -14 -6 -25 -3 -11 3 -18 9 -15 13 3 5 14 6 25 3 11 -3 18 -9
15 -13z m-60 -139 c0 -31 -3 -34 -32 -37 -41 -5 -44 12 -4 21 21 4 29 12 28
26 -1 10 -7 19 -15 19 -7 0 -10 -4 -7 -10 3 -5 -1 -10 -9 -10 -19 0 -21 16 -3
23 28 12 42 2 42 -32z m5 -70 c0 -19 -46 -49 -57 -38 -3 4 -1 7 5 7 7 0 12 13
12 29 0 24 3 28 20 24 11 -3 20 -13 20 -22z m30 -7 c0 -8 -5 -12 -10 -9 -6 4
-8 11 -5 16 9 14 15 11 15 -7z m-240 -134 c0 -11 -4 -20 -10 -20 -5 0 -10 9
-10 20 0 11 5 20 10 20 6 0 10 -9 10 -20z"/>
<path d="M2450 3673 c0 -5 4 -15 10 -23 11 -18 25 -7 17 15 -6 15 -27 21 -27
8z"/>
<path d="M2851 3631 c-10 -6 -10 -10 -1 -16 13 -8 24 -1 19 14 -3 6 -10 7 -18
2z"/>
<path d="M2320 3496 c0 -2 7 -9 15 -16 12 -10 15 -10 15 4 0 9 -7 16 -15 16
-8 0 -15 -2 -15 -4z"/>
<path d="M2880 3420 c0 -13 11 -13 30 0 12 8 11 10 -7 10 -13 0 -23 -4 -23
-10z"/>
<path d="M2608 3153 c7 -3 16 -2 19 1 4 3 -2 6 -13 5 -11 0 -14 -3 -6 -6z"/>
<path d="M2090 2940 c0 -5 5 -10 10 -10 6 0 10 5 10 10 0 6 -4 10 -10 10 -5 0
-10 -4 -10 -10z"/>
<path d="M458 4144 c-4 -36 14 -75 28 -61 5 4 2 12 -6 17 -11 7 -12 14 -4 27
11 19 8 53 -6 53 -4 0 -10 -16 -12 -36z"/>
<path d="M460 4059 c0 -5 5 -7 10 -4 6 3 10 8 10 11 0 2 -4 4 -10 4 -5 0 -10
-5 -10 -11z"/>
<path d="M485 4050 c-3 -6 1 -7 9 -4 18 7 21 14 7 14 -6 0 -13 -4 -16 -10z"/>
<path d="M2530 4010 c0 -5 5 -10 11 -10 5 0 7 5 4 10 -3 6 -8 10 -11 10 -2 0
-4 -4 -4 -10z"/>
<path d="M2733 4005 c-17 -19 -16 -25 2 -25 8 0 15 9 15 20 0 23 -1 24 -17 5z"/>
<path d="M2805 4000 c-3 -5 1 -10 10 -10 9 0 13 5 10 10 -3 6 -8 10 -10 10 -2
0 -7 -4 -10 -10z"/>
<path d="M2695 3980 c-3 -5 -1 -10 4 -10 6 0 11 5 11 10 0 6 -2 10 -4 10 -3 0
-8 -4 -11 -10z"/>
<path d="M580 3723 c1 -19 19 -35 36 -31 15 3 14 6 -9 21 -15 10 -27 14 -27
10z"/>
<path d="M643 3683 c-3 -10 -8 -21 -10 -25 -2 -5 1 -8 6 -8 6 0 11 7 11 15 0
8 7 15 15 15 8 0 15 5 15 10 0 17 -30 11 -37 -7z"/>
<path d="M3290 3447 c-18 -14 -19 -37 -3 -54 17 -19 25 -16 13 6 -7 14 -7 20
1 23 6 2 10 11 8 20 -3 13 -7 14 -19 5z"/>
<path d="M3200 3410 c0 -5 4 -10 9 -10 6 0 13 5 16 10 3 6 -1 10 -9 10 -9 0
-16 -4 -16 -10z"/>
<path d="M3225 3390 c-3 -5 -1 -10 4 -10 6 0 11 5 11 10 0 6 -2 10 -4 10 -3 0
-8 -4 -11 -10z"/>
<path d="M3260 3360 c0 -5 9 -10 21 -10 11 0 17 5 14 10 -3 6 -13 10 -21 10
-8 0 -14 -4 -14 -10z"/>
<path d="M1685 3069 c-4 -6 -5 -12 -2 -15 7 -7 37 7 37 17 0 13 -27 11 -35 -2z"/>
<path d="M2635 2810 c-3 -5 -1 -10 4 -10 6 0 11 5 11 10 0 6 -2 10 -4 10 -3 0
-8 -4 -11 -10z"/>
<path d="M1535 2700 c-3 -5 -2 -10 4 -10 5 0 13 5 16 10 3 6 2 10 -4 10 -5 0
-13 -4 -16 -10z"/>
<path d="M2332 2681 c2 -7 7 -12 11 -12 12 1 9 15 -3 20 -7 2 -11 -2 -8 -8z"/>
<path d="M1560 2461 c0 -12 29 -35 36 -28 11 10 -5 37 -21 37 -8 0 -15 -4 -15
-9z"/>
<path d="M1600 2395 c-7 -9 -10 -19 -6 -22 8 -9 38 9 44 25 5 17 -23 15 -38
-3z"/>
<path d="M3415 2170 c-4 -6 -11 -8 -16 -5 -5 4 -9 1 -9 -4 0 -6 8 -11 18 -11
13 0 14 -2 3 -9 -11 -7 -9 -13 8 -30 11 -11 27 -21 35 -21 8 0 18 -5 22 -11 4
-8 -1 -9 -17 -4 -22 6 -22 6 -9 -8 12 -13 23 -14 52 -8 22 5 40 5 46 -1 6 -6
12 -6 16 1 4 6 3 11 -2 11 -6 0 -12 7 -15 15 -5 12 -2 12 18 3 17 -8 24 -18
21 -32 -2 -12 -1 -15 1 -8 4 10 8 10 18 2 10 -9 19 -6 34 9 12 12 21 26 21 31
0 6 7 13 15 16 17 7 21 34 5 34 -5 0 -10 -4 -10 -10 0 -20 -28 -10 -45 16 -12
19 -19 23 -25 14 -4 -7 -12 -10 -16 -7 -14 8 -56 -12 -49 -23 3 -5 1 -10 -5
-10 -6 0 -13 7 -16 15 -4 8 -10 15 -16 15 -5 0 -6 -4 -3 -10 3 -5 1 -10 -4
-10 -6 0 -11 10 -11 21 0 20 -1 20 -24 6 -23 -15 -24 -15 -19 3 6 21 -11 28
-22 10z m105 -74 c0 -2 -7 -7 -16 -10 -8 -3 -12 -2 -9 4 6 10 25 14 25 6z"/>
<path d="M3715 2100 c-3 -5 -1 -10 4 -10 6 0 11 5 11 10 0 6 -2 10 -4 10 -3 0
-8 -4 -11 -10z"/>
<path d="M3498 2044 c-3 -3 -4 -14 -1 -25 5 -18 6 -18 18 -2 17 23 2 47 -17
27z"/>
<path d="M1807 1800 c3 -12 6 -19 7 -18 1 2 8 11 15 21 12 15 11 17 -7 17 -15
0 -19 -5 -15 -20z"/>
<path d="M3830 1794 c0 -8 5 -12 10 -9 6 3 10 10 10 16 0 5 -4 9 -10 9 -5 0
-10 -7 -10 -16z"/>
<path d="M3870 1770 c0 -5 5 -10 10 -10 6 0 10 5 10 10 0 6 -4 10 -10 10 -5 0
-10 -4 -10 -10z"/>
<path d="M4520 1749 c0 -5 5 -7 10 -4 6 3 10 8 10 11 0 2 -4 4 -10 4 -5 0 -10
-5 -10 -11z"/>
<path d="M4050 1699 c0 -5 5 -7 10 -4 6 3 10 8 10 11 0 2 -4 4 -10 4 -5 0 -10
-5 -10 -11z"/>
<path d="M1990 1690 c0 -5 -9 -10 -20 -10 -23 0 -27 -28 -5 -36 19 -8 41 10
48 36 3 13 0 20 -9 20 -8 0 -14 -4 -14 -10z"/>
<path d="M4620 1584 c0 -8 5 -12 10 -9 6 3 10 10 10 16 0 5 -4 9 -10 9 -5 0
-10 -7 -10 -16z"/>
<path d="M4701 1504 c0 -11 3 -14 6 -6 3 7 2 16 -1 19 -3 4 -6 -2 -5 -13z"/>
<path d="M3200 1270 c0 -5 5 -10 11 -10 5 0 7 5 4 10 -3 6 -8 10 -11 10 -2 0
-4 -4 -4 -10z"/>
<path d="M4550 1193 c0 -17 27 -46 33 -36 4 6 -2 18 -13 28 -11 10 -20 14 -20
8z"/>
<path d="M4537 1143 c-12 -12 -7 -22 8 -17 8 4 15 10 15 15 0 11 -14 12 -23 2z"/>
<path d="M4200 945 c0 -8 4 -15 10 -15 5 0 7 7 4 15 -4 8 -8 15 -10 15 -2 0
-4 -7 -4 -15z"/>
<path d="M4160 840 c0 -5 5 -10 10 -10 6 0 10 5 10 10 0 6 -4 10 -10 10 -5 0
-10 -4 -10 -10z"/>
<path d="M4105 710 c-3 -5 -1 -10 4 -10 6 0 11 5 11 10 0 6 -2 10 -4 10 -3 0
-8 -4 -11 -10z"/>
<path d="M4030 690 c0 -5 5 -10 10 -10 6 0 10 5 10 10 0 6 -4 10 -10 10 -5 0
-10 -4 -10 -10z"/>
<path d="M3975 570 c3 -5 8 -10 11 -10 2 0 4 5 4 10 0 6 -5 10 -11 10 -5 0 -7
-4 -4 -10z"/>
</g>
</svg>
