<svg version="1.0" xmlns="http://www.w3.org/2000/svg" width="512.000000pt" height="512.000000pt" viewBox="0 0 512.000000 512.000000" preserveAspectRatio="xMidYMid meet">
  <g transform="translate(0.000000,512.000000) scale(0.100000,-0.100000)"
  fill="currentColor" stroke="none">
  <path d="M2763 4159 c-4 -15 -9 -16 -24 -8 -14 7 -19 6 -19 -2 0 -6 -6 -9 -14
  -6 -8 3 -17 -1 -20 -10 -5 -11 -2 -14 11 -9 14 6 15 4 6 -5 -6 -6 -9 -19 -6
  -28 3 -10 0 -8 -8 4 -22 34 -37 46 -44 35 -4 -6 -15 -8 -26 -5 -13 4 -19 2
  -19 -8 0 -10 8 -14 23 -13 12 1 29 -6 39 -15 15 -16 14 -17 -10 -22 -15 -3
  -33 0 -40 6 -10 8 -16 7 -23 -4 -6 -10 -3 -19 10 -29 23 -18 14 -45 -15 -45
  -11 0 -28 8 -38 18 -10 9 -22 17 -27 17 -6 0 -5 9 1 21 7 11 9 23 6 27 -3 3
  -6 0 -6 -7 0 -7 -4 -9 -10 -6 -5 3 -10 -3 -10 -13 0 -11 -7 -26 -17 -33 -15
  -13 -15 -12 -5 8 7 12 12 26 12 32 0 18 -20 12 -28 -7 -6 -15 -13 -17 -38 -10
  -18 4 -34 16 -37 27 -4 17 -2 18 14 8 10 -6 21 -8 25 -4 11 10 -16 37 -38 37
  -16 0 -19 -5 -14 -25 6 -23 4 -24 -22 -19 -24 5 -35 -1 -72 -40 -24 -25 -47
  -43 -52 -40 -5 3 -18 -2 -29 -12 -10 -9 -22 -14 -25 -11 -4 4 1 9 10 13 24 9
  21 37 -3 29 -44 -14 -61 -13 -70 3 -7 13 -12 14 -23 4 -8 -6 -18 -9 -21 -5 -4
  3 -7 1 -7 -6 0 -8 -8 -6 -25 5 -24 16 -27 16 -40 -2 -16 -21 -20 -38 -7 -30 5
  3 8 -11 8 -29 -1 -19 -2 -35 -3 -35 -2 0 -9 16 -18 36 -12 29 -18 34 -35 29
  -14 -4 -20 -2 -20 9 0 16 -53 18 -79 2 -9 -6 -17 -3 -23 8 -14 25 -37 20 -31
  -6 4 -20 3 -21 -7 -5 -14 21 -42 23 -33 1 4 -12 0 -14 -20 -9 -28 8 -47 -12
  -26 -27 10 -7 8 -8 -8 -3 -12 3 -31 2 -41 -4 -13 -7 -22 -7 -30 1 -9 9 -15 8
  -24 -3 -7 -8 -12 -12 -11 -10 2 2 -2 10 -7 16 -13 16 -60 7 -60 -11 0 -12 -29
  -34 -44 -34 -10 0 -6 36 5 47 16 16 -3 23 -45 16 -29 -5 -34 -8 -25 -19 9 -11
  7 -14 -10 -14 -11 0 -21 -4 -21 -10 0 -18 -20 -11 -20 8 -1 15 -2 15 -13 2 -7
  -8 -24 -23 -40 -33 -27 -17 -27 -17 -27 8 0 18 -5 25 -20 25 -11 0 -20 -4 -20
  -9 0 -5 -12 -12 -26 -15 -20 -5 -24 -10 -15 -19 17 -17 13 -29 -9 -22 -11 4
  -20 2 -20 -4 0 -6 5 -11 10 -11 6 0 10 -5 10 -11 0 -23 -28 11 -34 41 -7 37
  -32 39 -66 8 -16 -15 -25 -18 -28 -10 -2 7 -13 12 -25 12 -12 1 -33 7 -46 14
  -23 13 -61 11 -61 -3 0 -4 5 -12 12 -19 8 -8 5 -11 -13 -10 -13 1 -39 1 -58 0
  -30 -2 -33 -4 -27 -28 4 -14 2 -32 -4 -39 -8 -9 -5 -14 12 -18 l22 -6 -23 -25
  c-13 -13 -29 -22 -35 -20 -7 3 -24 -6 -39 -18 -19 -17 -25 -29 -21 -46 4 -12
  13 -22 20 -22 8 0 14 -4 14 -9 0 -5 10 -12 23 -15 l22 -7 -23 -9 c-29 -12 -28
  -27 3 -32 14 -3 25 -2 25 2 0 4 9 10 20 13 14 3 20 0 20 -10 0 -12 8 -14 33
  -10 37 6 78 -5 59 -17 -9 -5 -9 -13 -2 -27 14 -26 -4 -33 -58 -20 -39 8 -56 1
  -32 -14 5 -3 10 -14 10 -25 0 -18 52 -44 65 -32 3 4 3 -1 0 -10 -5 -14 0 -16
  28 -14 27 2 34 0 30 -11 -4 -11 1 -12 22 -7 24 6 26 5 18 -11 -16 -28 -5 -54
  23 -51 13 2 27 5 30 9 3 3 14 2 23 -3 9 -5 24 -11 35 -14 11 -4 16 -12 12 -21
  -3 -8 -1 -15 4 -15 5 0 7 -7 3 -15 -7 -19 -28 -14 -28 6 0 8 -4 14 -10 14 -5
  0 -9 -8 -7 -19 1 -13 -2 -16 -13 -12 -8 3 -15 1 -15 -4 0 -6 -12 -10 -27 -10
  -21 0 -24 -3 -13 -9 8 -6 18 -7 24 -4 5 3 6 1 2 -5 -4 -7 -14 -12 -22 -12 -12
  0 -13 -4 -3 -21 9 -18 8 -24 -5 -31 -14 -8 -13 -11 4 -28 11 -11 20 -25 20
  -32 0 -6 -6 -4 -13 7 -9 11 -16 14 -21 7 -7 -12 4 -21 41 -31 24 -6 25 -8 9
  -24 -22 -21 -11 -44 12 -25 10 8 13 9 9 1 -11 -18 8 -24 40 -12 15 6 47 12 69
  14 33 2 41 -1 40 -14 0 -9 5 -15 12 -13 6 1 12 -5 12 -13 0 -8 8 -15 18 -15
  13 -1 11 -4 -7 -14 -14 -8 -31 -12 -38 -9 -7 3 -13 -1 -13 -9 0 -8 -7 -23 -16
  -34 -15 -18 -15 -18 -11 4 4 16 0 25 -11 28 -9 3 -25 10 -35 15 -10 5 -23 7
  -29 3 -5 -4 -13 -2 -17 4 -4 6 -12 7 -20 3 -10 -7 -7 -16 15 -40 15 -17 34
  -31 41 -31 24 0 47 -29 34 -44 -11 -13 -5 -26 10 -26 5 0 6 6 3 13 -6 18 19
  15 69 -7 21 -9 42 -14 47 -11 6 3 7 -1 4 -10 -4 -9 -14 -15 -23 -13 -9 1 -22
  -1 -28 -5 -8 -5 -13 -3 -13 7 0 10 -6 13 -15 10 -22 -9 -18 -23 9 -36 27 -12
  43 -41 26 -46 -6 -2 -17 -11 -26 -19 -14 -15 -13 -18 12 -38 16 -13 35 -20 44
  -17 9 3 5 -5 -8 -18 -25 -24 -23 -41 3 -20 21 18 45 5 45 -25 0 -15 -4 -24
  -10 -20 -5 3 -10 1 -10 -6 0 -7 8 -9 21 -6 11 3 27 3 35 0 12 -4 11 -8 -3 -18
  -21 -16 -14 -26 18 -27 36 -2 50 -17 39 -38 -14 -26 -15 -26 35 -23 29 2 45
  -1 45 -9 0 -9 3 -9 12 0 19 19 28 14 28 -13 0 -14 -6 -25 -12 -25 -10 0 -9 -3
  1 -9 25 -16 1 -32 -44 -28 -25 2 -50 -2 -61 -10 -15 -11 -20 -10 -36 4 -22 20
  -49 3 -30 -19 5 -7 10 -15 9 -18 0 -3 4 -14 10 -25 9 -16 13 -17 27 -6 9 7 16
  10 16 6 0 -4 6 -2 14 4 11 10 25 9 61 -3 62 -22 84 -21 78 3 -3 11 2 21 12 25
  9 3 14 2 11 -3 -3 -5 1 -15 10 -22 14 -12 14 -14 -1 -19 -17 -6 -17 -7 0 -23
  14 -14 15 -20 5 -32 -7 -8 -21 -15 -31 -15 -11 0 -19 -4 -19 -10 0 -5 -4 -10
  -10 -10 -5 0 -7 7 -4 15 4 10 0 15 -15 15 -12 0 -21 5 -21 11 0 5 -3 8 -8 5
  -4 -2 -23 -1 -42 3 -25 5 -34 12 -32 24 4 25 -15 21 -21 -4 -8 -31 1 -47 34
  -54 16 -4 29 -11 29 -16 0 -4 15 -12 32 -17 26 -6 33 -14 33 -33 0 -17 -5 -24
  -17 -23 -10 1 -18 -2 -18 -7 0 -15 23 -10 59 12 27 17 32 23 20 31 -12 8 -12
  9 1 5 8 -2 15 -11 15 -20 0 -9 5 -16 10 -14 6 1 9 5 7 10 -1 4 2 7 8 7 18 0
  -1 28 -23 34 -21 6 -21 7 8 23 33 18 41 16 37 -7 -2 -13 -1 -13 10 0 7 8 25
  14 39 12 15 -2 31 4 40 14 13 16 12 17 -10 11 -23 -6 -23 -4 -18 38 2 25 1 42
  -4 39 -5 -3 -6 2 -3 10 4 10 -2 17 -18 21 -20 5 -25 12 -24 38 1 21 -3 31 -11
  29 -7 -1 -13 5 -13 13 0 8 4 15 9 15 18 0 -3 52 -34 84 -25 26 -31 40 -28 60
  4 19 1 26 -10 26 -9 0 -14 10 -14 27 0 14 -8 32 -18 39 -9 7 -14 17 -11 22 3
  5 -1 15 -9 22 -12 10 -18 10 -30 0 -13 -10 -15 -9 -15 11 0 14 3 19 8 13 5 -8
  15 -8 31 -2 18 6 21 12 13 20 -6 6 -8 17 -5 26 4 10 2 13 -5 8 -8 -4 -18 8
  -28 33 -16 41 -28 47 -77 43 -11 -1 -21 6 -24 18 -3 11 -9 20 -14 20 -5 0 -9
  5 -9 11 0 6 7 9 15 6 16 -7 28 8 30 35 1 16 -6 21 -25 20 -3 0 -6 9 -6 21 -3
  31 -9 55 -17 63 -4 4 -7 16 -7 26 0 10 -4 18 -9 18 -5 0 -12 9 -16 20 -4 13
  -14 19 -28 17 -17 -2 -23 4 -25 26 -3 24 -8 27 -40 27 -41 1 -71 18 -65 38 3
  6 9 12 14 12 4 0 6 -7 3 -15 -7 -16 21 -22 30 -6 3 4 22 7 41 5 33 -2 35 0 29
  19 -7 24 -24 38 -36 31 -4 -3 -8 8 -8 24 0 26 -3 29 -23 25 -20 -5 -20 -4 -5
  8 15 12 15 18 4 51 -13 37 -13 38 9 32 16 -4 28 1 43 20 21 27 66 37 56 12 -7
  -20 24 -28 34 -9 5 9 12 11 15 6 9 -14 -23 -55 -38 -49 -22 8 -24 -40 -3 -58
  23 -20 32 -20 24 -1 -3 8 -1 15 4 15 5 0 6 8 3 17 -5 12 -2 15 10 10 9 -3 17
  -2 17 3 0 6 7 10 15 10 8 0 15 -4 15 -10 0 -5 5 -10 10 -10 6 0 10 7 10 15 0
  8 5 15 10 15 6 0 10 -7 10 -15 0 -9 11 -20 25 -25 15 -6 23 -15 19 -24 -3 -8
  -1 -17 5 -21 6 -3 11 1 11 9 0 13 3 13 28 1 15 -8 34 -13 43 -10 8 3 24 -1 34
  -9 16 -11 17 -18 9 -37 l-11 -24 -7 23 c-10 32 -23 27 -36 -13 -10 -29 -9 -38
  7 -59 18 -26 33 -33 33 -17 0 5 -6 11 -12 14 -23 8 -4 15 25 10 28 -6 38 -23
  12 -23 -8 0 -15 -5 -15 -11 0 -7 9 -9 22 -6 12 4 28 1 34 -4 22 -18 74 -22 80
  -6 3 9 14 12 31 9 18 -3 24 -1 19 7 -10 15 -53 14 -59 -1 -2 -7 -9 5 -15 26
  -17 58 18 95 38 42 10 -26 45 -51 59 -42 5 3 15 -1 22 -10 10 -13 10 -17 -1
  -24 -7 -4 -10 -15 -7 -23 9 -23 58 -13 83 17 15 17 25 22 30 15 7 -12 -20 -37
  -64 -60 -19 -11 -25 -9 -45 9 -13 12 -25 22 -28 22 -2 0 -4 -20 -5 -45 0 -25
  4 -45 8 -45 5 0 6 -4 3 -10 -10 -16 31 -12 45 5 6 8 8 19 4 26 -4 7 -2 10 5 8
  7 -3 12 -9 11 -14 -1 -5 15 -17 36 -28 36 -19 38 -19 51 -1 12 17 13 17 13 -4
  0 -12 -5 -22 -11 -22 -5 0 -8 -4 -4 -10 3 -6 15 -5 31 2 20 9 27 9 34 -1 4 -8
  13 -10 19 -7 6 4 11 0 11 -8 0 -10 9 -16 22 -16 21 0 21 0 2 -16 -18 -14 -18
  -15 5 -8 19 5 23 3 18 -10 -8 -21 48 -37 81 -23 28 13 30 37 2 30 -17 -5 -20
  0 -20 26 0 29 2 31 39 31 29 0 48 -7 67 -25 24 -22 25 -25 7 -25 -10 0 -25 -6
  -32 -12 -11 -10 -13 -10 -7 0 4 7 1 12 -8 12 -10 0 -16 -9 -16 -25 0 -30 26
  -34 47 -7 13 15 14 14 8 -11 -3 -18 -2 -26 4 -23 12 8 30 -24 24 -40 -2 -6 3
  -14 12 -18 11 -4 19 3 26 22 l11 27 13 -25 c7 -14 16 -24 19 -22 14 5 26 1 26
  -9 0 -13 20 -33 40 -42 8 -4 -1 -6 -20 -5 -19 1 -41 -1 -48 -6 -16 -10 -32 1
  -33 22 -1 10 -4 7 -8 -8 -4 -15 -3 -28 3 -32 16 -11 -6 -10 -23 1 -12 8 -12
  13 -3 24 21 24 -17 31 -48 9 -34 -26 -37 -48 -6 -56 15 -4 26 -13 26 -21 0
  -21 17 -19 42 5 27 25 38 25 45 2 2 -10 17 -26 33 -37 16 -11 26 -23 24 -27
  -3 -4 6 -8 20 -8 14 0 25 5 23 11 -1 6 5 14 13 16 13 4 13 3 1 -6 -12 -8 -10
  -12 12 -22 37 -17 34 -25 -12 -33 -22 -3 -41 -13 -45 -22 -5 -13 -2 -15 14
  -11 15 4 20 0 20 -14 0 -11 7 -19 16 -19 8 0 13 4 10 9 -3 5 1 11 8 14 11 4
  14 -1 13 -21 -2 -20 3 -27 16 -27 10 0 23 -8 28 -18 6 -9 16 -17 24 -17 8 0
  11 -7 8 -19 -8 -30 14 -34 33 -6 9 14 23 25 31 25 11 0 13 -3 5 -12 -17 -21
  -2 -64 28 -81 33 -20 51 -22 46 -4 -1 6 -1 9 1 5 3 -5 11 -8 19 -8 8 0 14 -7
  14 -15 0 -8 -4 -15 -9 -15 -5 0 -7 -9 -4 -20 3 -11 14 -20 24 -20 10 0 27 -9
  38 -21 15 -16 23 -19 38 -11 17 10 16 11 -7 21 -23 9 -23 10 -4 10 27 1 38
  -24 19 -43 -20 -20 -19 -29 4 -21 12 3 21 0 25 -10 3 -8 15 -15 26 -15 14 0
  20 -7 20 -23 0 -16 6 -23 20 -23 19 0 22 6 24 50 1 10 13 26 26 34 14 9 22 12
  18 7 -4 -4 -3 -14 3 -22 8 -9 8 -13 1 -13 -6 0 -9 -7 -6 -15 4 -11 0 -15 -16
  -15 -15 0 -20 -5 -18 -17 2 -10 11 -17 21 -17 13 1 14 -2 7 -16 -13 -24 -13
  -33 0 -25 6 3 10 0 10 -8 0 -8 14 -20 30 -26 17 -5 30 -17 30 -25 0 -8 6 -17
  13 -19 7 -3 4 -6 -7 -6 -11 -1 -16 -6 -13 -15 3 -7 0 -19 -6 -25 -8 -8 0 -11
  31 -11 23 0 42 -4 42 -9 0 -5 10 -11 21 -13 12 -2 29 -14 38 -28 13 -20 14
  -23 1 -16 -8 5 -23 16 -32 24 -16 14 -18 13 -19 -9 0 -13 -3 -18 -6 -11 -5 14
  -23 17 -23 4 0 -5 11 -14 25 -20 14 -6 25 -18 25 -27 0 -8 5 -15 10 -15 6 0
  10 5 10 10 0 6 7 10 16 10 13 0 14 -3 5 -14 -9 -11 -8 -15 5 -20 23 -9 25 -8
  22 12 -4 21 33 18 45 -4 5 -8 12 -12 18 -9 5 4 9 -1 9 -9 0 -23 -14 -27 -49
  -15 -18 6 -35 8 -39 5 -3 -4 4 -9 16 -13 19 -5 28 -26 23 -56 -2 -13 23 -42
  39 -46 8 -2 25 -3 38 -3 12 0 22 -7 22 -15 0 -10 -6 -12 -20 -8 -14 4 -20 2
  -20 -8 0 -8 10 -17 22 -20 19 -5 20 -8 7 -23 -14 -17 -14 -62 1 -78 5 -5 16
  -6 26 -2 16 6 16 7 -1 20 -17 12 -17 13 1 20 11 4 20 3 22 -4 3 -7 11 -5 23 6
  20 18 20 18 -3 31 -13 7 -17 12 -9 13 7 0 11 6 8 14 -8 19 15 27 30 11 6 -7
  10 -15 7 -18 -11 -10 -14 -56 -4 -62 17 -11 11 -27 -8 -21 -12 4 -27 -3 -42
  -19 l-24 -25 22 -16 c12 -8 22 -20 22 -25 0 -15 22 -35 47 -43 11 -4 23 -16
  26 -28 4 -14 11 -19 21 -15 20 8 20 6 1 -29 -9 -17 -11 -30 -5 -32 6 -2 10
  -10 10 -18 0 -8 7 -14 15 -14 8 0 15 -9 15 -20 0 -12 7 -20 16 -20 11 0 15 -6
  11 -20 -3 -11 -1 -20 4 -20 5 0 9 -9 9 -20 0 -10 9 -24 20 -30 11 -6 20 -20
  20 -30 0 -11 5 -20 10 -20 6 0 10 5 10 10 0 6 5 10 10 10 6 0 10 -7 10 -15 0
  -8 -5 -15 -11 -15 -5 0 0 -19 12 -42 37 -73 39 -77 39 -88 0 -6 8 -30 19 -53
  31 -72 34 -81 36 -112 1 -16 3 -32 4 -35 2 -3 5 -21 8 -40 5 -40 15 -49 48
  -42 17 3 25 -1 28 -14 3 -12 3 -11 2 3 -1 13 4 28 11 34 8 6 14 9 14 5 0 -3
  16 0 35 8 39 17 59 3 29 -19 -14 -10 -21 -10 -26 -2 -6 9 -10 8 -17 -2 -6 -10
  -4 -25 5 -44 9 -16 13 -31 10 -34 -3 -3 -8 2 -12 11 -3 9 -10 16 -15 16 -11 0
  -11 -31 0 -49 7 -10 12 -10 30 5 26 22 27 42 4 60 -17 13 -17 14 0 8 10 -4 17
  -1 17 6 0 10 3 10 15 0 9 -7 19 -10 22 -6 4 4 1 11 -6 15 -11 7 -11 13 3 32
  18 26 21 43 7 34 -17 -10 -67 29 -66 50 4 54 6 65 19 77 7 8 17 25 21 37 6 20
  4 23 -9 18 -14 -6 -21 10 -18 43 0 3 -15 4 -34 2 -31 -4 -36 0 -33 25 0 3 -6
  10 -15 15 -9 5 -16 20 -16 33 0 20 -5 25 -24 25 -14 0 -27 -4 -31 -10 -3 -5
  -12 -7 -20 -4 -16 7 -9 34 10 34 7 0 15 6 18 14 5 12 11 12 31 3 13 -6 22 -16
  19 -20 -3 -5 3 -7 13 -5 13 2 23 -5 31 -24 13 -30 40 -37 49 -13 8 20 -6 41
  -17 24 -9 -16 -14 -12 -23 19 -5 13 -3 22 3 22 6 0 11 9 11 20 0 14 -5 18 -17
  13 -11 -4 -14 -3 -9 5 4 7 2 12 -3 12 -6 0 -11 5 -11 10 0 6 12 10 26 10 14 0
  32 7 40 15 13 13 13 17 -5 37 -12 12 -21 18 -21 13 0 -4 -9 2 -19 14 -18 20
  -20 21 -29 5 -5 -10 -14 -14 -21 -9 -9 5 -7 11 6 20 17 13 17 14 -1 21 -13 5
  -23 2 -31 -9 -19 -26 -23 -21 -22 26 0 23 2 34 4 25 5 -20 18 -23 29 -7 8 14
  -47 71 -63 65 -20 -8 -63 12 -63 29 0 8 -7 15 -15 15 -8 0 -15 4 -15 9 0 18
  74 4 88 -17 13 -19 48 -20 36 -1 -3 5 -2 9 3 9 4 0 9 11 9 25 1 15 -2 22 -9
  18 -6 -4 -8 0 -4 10 3 10 2 17 -2 17 -5 0 -7 9 -4 20 6 24 -3 26 -25 4 -13
  -14 -17 -14 -26 -2 -6 8 -32 20 -58 27 -63 18 -76 34 -45 54 19 12 27 13 36 4
  8 -8 14 -8 19 -2 4 6 13 10 21 10 23 0 24 23 1 30 -11 4 -17 11 -14 17 5 7 0
  9 -14 6 -13 -4 -23 0 -26 9 -3 7 -11 13 -18 12 -32 -4 -42 1 -30 13 19 19 14
  26 -13 20 -26 -5 -48 24 -27 37 6 4 7 12 3 20 -6 10 -11 9 -24 -3 -18 -19 -28
  -20 -25 -4 4 16 -70 34 -84 20 -7 -7 -19 -4 -39 11 -33 24 -24 37 25 37 16 0
  37 7 46 15 14 13 21 13 55 -5 30 -15 41 -17 53 -8 9 8 10 14 3 16 -6 2 -9 8
  -5 13 3 5 -4 9 -15 9 -17 0 -19 5 -14 35 6 38 -11 50 -22 15 -9 -27 -22 -25
  -27 5 -5 26 6 35 15 13 4 -8 6 -7 6 3 1 9 -8 19 -19 22 -17 4 -22 -1 -27 -25
  -4 -20 -8 -25 -14 -17 -4 7 -5 26 -2 41 5 23 3 27 -11 22 -11 -4 -16 -1 -16
  10 0 8 -9 20 -20 26 -10 6 -17 17 -14 24 3 8 0 17 -6 21 -8 5 -8 11 1 21 6 8
  10 15 8 15 -2 1 -13 3 -24 5 -11 2 -35 7 -54 10 -18 4 -42 15 -52 25 -16 16
  -17 22 -7 39 7 11 17 20 22 20 4 0 3 7 -4 15 -15 18 -28 11 -41 -22 -5 -14
  -12 -23 -16 -19 -3 3 -14 -1 -24 -10 -25 -22 -36 -11 -32 33 3 41 -8 53 -49
  53 -19 0 -28 5 -28 16 0 8 -4 13 -9 10 -18 -12 -22 28 -4 42 10 7 16 14 14 15
  -11 6 12 45 24 41 7 -3 19 4 25 16 6 12 17 19 25 16 7 -2 15 -2 18 1 7 7 -47
  53 -62 53 -6 0 -11 4 -11 10 0 5 -11 9 -25 8 -16 -2 -24 -7 -21 -15 3 -7 1
  -13 -4 -13 -5 0 -2 -12 6 -27 19 -38 18 -40 -18 -38 -18 1 -43 -1 -54 -6 -18
  -6 -23 -3 -27 13 -4 15 -11 19 -26 15 -31 -8 -26 6 18 52 28 30 41 37 50 28 6
  -6 11 -17 11 -24 0 -7 7 -13 15 -13 10 0 15 10 15 29 0 16 6 31 13 34 7 2 8 8
  3 13 -5 5 -11 4 -13 -3 -6 -18 -32 -16 -39 2 -4 8 -15 15 -26 15 -11 0 -16 4
  -12 11 3 6 0 15 -7 20 -19 12 -29 11 -29 -1 0 -5 5 -9 11 -7 14 3 20 -42 8
  -63 -7 -13 -8 -13 -9 0 0 12 -2 12 -9 2 -4 -8 -19 -12 -32 -10 -20 2 -25 10
  -29 43 -5 34 -7 37 -13 18 -5 -13 -5 -27 -2 -33 3 -5 1 -10 -4 -10 -6 0 -11
  -8 -11 -17 0 -15 -2 -14 -14 3 -13 16 -13 19 0 22 8 2 14 12 14 23 0 11 7 33
  15 50 16 30 12 54 -9 46 -6 -3 -17 2 -24 9 -20 22 20 18 46 -4 16 -14 18 -22
  10 -30 -9 -9 -9 -12 0 -12 7 0 21 9 31 19 12 12 27 17 40 14 15 -4 20 -2 16 8
  -7 19 -53 39 -71 32 -9 -3 -26 0 -39 7 -20 11 -26 10 -40 -4 -9 -9 -24 -16
  -33 -15 -11 0 -12 2 -4 6 6 2 12 16 12 29 0 14 4 33 10 43 7 14 5 23 -10 36
  -10 9 -23 14 -29 11 -5 -4 -12 -2 -16 4 -9 14 -21 12 -39 -6 -25 -25 -20 -47
  9 -42 30 6 40 -5 27 -28 -10 -18 -62 -29 -62 -13 0 5 -9 9 -20 9 -11 0 -20 4
  -20 10 0 5 -6 7 -14 4 -18 -7 -27 42 -11 56 9 8 15 7 18 -2 4 -10 9 -8 17 5 6
  9 16 15 22 11 7 -4 8 5 3 27 -8 35 -30 62 -55 67 -8 2 -20 9 -25 16 -6 8 -19
  15 -30 17 -11 3 -20 12 -20 21 0 10 -5 22 -11 28 -8 8 -10 4 -10 -12 1 -13 6
  -26 11 -30 6 -4 2 -8 -8 -8 -11 0 -21 9 -24 21 -4 13 -11 18 -21 14 -12 -4
  -12 -3 -3 9 22 26 3 44 -42 40 -39 -4 -40 -3 -17 8 25 11 25 11 3 15 -13 3
  -23 9 -23 15 0 6 -6 6 -15 -2 -13 -11 -14 -10 -9 5 6 15 3 16 -26 10 -30 -7
  -75 7 -91 27 -3 5 -17 9 -32 10 -30 3 -33 8 -15 26 18 18 12 22 -73 36 -61 10
  -93 22 -97 35 -3 8 0 11 7 7 6 -4 11 -2 11 3 0 6 7 11 15 11 18 0 30 24 20 40
  -5 8 -12 7 -24 -4 -15 -14 -20 -14 -37 -2 -24 18 -44 3 -44 -33 l1 -26 21 25
  c11 14 18 18 14 10 -3 -8 -9 -23 -12 -32 -7 -21 -18 -23 -32 -5 -11 13 -4 67
  9 67 5 0 6 7 3 15 -4 10 -14 13 -30 9 -30 -8 -31 2 -1 27 17 14 18 18 6 19
  -15 0 -67 -47 -61 -56 1 -2 2 -7 2 -11 0 -18 -26 44 -27 65 -1 18 3 22 28 22
  16 0 29 5 29 10 0 6 -7 10 -15 10 -9 0 -18 7 -22 16 -3 8 -12 13 -19 10 -8 -3
  -14 -1 -14 5 0 6 -10 10 -22 9 -47 -4 -67 0 -63 13 6 15 -41 38 -61 30 -9 -3
  -14 2 -14 14 0 11 -8 19 -19 20 -33 3 -73 34 -61 48 7 9 6 16 -5 25 -19 16
  -40 8 -40 -15 0 -10 -8 -19 -20 -21 -11 -2 -26 -12 -34 -23 -16 -24 -33 -28
  -25 -6 8 20 -5 19 -28 -2 -18 -16 -18 -16 -12 2 6 15 4 17 -9 12 -23 -9 -21 9
  4 34 13 13 27 18 40 14 14 -5 21 0 28 17 5 13 7 26 4 30 -2 4 3 21 12 38 16
  30 15 32 -4 37 -12 3 -21 11 -21 19 0 7 -10 20 -22 29 -22 15 -22 16 19 13 24
  -2 43 -6 43 -10 0 -5 16 -5 36 -2 31 5 36 3 30 -11 -11 -29 26 -52 101 -61 20
  -3 40 -7 45 -10 5 -3 18 2 29 12 17 16 19 16 19 1 0 -10 6 -18 13 -19 22 -2
  32 -5 57 -15 22 -9 26 -8 33 13 9 26 38 22 36 -5 0 -10 -2 -11 -6 -3 -6 16
  -23 16 -23 -1 0 -10 21 -13 84 -13 57 1 82 5 79 12 -2 6 3 14 13 18 12 4 15 2
  10 -9 -7 -19 1 -19 20 0 12 12 12 15 2 15 -10 0 -9 3 2 10 11 7 19 5 28 -7 6
  -9 12 -12 12 -7 0 5 14 15 30 21 20 8 30 8 30 1 0 -6 6 -5 15 2 9 7 18 10 22
  6 3 -3 1 -6 -6 -6 -7 0 -9 -5 -6 -10 5 -8 11 -7 21 1 11 9 14 8 14 -9 0 -14 8
  -21 28 -24 27 -4 52 11 52 29 0 5 19 8 43 7 23 0 47 2 52 5 19 11 63 6 58 -6
  -4 -9 3 -10 26 -3 17 4 35 11 41 15 6 4 29 8 50 10 22 2 44 6 51 10 6 4 15 2
  19 -5 4 -6 23 -14 43 -17 29 -4 38 0 47 17 10 20 10 21 -8 16 -12 -4 -24 -2
  -28 5 -5 8 -3 9 5 5 7 -5 20 -1 31 9 15 13 16 22 9 48 -7 26 -6 34 8 45 9 6
  25 12 35 12 15 0 16 4 8 26 -7 16 -7 23 0 19 13 -8 44 16 48 36 1 9 -4 19 -13
  22 -9 4 -12 13 -8 24 6 16 5 16 -11 4 -15 -13 -19 -13 -27 0 -5 8 -9 24 -9 37
  0 13 -4 20 -10 17 -13 -8 -13 -2 2 30 13 29 23 32 37 8 6 -10 11 -13 11 -6 0
  6 8 14 18 16 16 4 16 5 0 6 -11 1 -18 9 -18 22 0 14 -5 19 -15 16 -8 -4 -17
  -2 -20 3 -3 5 -15 6 -28 1 -12 -4 -27 -6 -33 -4 -15 5 -38 -23 -25 -31 5 -3
  22 -1 37 4 31 12 48 3 22 -11 -10 -5 -15 -15 -12 -23 3 -7 -2 -19 -11 -26 -12
  -10 -15 -10 -15 4 0 17 -39 19 -52 2 -3 -5 -14 -2 -23 7 -9 10 -13 17 -9 17 5
  0 3 5 -4 12 -13 13 -16 29 -4 27 24 -4 43 3 40 14 -7 20 -50 17 -55 -4z m-37
  -120 c3 -5 -3 -9 -13 -9 -11 0 -24 -5 -30 -11 -7 -7 -12 -4 -16 10 -3 12 -1
  19 4 15 5 -3 9 -1 9 4 0 12 38 4 46 -9z m184 -10 c0 -4 -7 -6 -15 -3 -8 4 -15
  10 -15 15 0 4 7 6 15 3 8 -4 15 -10 15 -15z m-510 -24 c0 -8 -4 -15 -10 -15
  -5 0 -7 7 -4 15 4 8 8 15 10 15 2 0 4 -7 4 -15z m-29 -42 c1 -10 1 -21 0 -25
  0 -5 10 -8 24 -8 14 0 25 -5 25 -11 0 -6 -7 -9 -15 -5 -9 3 -20 -4 -28 -20
  -12 -23 -15 -24 -26 -10 -8 9 -21 16 -30 16 -24 0 -41 20 -41 48 0 21 4 24 25
  20 14 -3 25 -1 25 3 0 18 40 9 41 -8z m-101 3 c0 -3 -4 -8 -10 -11 -5 -3 -10
  -1 -10 4 0 6 5 11 10 11 6 0 10 -2 10 -4z m-380 -31 c0 -8 -7 -15 -16 -15 -14
  0 -14 3 -4 15 7 8 14 15 16 15 2 0 4 -7 4 -15z m896 -31 c-8 -22 -46 -18 -46
  5 0 11 5 23 10 26 6 3 10 -3 10 -15 0 -12 4 -18 11 -15 6 4 8 13 5 20 -2 7 -2
  16 2 20 9 9 15 -22 8 -41z m-666 5 c0 -5 -5 -7 -10 -4 -6 4 -17 1 -25 -5 -15
  -13 -39 -4 -30 11 8 13 65 11 65 -2z m-1130 -45 c0 -8 -4 -12 -10 -9 -5 3 -10
  10 -10 16 0 5 5 9 10 9 6 0 10 -7 10 -16z m35 -4 c3 -5 1 -10 -4 -10 -6 0 -11
  5 -11 10 0 6 2 10 4 10 3 0 8 -4 11 -10z m1425 -3 c-9 -7 -14 -20 -12 -30 3
  -16 1 -17 -17 -8 -20 11 -20 12 -3 30 9 11 24 20 32 20 13 0 13 -1 0 -12z
  m-510 -17 c0 -5 -5 -10 -11 -10 -5 0 -7 5 -4 10 3 6 8 10 11 10 2 0 4 -4 4
  -10z m681 -48 c-6 -2 -11 -12 -11 -23 0 -10 -4 -19 -10 -19 -13 0 -13 37 0 45
  6 4 8 11 5 16 -4 5 -3 14 1 21 5 7 10 3 16 -13 6 -15 5 -25 -1 -27z m46 26
  c-3 -8 -6 -5 -6 6 -1 11 2 17 5 13 3 -3 4 -12 1 -19z m-1237 1 c0 -6 9 -8 20
  -4 15 5 18 3 14 -9 -5 -12 -2 -15 10 -10 12 5 15 2 9 -12 -5 -13 -3 -16 10
  -11 9 3 17 2 17 -3 0 -5 9 -12 20 -15 11 -3 20 -11 20 -16 0 -14 -28 -11 -33
  4 -3 8 -13 4 -31 -13 -18 -16 -25 -19 -21 -8 4 9 2 19 -3 22 -6 3 -8 15 -5 26
  4 14 -2 23 -21 31 -26 12 -35 29 -16 29 6 0 10 -5 10 -11z m700 1 c0 -5 -4
  -10 -10 -10 -5 0 -10 5 -10 10 0 6 5 10 10 10 6 0 10 -4 10 -10z m-202 -40 c1
  -8 -7 -21 -18 -28 -18 -11 -20 -10 -20 19 0 24 4 30 17 27 10 -2 19 -10 21
  -18z m200 11 c10 -6 10 -10 -2 -20 -12 -10 -19 -10 -36 2 -22 16 -21 17 20 26
  3 0 11 -3 18 -8z m552 -1 c0 -5 -8 -10 -17 -10 -15 0 -16 2 -3 10 19 12 20 12
  20 0z m-1263 -30 c-1 -16 -6 -30 -11 -30 -4 0 -6 11 -4 25 3 13 0 26 -6 29 -6
  2 -3 5 6 5 13 1 17 -6 15 -29z m-335 5 c3 3 3 -6 0 -20 l-4 -26 -14 27 c-18
  33 -18 39 -1 25 8 -6 16 -8 19 -6z m1348 -34 c0 -11 -5 -9 -21 7 -11 12 -17
  27 -13 34 8 13 34 -17 34 -41z m-1188 7 c-7 -7 -12 -8 -12 -2 0 14 12 26 19
  19 2 -3 -1 -11 -7 -17z m1238 12 c0 -5 -9 -10 -20 -10 -11 0 -20 5 -20 10 0 6
  9 10 20 10 11 0 20 -4 20 -10z m-1157 -17 c-7 -2 -19 -2 -25 0 -7 3 -2 5 12 5
  14 0 19 -2 13 -5z m614 -15 c-3 -8 -6 -5 -6 6 -1 11 2 17 5 13 3 -3 4 -12 1
  -19z m-487 -2 c0 -8 -4 -17 -9 -20 -10 -7 -23 19 -14 28 11 11 23 6 23 -8z
  m-150 -6 c0 -5 -5 -10 -11 -10 -5 0 -7 5 -4 10 3 6 8 10 11 10 2 0 4 -4 4 -10z
  m267 -21 c-6 -10 -14 -16 -18 -13 -13 8 -31 -25 -24 -46 4 -14 -1 -30 -19 -51
  -14 -17 -26 -35 -26 -40 0 -5 -5 -9 -10 -9 -7 0 -7 6 0 19 14 27 13 41 -4 35
  -8 -3 -17 -1 -21 5 -3 6 -1 11 5 11 6 0 8 5 4 11 -5 8 -10 6 -16 -5 -9 -16
  -49 -23 -47 -8 4 26 -3 62 -11 57 -6 -3 -7 1 -3 10 4 12 8 13 13 5 4 -7 13
  -10 19 -6 7 5 9 1 5 -8 -4 -10 -1 -16 9 -16 8 0 18 7 21 16 4 9 13 14 21 10 9
  -3 18 1 22 10 7 18 39 33 69 31 18 -1 20 -4 11 -18z m-532 -9 c3 -5 -1 -10
  -10 -10 -12 0 -14 -4 -6 -19 9 -16 6 -20 -14 -24 -14 -2 -28 0 -31 4 -3 5 0 9
  6 9 6 0 15 11 20 25 10 26 24 32 35 15z m-235 -10 c0 -5 -5 -10 -11 -10 -5 0
  -7 5 -4 10 3 6 8 10 11 10 2 0 4 -4 4 -10z m112 -32 c-7 -7 -12 -8 -12 -2 0
  14 12 26 19 19 2 -3 -1 -11 -7 -17z m326 -6 c12 -7 20 -18 16 -24 -5 -7 -13
  -4 -25 10 -22 28 -29 28 -29 -2 0 -13 7 -27 16 -30 11 -4 14 -13 10 -31 -6
  -23 1 -30 27 -26 4 0 7 -6 7 -14 0 -13 -9 -15 -42 -11 -24 3 -44 5 -46 5 -2 1
  0 10 3 21 4 12 2 20 -5 20 -7 0 -5 6 4 16 22 22 20 30 -13 50 -17 10 -28 20
  -26 23 6 11 80 6 103 -7z m-81 -54 c-3 -8 -6 -5 -6 6 -1 11 2 17 5 13 3 -3 4
  -12 1 -19z m483 -43 c0 -20 19 -19 43 3 15 12 21 14 24 5 3 -7 11 -13 18 -13
  8 0 23 -14 35 -30 20 -29 20 -30 3 -37 -10 -4 -21 -11 -25 -17 -5 -7 -8 -7 -8
  2 0 10 -6 9 -27 -2 -23 -11 -30 -12 -40 0 -8 8 -9 15 -3 19 18 11 11 31 -15
  45 -25 13 -35 40 -15 40 6 0 10 -7 10 -15z m-226 -34 c-2 -2 -11 -1 -20 3 -14
  5 -14 9 -3 22 12 14 14 14 20 -3 3 -10 5 -20 3 -22z m161 29 c3 -5 1 -10 -4
  -10 -6 0 -11 5 -11 10 0 6 2 10 4 10 3 0 8 -4 11 -10z m42 -42 c-3 -8 -6 -5
  -6 6 -1 11 2 17 5 13 3 -3 4 -12 1 -19z m-86 -31 c-10 -9 -11 -8 -5 6 3 10 9
  15 12 12 3 -3 0 -11 -7 -18z m-329 -19 c-10 -10 -8 -16 10 -30 l23 -18 -35 6
  c-35 7 -66 24 -41 24 7 0 19 7 27 15 9 8 18 15 22 15 3 0 0 -6 -6 -12z m415
  -80 c-3 -7 -5 -2 -5 12 0 14 2 19 5 13 2 -7 2 -19 0 -25z m213 11 c0 -5 -7 -9
  -15 -9 -8 0 -15 -4 -15 -10 0 -5 -5 -10 -12 -10 -6 0 -8 3 -5 7 4 3 1 13 -6
  21 -10 13 -9 15 5 9 10 -3 20 -2 23 4 7 11 25 3 25 -12z m-79 -129 c4 0 2 -11
  -4 -25 -18 -37 -26 -30 -21 16 4 32 2 40 -8 37 -7 -3 -19 1 -26 8 -11 12 -9
  16 10 23 20 8 24 5 32 -25 5 -19 13 -34 17 -34z m126 5 c0 -8 -9 -15 -19 -15
  -23 0 -24 17 0 23 9 3 17 5 18 6 0 0 1 -6 1 -14z m167 -10 c3 -8 1 -15 -4 -15
  -6 0 -10 7 -10 15 0 8 2 15 4 15 2 0 6 -7 10 -15z m142 -77 c5 -7 8 -24 8 -37
  0 -19 -7 -27 -28 -32 -28 -8 -28 -7 -21 29 10 54 24 68 41 40z m-130 -39 c1
  -13 0 -18 -2 -11 -7 16 -24 15 -24 -2 0 -14 -21 -26 -45 -26 -7 0 -12 11 -12
  25 0 13 3 22 8 19 5 -3 12 2 15 11 10 25 57 14 60 -16z m49 1 c3 -6 -1 -7 -9
  -4 -18 7 -21 14 -7 14 6 0 13 -4 16 -10z m-803 -32 c-7 -7 -12 -8 -12 -2 0 14
  12 26 19 19 2 -3 -1 -11 -7 -17z m848 -38 c0 -5 -2 -10 -4 -10 -3 0 -8 5 -11
  10 -3 6 -1 10 4 10 6 0 11 -4 11 -10z m236 -67 c-10 -10 -19 5 -10 18 6 11 8
  11 12 0 2 -7 1 -15 -2 -18z m-981 -23 c-3 -5 -15 -10 -25 -10 -10 0 -22 5 -25
  10 -4 6 7 10 25 10 18 0 29 -4 25 -10z m1178 -15 c27 -1 53 -8 57 -15 5 -9 9
  -9 14 -1 10 15 44 14 60 -1 20 -21 27 -48 10 -41 -7 3 -14 0 -14 -7 0 -9 -4
  -9 -13 -2 -17 14 -42 -2 -34 -22 3 -8 2 -18 -4 -21 -5 -4 -7 -11 -4 -16 9 -13
  -2 -11 -36 6 -16 9 -34 13 -39 10 -6 -3 -10 1 -10 10 0 9 3 14 8 12 4 -2 21 2
  37 9 26 11 27 13 8 14 -12 0 -25 5 -28 11 -5 7 -13 5 -24 -5 -10 -9 -21 -13
  -25 -9 -7 7 -34 12 -78 14 -10 0 -18 6 -18 12 0 21 17 40 29 33 7 -5 11 1 11
  14 0 18 3 19 21 9 12 -6 44 -12 72 -14z m-146 -5 c1 -16 -3 -20 -16 -15 -12 3
  -21 0 -25 -10 -3 -8 -10 -15 -16 -15 -19 0 -10 15 23 37 17 12 32 22 32 22 1
  1 1 -8 2 -19z m-1092 -51 c-4 -5 -13 -9 -22 -9 -13 0 -13 3 -3 15 13 15 35 11
  25 -6z m80 -49 c3 -5 1 -10 -4 -10 -6 0 -11 5 -11 10 0 6 2 10 4 10 3 0 8 -4
  11 -10z m-50 -11 c-4 -6 2 -13 14 -16 28 -7 17 -21 -13 -16 -17 4 -22 10 -19
  24 3 10 10 19 15 19 5 0 6 -5 3 -11z m86 -12 c-13 -13 -26 -3 -16 12 3 6 11 8
  17 5 6 -4 6 -10 -1 -17z m4 -27 c-3 -5 -10 -10 -16 -10 -5 0 -9 5 -9 10 0 6 7
  10 16 10 8 0 12 -4 9 -10z m1115 -9 c0 -29 -11 -52 -22 -45 -5 3 -4 11 3 20 6
  7 9 21 5 29 -3 8 -1 15 4 15 6 0 10 -9 10 -19z m-1135 -33 c-19 -11 -30 -5
  -21 11 4 6 14 7 22 4 15 -5 14 -7 -1 -15z m1065 -28 c0 -5 -5 -10 -11 -10 -5
  0 -7 5 -4 10 3 6 8 10 11 10 2 0 4 -4 4 -10z m223 -28 c-13 -13 -19 -14 -21
  -5 -4 16 -34 17 -50 1 -8 -8 -12 -9 -12 -1 0 15 17 21 63 22 35 1 36 0 20 -17z
  m74 11 c-4 -3 1 -12 11 -20 12 -10 14 -16 5 -19 -28 -12 -10 -24 35 -24 41 -1
  45 -2 30 -14 -10 -7 -18 -19 -18 -25 0 -7 -4 -10 -9 -7 -11 7 -41 -37 -41 -59
  0 -14 -3 -13 -26 1 -21 14 -27 15 -34 4 -5 -8 -14 -10 -26 -5 -11 5 -23 7 -28
  6 -4 -1 -14 3 -22 10 -8 6 -20 9 -28 6 -8 -3 -22 1 -33 9 -17 14 -15 14 15 9
  20 -4 32 -3 32 4 0 6 -11 11 -25 11 -14 0 -25 6 -25 13 0 9 11 12 36 9 28 -4
  35 -8 31 -22 -3 -12 4 -22 20 -29 20 -9 28 -8 45 9 26 24 34 25 42 3 6 -15 8
  -15 24 0 21 22 5 52 -27 51 -11 0 -21 5 -21 13 0 7 7 13 15 13 8 0 15 4 15 9
  0 10 -19 9 -37 -2 -9 -5 -9 0 0 23 7 19 18 30 31 30 11 0 16 -3 13 -7z m-1287
  -29 c0 -2 -12 -4 -26 -4 -14 0 -23 4 -20 9 6 8 46 4 46 -5z m54 -2 c2 -4 -4
  -8 -14 -9 -11 -1 -22 2 -25 8 -4 5 3 9 14 9 11 0 22 -4 25 -8z m-58 -39 c-10
  -10 -19 5 -10 18 6 11 8 11 12 0 2 -7 1 -15 -2 -18z m-66 7 c0 -5 -4 -10 -9
  -10 -6 0 -13 5 -16 10 -3 6 1 10 9 10 9 0 16 -4 16 -10z m125 0 c3 -6 -4 -10
  -17 -10 -18 0 -20 2 -8 10 19 12 18 12 25 0z m1035 -30 c0 -5 -5 -10 -11 -10
  -5 0 -7 5 -4 10 3 6 8 10 11 10 2 0 4 -4 4 -10z m-1190 -20 c0 -5 -5 -10 -11
  -10 -5 0 -7 5 -4 10 3 6 8 10 11 10 2 0 4 -4 4 -10z m87 -66 c11 -10 10 -16
  -4 -30 -17 -17 -18 -16 -23 12 -3 16 -10 28 -15 26 -5 -2 -11 2 -13 8 -5 15
  36 3 55 -16z m1455 4 c-7 -7 -12 -20 -12 -29 0 -10 -9 -21 -20 -24 -11 -3 -20
  -12 -20 -20 0 -8 -7 -11 -19 -8 -13 3 -20 16 -23 37 -4 34 0 37 54 37 15 0 30
  4 33 9 4 6 9 10 13 10 3 0 1 -5 -6 -12z m-188 -17 c3 -5 -1 -11 -9 -14 -9 -4
  -12 -1 -8 9 6 16 10 17 17 5z m416 -21 c0 -5 -6 -10 -14 -10 -8 0 -18 5 -21
  10 -3 6 3 10 14 10 12 0 21 -4 21 -10z m-179 -98 c-6 -2 -11 -15 -11 -28 0
  -13 -4 -24 -9 -24 -13 0 -11 72 2 88 9 11 13 9 19 -9 6 -15 5 -25 -1 -27z
  m-74 -34 c-3 -8 -6 -5 -6 6 -1 11 2 17 5 13 3 -3 4 -12 1 -19z m-1276 -21
  c-10 -9 -11 -8 -5 6 3 10 9 15 12 12 3 -3 0 -11 -7 -18z m1759 -187 c0 -5 -4
  -10 -10 -10 -5 0 -10 5 -10 10 0 6 5 10 10 10 6 0 10 -4 10 -10z m-84 -27
  c-10 -10 -19 5 -10 18 6 11 8 11 12 0 2 -7 1 -15 -2 -18z m-9 -48 c-16 -17
  -17 -14 -10 14 4 15 8 19 13 10 5 -6 3 -18 -3 -24z m91 -66 c18 -6 30 -15 26
  -20 -10 -16 -64 2 -64 22 0 11 0 11 38 -2z m-18 -40 c0 -5 7 -9 15 -9 8 0 15
  -7 15 -16 0 -9 -5 -13 -12 -10 -7 3 -21 9 -30 12 -10 4 -18 15 -18 25 0 12 5
  16 15 13 8 -4 15 -10 15 -15z m130 -19 c0 -5 -4 -10 -10 -10 -5 0 -10 5 -10
  10 0 6 5 10 10 10 6 0 10 -4 10 -10z m-120 -44 c0 -3 -4 -8 -10 -11 -5 -3 -10
  -1 -10 4 0 6 5 11 10 11 6 0 10 -2 10 -4z m198 -159 c5 7 13 3 23 -11 16 -21
  16 -21 -10 -20 -14 1 -28 3 -31 5 -8 4 -24 7 -42 8 -10 0 -18 5 -18 10 0 14
  43 19 58 7 9 -6 16 -6 20 1z m0 -129 c-2 -13 -12 -22 -25 -24 -29 -5 -39 13
  -13 21 11 3 20 11 20 16 0 5 5 9 11 9 6 0 9 -10 7 -22z m92 -79 c0 -6 -4 -7
  -10 -4 -5 3 -10 11 -10 16 0 6 5 7 10 4 6 -3 10 -11 10 -16z m154 -130 c-8
  -13 -24 -1 -24 18 0 13 3 13 15 3 8 -7 12 -16 9 -21z m-128 -64 c4 -8 10 -12
  15 -9 5 3 9 0 9 -5 0 -10 -5 -12 -42 -15 -6 -1 -12 9 -13 22 -2 25 22 31 31 7z
  m77 -38 c-6 -37 -16 -46 -29 -26 -3 6 -2 14 3 18 6 3 14 16 18 29 10 34 15 22
  8 -21z m171 -35 c2 -4 -4 -8 -14 -8 -10 0 -16 4 -14 8 3 4 9 8 14 8 5 0 11 -4
  14 -8z m-74 -53 c0 -6 -7 -8 -16 -5 -9 3 -20 6 -25 6 -4 0 -6 7 -3 15 5 11 11
  12 25 4 10 -5 19 -15 19 -20z m-88 -62 c-5 -21 -5 -21 -15 1 -6 12 -19 22 -31
  22 -16 0 -18 2 -7 9 23 15 60 -7 53 -32z m98 -187 c8 -5 11 -10 5 -10 -5 0
  -17 5 -25 10 -8 5 -10 10 -5 10 6 0 17 -5 25 -10z m70 -94 c0 -3 -4 -8 -10
  -11 -5 -3 -10 -1 -10 4 0 6 5 11 10 11 6 0 10 -2 10 -4z m-1 -97 c-25 -16 -32
  -9 -13 12 12 13 20 16 22 9 3 -7 -2 -16 -9 -21z"/>
  <path d="M2312 3939 c2 -6 8 -10 13 -10 5 0 11 4 13 10 2 6 -4 11 -13 11 -9 0
  -15 -5 -13 -11z"/>
  <path d="M2446 4102 c-2 -4 -1 -14 3 -21 6 -9 10 -7 14 8 5 20 -7 29 -17 13z"/>
  <path d="M2290 4070 c0 -5 5 -10 10 -10 6 0 10 5 10 10 0 6 -4 10 -10 10 -5 0
  -10 -4 -10 -10z"/>
  <path d="M2233 4050 c-1 -11 2 -20 8 -20 5 0 9 9 9 20 0 11 -4 20 -8 20 -4 0
  -8 -9 -9 -20z"/>
  <path d="M2170 4019 c0 -5 5 -7 10 -4 6 3 10 8 10 11 0 2 -4 4 -10 4 -5 0 -10
  -5 -10 -11z"/>
  <path d="M816 3842 c-3 -5 1 -15 9 -22 16 -14 20 -3 6 19 -5 8 -11 9 -15 3z"/>
  <path d="M790 3810 c0 -5 5 -10 10 -10 6 0 10 5 10 10 0 6 -4 10 -10 10 -5 0
  -10 -4 -10 -10z"/>
  <path d="M2930 3770 c0 -5 5 -10 11 -10 5 0 7 5 4 10 -3 6 -8 10 -11 10 -2 0
  -4 -4 -4 -10z"/>
  <path d="M1668 3753 c-9 -2 -19 -16 -23 -31 -3 -15 -8 -35 -11 -44 -3 -10 0
  -18 6 -18 6 0 8 5 5 10 -3 6 0 10 9 10 8 0 20 16 26 36 13 39 12 42 -12 37z"/>
  <path d="M1705 3706 c-18 -13 -18 -14 3 -25 13 -7 22 -8 22 -2 0 5 3 16 6 25
  8 20 -6 21 -31 2z"/>
  <path d="M760 3620 c-12 -8 -10 -10 8 -10 13 0 20 4 17 10 -7 12 -6 12 -25 0z"/>
  <path d="M1620 3621 c0 -6 5 -13 10 -16 6 -3 10 1 10 9 0 9 -4 16 -10 16 -5 0
  -10 -4 -10 -9z"/>
  <path d="M870 3540 c0 -5 4 -10 9 -10 6 0 13 5 16 10 3 6 -1 10 -9 10 -9 0
  -16 -4 -16 -10z"/>
  <path d="M824 3508 c8 -38 13 -45 27 -31 7 7 6 18 -2 36 -17 37 -33 34 -25 -5z"/>
  <path d="M1330 3429 c0 -5 5 -7 10 -4 6 3 10 8 10 11 0 2 -4 4 -10 4 -5 0 -10
  -5 -10 -11z"/>
  <path d="M1465 3370 c-4 -6 -16 -10 -26 -7 -22 6 -33 -7 -22 -26 6 -10 14 -10
  40 3 23 11 30 19 24 29 -6 10 -10 10 -16 1z"/>
  <path d="M965 3349 c-11 -4 -16 -8 -11 -8 5 -1 3 -8 -4 -16 -19 -23 -6 -28 20
  -7 27 22 24 43 -5 31z"/>
  <path d="M1446 3314 c-9 -22 3 -32 14 -14 12 19 12 30 1 30 -5 0 -12 -7 -15
  -16z"/>
  <path d="M1540 3309 c0 -7 -10 -9 -25 -5 -23 6 -33 -3 -19 -17 8 -8 64 13 64
  24 0 5 -4 9 -10 9 -5 0 -10 -5 -10 -11z"/>
  <path d="M1000 3301 c0 -6 -6 -8 -14 -5 -22 9 -29 -15 -12 -41 12 -19 13 -25
  4 -25 -9 0 -8 -3 2 -10 11 -7 23 -1 48 25 36 38 41 50 13 35 -27 -14 -34 -13
  -28 5 4 8 2 17 -3 20 -6 4 -10 2 -10 -4z"/>
  <path d="M1080 3291 c0 -5 9 -7 20 -4 11 3 20 7 20 9 0 2 -9 4 -20 4 -11 0
  -20 -4 -20 -9z"/>
  <path d="M2310 3219 c0 -5 5 -7 10 -4 6 3 10 8 10 11 0 2 -4 4 -10 4 -5 0 -10
  -5 -10 -11z"/>
  <path d="M1990 2970 c-11 -7 -9 -11 13 -19 35 -13 37 -13 37 -1 0 6 -7 10 -16
  10 -8 0 -12 5 -9 10 8 12 -5 13 -25 0z"/>
  <path d="M1460 2950 c0 -5 5 -10 10 -10 6 0 10 5 10 10 0 6 -4 10 -10 10 -5 0
  -10 -4 -10 -10z"/>
  <path d="M1447 2913 c-4 -3 -7 -11 -7 -17 0 -6 5 -5 12 2 6 6 9 14 7 17 -3 3
  -9 2 -12 -2z"/>
  <path d="M2293 2879 c2 -8 10 -13 16 -11 6 1 11 -3 11 -10 0 -9 3 -9 12 0 14
  14 11 17 -21 27 -17 5 -22 4 -18 -6z"/>
  <path d="M2210 2847 c0 -20 5 -24 35 -25 37 -1 44 10 21 34 -24 23 -56 18 -56
  -9z"/>
  <path d="M3061 2694 c0 -11 3 -14 6 -6 3 7 2 16 -1 19 -3 4 -6 -2 -5 -13z"/>
  <path d="M2960 2626 c0 -14 5 -26 10 -26 6 0 10 9 10 19 0 11 -4 23 -10 26 -6
  4 -10 -5 -10 -19z"/>
  <path d="M3093 2643 c-7 -2 -13 -11 -13 -20 0 -20 34 -12 38 10 3 17 -3 20
  -25 10z"/>
  <path d="M3005 2610 c-3 -5 -1 -10 4 -10 6 0 11 5 11 10 0 6 -2 10 -4 10 -3 0
  -8 -4 -11 -10z"/>
  <path d="M1396 2491 c-13 -5 -16 -10 -9 -14 7 -4 14 -3 18 3 4 6 11 8 16 5 5
  -4 9 -1 9 4 0 12 -7 13 -34 2z"/>
  <path d="M3285 2440 c-3 -5 -12 -7 -20 -3 -8 3 -15 0 -15 -5 0 -6 -16 -19 -35
  -28 -40 -18 -47 -37 -11 -28 23 5 43 -17 31 -36 -13 -21 15 -18 32 3 18 23 60
  46 48 27 -3 -6 -2 -10 3 -10 19 0 11 66 -9 78 -11 7 -20 8 -24 2z m-5 -30 c0
  -5 -2 -10 -4 -10 -3 0 -8 5 -11 10 -3 6 -1 10 4 10 6 0 11 -4 11 -10z m-6 -31
  c-8 -14 -21 -11 -21 5 0 8 6 12 14 9 7 -3 10 -9 7 -14z"/>
  <path d="M3667 1824 c-14 -14 -6 -24 19 -24 16 0 24 5 22 13 -5 14 -31 21 -41
  11z"/>
  <path d="M3895 1420 c-3 -5 -1 -10 4 -10 6 0 11 5 11 10 0 6 -2 10 -4 10 -3 0
  -8 -4 -11 -10z"/>
  <path d="M4055 1060 c-3 -5 -1 -10 4 -10 6 0 11 5 11 10 0 6 -2 10 -4 10 -3 0
  -8 -4 -11 -10z"/>
  <path d="M4060 900 c0 -5 5 -10 10 -10 6 0 10 5 10 10 0 6 -4 10 -10 10 -5 0
  -10 -4 -10 -10z"/>
  <path d="M4020 889 c0 -5 5 -7 10 -4 6 3 10 8 10 11 0 2 -4 4 -10 4 -5 0 -10
  -5 -10 -11z"/>
  <path d="M4050 820 c0 -5 5 -10 11 -10 5 0 7 5 4 10 -3 6 -8 10 -11 10 -2 0
  -4 -4 -4 -10z"/>
  <path d="M3895 680 c-8 -13 -1 -24 14 -19 6 3 7 10 2 18 -6 10 -10 10 -16 1z"/>
  </g>
</svg>
