<svg xmlns="http://www.w3.org/2000/svg" xmlns:xlink="http://www.w3.org/1999/xlink" width="1080" zoomAndPan="magnify" viewBox="0 0 810 809.999993" height="1080" preserveAspectRatio="xMidYMid meet" version="1.0"><defs><clipPath id="fbff47bdda"><path d="M 145.363281 105 L 664.363281 105 L 664.363281 705 L 145.363281 705 Z M 145.363281 105 " clip-rule="nonzero"/></clipPath></defs><g clip-path="url(#fbff47bdda)"><path fill="#9fd7ea" d="M 664.78125 143.804688 L 445.554688 143.804688 L 445.554688 105.019531 L 364.5625 105.019531 L 364.5625 143.804688 L 145.363281 143.804688 L 145.363281 215.800781 L 175.121094 215.800781 L 208.839844 704.980469 L 601.335938 704.980469 L 635.023438 215.710938 L 664.78125 215.710938 Z M 391.589844 132.015625 L 418.585938 132.015625 L 418.585938 143.804688 L 391.589844 143.804688 Z M 576.109375 677.984375 L 234.128906 677.984375 L 202.179688 215.710938 L 607.964844 215.710938 Z M 637.785156 188.710938 L 172.363281 188.710938 L 172.363281 170.714844 L 637.785156 170.714844 Z M 637.785156 188.710938 " fill-opacity="1" fill-rule="nonzero"/></g><path fill="#9fd7ea" d="M 391.589844 242.710938 L 418.585938 242.710938 L 418.585938 632.957031 L 391.589844 632.957031 Z M 391.589844 242.710938 " fill-opacity="1" fill-rule="nonzero"/><path fill="#9fd7ea" d="M 485.65625 632.179688 L 508.15625 241.921875 L 535.109375 243.476562 L 512.609375 633.734375 Z M 485.65625 632.179688 " fill-opacity="1" fill-rule="nonzero"/><path fill="#9fd7ea" d="M 273.183594 243.476562 L 300.136719 241.921875 L 322.640625 632.183594 L 295.683594 633.734375 Z M 273.183594 243.476562 " fill-opacity="1" fill-rule="nonzero"/></svg>