<svg xmlns="http://www.w3.org/2000/svg" xmlns:xlink="http://www.w3.org/1999/xlink" width="1080" zoomAndPan="magnify" viewBox="0 0 810 809.999993" height="1080" preserveAspectRatio="xMidYMid meet" version="1.0"><defs><g/><clipPath id="79a6a295aa"><path d="M 79.355469 338 L 730.355469 338 L 730.355469 705 L 79.355469 705 Z M 79.355469 338 " clip-rule="nonzero"/></clipPath></defs><path fill="#e6abbf" d="M 404.996094 277.882812 C 452.792969 277.882812 491.4375 239.238281 491.4375 191.441406 C 491.4375 143.644531 452.792969 105 404.996094 105 C 357.199219 105 318.554688 143.644531 318.554688 191.441406 C 318.554688 239.238281 357.199219 277.882812 404.996094 277.882812 Z M 404.996094 125.339844 C 441.605469 125.339844 471.097656 154.832031 471.097656 191.441406 C 471.097656 228.050781 441.605469 257.542969 404.996094 257.542969 C 368.386719 257.542969 338.894531 228.050781 338.894531 191.441406 C 338.894531 154.832031 368.386719 125.339844 404.996094 125.339844 Z M 404.996094 125.339844 " fill-opacity="1" fill-rule="nonzero"/><g clip-path="url(#79a6a295aa)"><path fill="#e6abbf" d="M 723.300781 419.238281 L 634.828125 343.984375 C 631.265625 340.933594 626.183594 338.898438 621.605469 338.898438 C 618.554688 338.898438 616.011719 339.40625 612.960938 340.933594 C 605.84375 344.492188 601.265625 351.609375 601.265625 359.238281 L 601.265625 396.863281 C 522.960938 407.035156 456.351562 445.679688 412.625 505.167969 C 412.113281 505.679688 409.0625 509.238281 404.996094 515.339844 C 361.265625 449.238281 292.113281 407.035156 208.726562 396.355469 L 208.726562 359.238281 C 208.726562 351.101562 204.148438 343.984375 197.03125 340.933594 C 194.488281 339.40625 191.4375 338.898438 188.386719 338.898438 C 183.808594 338.898438 178.726562 340.421875 175.164062 343.984375 L 86.691406 419.238281 C 82.113281 423.304688 79.574219 428.898438 79.574219 434.492188 L 79.574219 439.578125 C 79.574219 445.679688 82.113281 451.269531 86.691406 454.832031 L 175.164062 530.59375 C 178.726562 533.644531 183.808594 535.679688 188.386719 535.679688 C 191.4375 535.679688 193.980469 535.167969 197.03125 533.644531 C 204.148438 530.085938 208.726562 522.964844 208.726562 515.339844 L 208.726562 484.320312 C 299.742188 502.117188 353.132812 575.339844 353.132812 684.660156 C 353.132812 686.695312 354.148438 693.304688 354.148438 694.832031 C 354.148438 700.421875 358.726562 705 364.316406 705 C 365.84375 705 436.523438 705 436.523438 705 C 447.707031 705 456.859375 695.847656 456.859375 684.660156 C 456.859375 575.847656 510.25 502.117188 601.265625 484.320312 L 601.265625 515.339844 C 601.265625 523.472656 605.84375 530.59375 612.960938 533.644531 C 615.503906 534.660156 618.554688 535.679688 621.605469 535.679688 C 626.183594 535.679688 631.265625 534.152344 634.828125 530.59375 L 723.300781 454.832031 C 727.878906 450.761719 730.417969 445.167969 730.417969 439.578125 L 730.417969 434.492188 C 730.417969 428.898438 727.878906 423.304688 723.300781 419.238281 Z M 188.386719 460.933594 L 188.386719 515.339844 L 99.910156 440.085938 L 99.910156 435 L 188.386719 359.238281 L 188.386719 415.167969 C 274.316406 421.269531 349.0625 463.984375 393.300781 535.167969 C 383.640625 552.964844 372.453125 577.882812 364.828125 609.914062 C 340.417969 518.390625 271.777344 468.558594 188.386719 460.933594 Z M 710.082031 440.085938 L 621.605469 515.847656 L 621.605469 460.933594 C 517.878906 470.59375 436.523438 545.339844 436.523438 684.660156 L 374.488281 684.660156 C 377.03125 616.015625 399.402344 565.167969 414.65625 539.238281 C 458.386719 465.507812 534.148438 421.78125 621.605469 415.167969 L 621.605469 359.238281 L 710.082031 435 Z M 710.082031 440.085938 " fill-opacity="1" fill-rule="nonzero"/></g><path fill="#e6abbf" d="M 400.417969 430.933594 C 392.285156 430.933594 387.199219 435 387.199219 443.644531 C 387.199219 451.78125 391.777344 455.847656 400.417969 455.847656 C 409.0625 455.847656 413.132812 451.78125 413.132812 443.644531 C 413.132812 435 409.0625 430.933594 400.417969 430.933594 Z M 400.417969 430.933594 " fill-opacity="1" fill-rule="nonzero"/><path fill="#e6abbf" d="M 445.675781 356.695312 C 445.675781 335.339844 430.417969 323.644531 404.488281 323.644531 C 379.0625 323.644531 364.316406 336.355469 364.316406 358.21875 C 364.316406 363.8125 369.402344 368.898438 374.996094 368.898438 C 381.097656 368.898438 385.675781 364.320312 385.675781 358.21875 C 385.675781 347.542969 393.300781 342.457031 403.980469 342.457031 C 416.691406 342.457031 423.808594 347.542969 423.808594 357.203125 C 423.808594 377.542969 385.675781 379.066406 385.675781 402.964844 C 385.675781 408.050781 387.707031 414.152344 392.792969 419.238281 C 394.828125 421.269531 397.367188 422.289062 400.417969 422.289062 C 405.503906 422.289062 411.097656 418.730469 411.097656 412.117188 C 411.097656 410.085938 410.589844 408.050781 409.574219 406.527344 C 408.046875 404.492188 407.539062 403.476562 407.539062 401.949219 C 408.046875 389.746094 445.675781 387.710938 445.675781 356.695312 Z M 445.675781 356.695312 " fill-opacity="1" fill-rule="nonzero"/><path fill="#e6abbf" d="M 262.625 344.492188 C 262.625 302.289062 299.234375 277.371094 336.859375 273.304688 C 330.757812 268.21875 325.164062 262.117188 320.082031 255.507812 C 278.386719 265.679688 242.285156 297.203125 242.285156 344.492188 L 242.285156 382.117188 C 249.402344 383.644531 256.011719 385.679688 262.625 387.710938 Z M 262.625 344.492188 " fill-opacity="1" fill-rule="nonzero"/><path fill="#e6abbf" d="M 473.132812 273.304688 C 510.757812 277.371094 547.367188 301.78125 547.367188 344.492188 L 547.367188 387.710938 C 553.980469 385.679688 560.589844 383.644531 567.707031 382.117188 L 567.707031 344.492188 C 567.707031 297.203125 531.605469 265.679688 489.910156 256.015625 C 485.335938 262.117188 479.742188 268.21875 473.132812 273.304688 Z M 473.132812 273.304688 " fill-opacity="1" fill-rule="nonzero"/><g fill="#ffffff" fill-opacity="1"><g transform="translate(0.0000035, 18.919612)"><g><path d="M 2.203125 0 L 1.625 0 L 1.625 -4.4375 L 0.0625 -4.4375 L 0.0625 -4.9375 L 3.765625 -4.9375 L 3.765625 -4.4375 L 2.203125 -4.4375 Z M 2.203125 0 "/></g></g><g transform="translate(3.825102, 18.919612)"><g><path d="M 2.15625 0.0625 C 1.613281 0.0625 1.179688 -0.101562 0.859375 -0.4375 C 0.546875 -0.769531 0.390625 -1.234375 0.390625 -1.828125 C 0.390625 -2.421875 0.535156 -2.890625 0.828125 -3.234375 C 1.117188 -3.585938 1.515625 -3.765625 2.015625 -3.765625 C 2.472656 -3.765625 2.835938 -3.613281 3.109375 -3.3125 C 3.378906 -3.007812 3.515625 -2.609375 3.515625 -2.109375 L 3.515625 -1.75 L 0.96875 -1.75 C 0.976562 -1.3125 1.085938 -0.976562 1.296875 -0.75 C 1.503906 -0.53125 1.800781 -0.421875 2.1875 -0.421875 C 2.582031 -0.421875 2.972656 -0.503906 3.359375 -0.671875 L 3.359375 -0.171875 C 3.160156 -0.0859375 2.972656 -0.03125 2.796875 0 C 2.617188 0.0390625 2.40625 0.0625 2.15625 0.0625 Z M 2 -3.296875 C 1.707031 -3.296875 1.472656 -3.195312 1.296875 -3 C 1.117188 -2.8125 1.015625 -2.546875 0.984375 -2.203125 L 2.921875 -2.203125 C 2.921875 -2.554688 2.84375 -2.828125 2.6875 -3.015625 C 2.53125 -3.203125 2.300781 -3.296875 2 -3.296875 Z M 2 -3.296875 "/></g></g><g transform="translate(7.704218, 18.919612)"><g><path d="M 1.15625 -1.890625 C 1.25 -2.035156 1.394531 -2.21875 1.59375 -2.4375 L 2.78125 -3.703125 L 3.453125 -3.703125 L 1.953125 -2.125 L 3.5625 0 L 2.875 0 L 1.578125 -1.75 L 1.15625 -1.390625 L 1.15625 0 L 0.59375 0 L 0.59375 -5.265625 L 1.15625 -5.265625 L 1.15625 -2.46875 C 1.15625 -2.34375 1.144531 -2.148438 1.125 -1.890625 Z M 1.15625 -1.890625 "/></g></g><g transform="translate(11.333504, 18.919612)"><g><path d="M 2.984375 -1.015625 C 2.984375 -0.671875 2.851562 -0.40625 2.59375 -0.21875 C 2.34375 -0.03125 1.984375 0.0625 1.515625 0.0625 C 1.023438 0.0625 0.644531 -0.015625 0.375 -0.171875 L 0.375 -0.6875 C 0.550781 -0.59375 0.738281 -0.519531 0.9375 -0.46875 C 1.144531 -0.414062 1.34375 -0.390625 1.53125 -0.390625 C 1.820312 -0.390625 2.046875 -0.4375 2.203125 -0.53125 C 2.359375 -0.625 2.4375 -0.769531 2.4375 -0.96875 C 2.4375 -1.101562 2.375 -1.222656 2.25 -1.328125 C 2.125 -1.429688 1.882812 -1.554688 1.53125 -1.703125 C 1.175781 -1.828125 0.925781 -1.9375 0.78125 -2.03125 C 0.644531 -2.125 0.539062 -2.234375 0.46875 -2.359375 C 0.394531 -2.484375 0.359375 -2.628906 0.359375 -2.796875 C 0.359375 -3.097656 0.476562 -3.332031 0.71875 -3.5 C 0.96875 -3.675781 1.304688 -3.765625 1.734375 -3.765625 C 2.128906 -3.765625 2.519531 -3.6875 2.90625 -3.53125 L 2.703125 -3.078125 C 2.335938 -3.222656 2.003906 -3.296875 1.703125 -3.296875 C 1.429688 -3.296875 1.226562 -3.253906 1.09375 -3.171875 C 0.957031 -3.085938 0.890625 -2.972656 0.890625 -2.828125 C 0.890625 -2.734375 0.914062 -2.648438 0.96875 -2.578125 C 1.019531 -2.503906 1.097656 -2.4375 1.203125 -2.375 C 1.316406 -2.3125 1.535156 -2.222656 1.859375 -2.109375 C 2.296875 -1.941406 2.59375 -1.773438 2.75 -1.609375 C 2.90625 -1.453125 2.984375 -1.253906 2.984375 -1.015625 Z M 2.984375 -1.015625 "/></g></g><g transform="translate(14.631935, 18.919612)"><g><path d="M 1.796875 -0.390625 C 1.890625 -0.390625 1.984375 -0.394531 2.078125 -0.40625 C 2.171875 -0.425781 2.242188 -0.445312 2.296875 -0.46875 L 2.296875 -0.03125 C 2.234375 0 2.144531 0.0195312 2.03125 0.03125 C 1.914062 0.0507812 1.804688 0.0625 1.703125 0.0625 C 0.992188 0.0625 0.640625 -0.3125 0.640625 -1.0625 L 0.640625 -3.265625 L 0.109375 -3.265625 L 0.109375 -3.53125 L 0.640625 -3.765625 L 0.875 -4.5625 L 1.203125 -4.5625 L 1.203125 -3.703125 L 2.265625 -3.703125 L 2.265625 -3.265625 L 1.203125 -3.265625 L 1.203125 -1.09375 C 1.203125 -0.863281 1.253906 -0.6875 1.359375 -0.5625 C 1.460938 -0.445312 1.609375 -0.390625 1.796875 -0.390625 Z M 1.796875 -0.390625 "/></g></g><g transform="translate(17.072841, 18.919612)"><g/></g><g transform="translate(18.868915, 18.919612)"><g><path d="M 2.875 0 L 2.765625 -0.53125 L 2.734375 -0.53125 C 2.546875 -0.289062 2.359375 -0.128906 2.171875 -0.046875 C 1.992188 0.0234375 1.769531 0.0625 1.5 0.0625 C 1.125 0.0625 0.832031 -0.03125 0.625 -0.21875 C 0.414062 -0.40625 0.3125 -0.675781 0.3125 -1.03125 C 0.3125 -1.769531 0.910156 -2.160156 2.109375 -2.203125 L 2.734375 -2.21875 L 2.734375 -2.453125 C 2.734375 -2.742188 2.671875 -2.957031 2.546875 -3.09375 C 2.421875 -3.226562 2.222656 -3.296875 1.953125 -3.296875 C 1.640625 -3.296875 1.289062 -3.203125 0.90625 -3.015625 L 0.734375 -3.453125 C 0.910156 -3.546875 1.109375 -3.617188 1.328125 -3.671875 C 1.546875 -3.734375 1.765625 -3.765625 1.984375 -3.765625 C 2.429688 -3.765625 2.757812 -3.664062 2.96875 -3.46875 C 3.175781 -3.269531 3.28125 -2.957031 3.28125 -2.53125 L 3.28125 0 Z M 1.609375 -0.390625 C 1.953125 -0.390625 2.222656 -0.484375 2.421875 -0.671875 C 2.628906 -0.867188 2.734375 -1.140625 2.734375 -1.484375 L 2.734375 -1.828125 L 2.171875 -1.796875 C 1.722656 -1.785156 1.398438 -1.71875 1.203125 -1.59375 C 1.003906 -1.46875 0.90625 -1.273438 0.90625 -1.015625 C 0.90625 -0.816406 0.96875 -0.660156 1.09375 -0.546875 C 1.21875 -0.441406 1.390625 -0.390625 1.609375 -0.390625 Z M 1.609375 -0.390625 "/></g></g><g transform="translate(22.71427, 18.919612)"><g><path d="M 1.15625 -1.890625 C 1.25 -2.035156 1.394531 -2.21875 1.59375 -2.4375 L 2.78125 -3.703125 L 3.453125 -3.703125 L 1.953125 -2.125 L 3.5625 0 L 2.875 0 L 1.578125 -1.75 L 1.15625 -1.390625 L 1.15625 0 L 0.59375 0 L 0.59375 -5.265625 L 1.15625 -5.265625 L 1.15625 -2.46875 C 1.15625 -2.34375 1.144531 -2.148438 1.125 -1.890625 Z M 1.15625 -1.890625 "/></g></g><g transform="translate(26.343557, 18.919612)"><g><path d="M 2.875 0 L 2.765625 -0.53125 L 2.734375 -0.53125 C 2.546875 -0.289062 2.359375 -0.128906 2.171875 -0.046875 C 1.992188 0.0234375 1.769531 0.0625 1.5 0.0625 C 1.125 0.0625 0.832031 -0.03125 0.625 -0.21875 C 0.414062 -0.40625 0.3125 -0.675781 0.3125 -1.03125 C 0.3125 -1.769531 0.910156 -2.160156 2.109375 -2.203125 L 2.734375 -2.21875 L 2.734375 -2.453125 C 2.734375 -2.742188 2.671875 -2.957031 2.546875 -3.09375 C 2.421875 -3.226562 2.222656 -3.296875 1.953125 -3.296875 C 1.640625 -3.296875 1.289062 -3.203125 0.90625 -3.015625 L 0.734375 -3.453125 C 0.910156 -3.546875 1.109375 -3.617188 1.328125 -3.671875 C 1.546875 -3.734375 1.765625 -3.765625 1.984375 -3.765625 C 2.429688 -3.765625 2.757812 -3.664062 2.96875 -3.46875 C 3.175781 -3.269531 3.28125 -2.957031 3.28125 -2.53125 L 3.28125 0 Z M 1.609375 -0.390625 C 1.953125 -0.390625 2.222656 -0.484375 2.421875 -0.671875 C 2.628906 -0.867188 2.734375 -1.140625 2.734375 -1.484375 L 2.734375 -1.828125 L 2.171875 -1.796875 C 1.722656 -1.785156 1.398438 -1.71875 1.203125 -1.59375 C 1.003906 -1.46875 0.90625 -1.273438 0.90625 -1.015625 C 0.90625 -0.816406 0.96875 -0.660156 1.09375 -0.546875 C 1.21875 -0.441406 1.390625 -0.390625 1.609375 -0.390625 Z M 1.609375 -0.390625 "/></g></g><g transform="translate(30.188912, 18.919612)"><g><path d="M 2.3125 0.0625 C 2.070312 0.0625 1.851562 0.0195312 1.65625 -0.0625 C 1.457031 -0.15625 1.289062 -0.289062 1.15625 -0.46875 L 1.109375 -0.46875 C 1.140625 -0.257812 1.15625 -0.0546875 1.15625 0.140625 L 1.15625 1.65625 L 0.59375 1.65625 L 0.59375 -3.703125 L 1.046875 -3.703125 L 1.125 -3.203125 L 1.15625 -3.203125 C 1.300781 -3.398438 1.46875 -3.539062 1.65625 -3.625 C 1.851562 -3.71875 2.070312 -3.765625 2.3125 -3.765625 C 2.8125 -3.765625 3.191406 -3.597656 3.453125 -3.265625 C 3.722656 -2.929688 3.859375 -2.460938 3.859375 -1.859375 C 3.859375 -1.242188 3.722656 -0.769531 3.453125 -0.4375 C 3.179688 -0.101562 2.800781 0.0625 2.3125 0.0625 Z M 2.234375 -3.296875 C 1.859375 -3.296875 1.582031 -3.191406 1.40625 -2.984375 C 1.238281 -2.773438 1.15625 -2.441406 1.15625 -1.984375 L 1.15625 -1.859375 C 1.15625 -1.335938 1.238281 -0.960938 1.40625 -0.734375 C 1.582031 -0.515625 1.863281 -0.40625 2.25 -0.40625 C 2.570312 -0.40625 2.820312 -0.53125 3 -0.78125 C 3.1875 -1.039062 3.28125 -1.398438 3.28125 -1.859375 C 3.28125 -2.328125 3.1875 -2.679688 3 -2.921875 C 2.820312 -3.171875 2.566406 -3.296875 2.234375 -3.296875 Z M 2.234375 -3.296875 "/></g></g><g transform="translate(34.425892, 18.919612)"><g><path d="M 1.15625 0 L 0.59375 0 L 0.59375 -3.703125 L 1.15625 -3.703125 Z M 0.546875 -4.703125 C 0.546875 -4.835938 0.578125 -4.929688 0.640625 -4.984375 C 0.703125 -5.046875 0.78125 -5.078125 0.875 -5.078125 C 0.96875 -5.078125 1.046875 -5.046875 1.109375 -4.984375 C 1.171875 -4.921875 1.203125 -4.828125 1.203125 -4.703125 C 1.203125 -4.578125 1.171875 -4.484375 1.109375 -4.421875 C 1.046875 -4.359375 0.96875 -4.328125 0.875 -4.328125 C 0.78125 -4.328125 0.703125 -4.359375 0.640625 -4.421875 C 0.578125 -4.484375 0.546875 -4.578125 0.546875 -4.703125 Z M 0.546875 -4.703125 "/></g></g><g transform="translate(36.174702, 18.919612)"><g><path d="M 1.796875 -0.390625 C 1.890625 -0.390625 1.984375 -0.394531 2.078125 -0.40625 C 2.171875 -0.425781 2.242188 -0.445312 2.296875 -0.46875 L 2.296875 -0.03125 C 2.234375 0 2.144531 0.0195312 2.03125 0.03125 C 1.914062 0.0507812 1.804688 0.0625 1.703125 0.0625 C 0.992188 0.0625 0.640625 -0.3125 0.640625 -1.0625 L 0.640625 -3.265625 L 0.109375 -3.265625 L 0.109375 -3.53125 L 0.640625 -3.765625 L 0.875 -4.5625 L 1.203125 -4.5625 L 1.203125 -3.703125 L 2.265625 -3.703125 L 2.265625 -3.265625 L 1.203125 -3.265625 L 1.203125 -1.09375 C 1.203125 -0.863281 1.253906 -0.6875 1.359375 -0.5625 C 1.460938 -0.445312 1.609375 -0.390625 1.796875 -0.390625 Z M 1.796875 -0.390625 "/></g></g><g transform="translate(38.615608, 18.919612)"><g><path d="M 1.125 -3.703125 L 1.125 -1.296875 C 1.125 -0.992188 1.191406 -0.769531 1.328125 -0.625 C 1.460938 -0.476562 1.675781 -0.40625 1.96875 -0.40625 C 2.363281 -0.40625 2.648438 -0.507812 2.828125 -0.71875 C 3.003906 -0.925781 3.09375 -1.269531 3.09375 -1.75 L 3.09375 -3.703125 L 3.65625 -3.703125 L 3.65625 0 L 3.1875 0 L 3.109375 -0.5 L 3.078125 -0.5 C 2.960938 -0.3125 2.800781 -0.171875 2.59375 -0.078125 C 2.394531 0.015625 2.164062 0.0625 1.90625 0.0625 C 1.457031 0.0625 1.117188 -0.0390625 0.890625 -0.25 C 0.660156 -0.46875 0.546875 -0.8125 0.546875 -1.28125 L 0.546875 -3.703125 Z M 1.125 -3.703125 "/></g></g></g></svg>