<svg xmlns="http://www.w3.org/2000/svg" xmlns:xlink="http://www.w3.org/1999/xlink" width="1080" zoomAndPan="magnify" viewBox="0 0 810 809.999993" height="1080" preserveAspectRatio="xMidYMid meet" version="1.0"><defs><g/><clipPath id="c15f807b52"><path d="M 232 105 L 578 105 L 578 328 L 232 328 Z M 232 105 " clip-rule="nonzero"/></clipPath><clipPath id="0891a6beaf"><path d="M 232.3125 414.15625 L 577.964844 414.15625 L 577.964844 705 L 232.3125 705 Z M 232.3125 414.15625 " clip-rule="nonzero"/></clipPath><clipPath id="5d6e1b2f89"><path d="M 132.375 340 L 345 340 L 345 530 L 132.375 530 Z M 132.375 340 " clip-rule="nonzero"/></clipPath><clipPath id="fbe09ce419"><path d="M 465.042969 262.675781 L 677.527344 262.675781 L 677.527344 452.714844 L 465.042969 452.714844 Z M 465.042969 262.675781 " clip-rule="nonzero"/></clipPath></defs><g fill="#ffffff" fill-opacity="1"><g transform="translate(17.871166, 14.532539)"><g><path d="M 0.421875 0 L 0.40625 -0.078125 L 0.390625 -0.078125 C 0.367188 -0.046875 0.34375 -0.0195312 0.3125 0 C 0.289062 0.0078125 0.257812 0.015625 0.21875 0.015625 C 0.164062 0.015625 0.125 0 0.09375 -0.03125 C 0.0625 -0.0625 0.046875 -0.0976562 0.046875 -0.140625 C 0.046875 -0.253906 0.132812 -0.3125 0.3125 -0.3125 L 0.390625 -0.328125 L 0.390625 -0.359375 C 0.390625 -0.398438 0.378906 -0.429688 0.359375 -0.453125 C 0.347656 -0.472656 0.320312 -0.484375 0.28125 -0.484375 C 0.238281 -0.484375 0.1875 -0.46875 0.125 -0.4375 L 0.109375 -0.5 C 0.128906 -0.507812 0.15625 -0.519531 0.1875 -0.53125 C 0.21875 -0.539062 0.25 -0.546875 0.28125 -0.546875 C 0.351562 -0.546875 0.398438 -0.53125 0.421875 -0.5 C 0.453125 -0.46875 0.46875 -0.421875 0.46875 -0.359375 L 0.46875 0 Z M 0.234375 -0.0625 C 0.285156 -0.0625 0.320312 -0.0703125 0.34375 -0.09375 C 0.375 -0.125 0.390625 -0.164062 0.390625 -0.21875 L 0.390625 -0.265625 L 0.3125 -0.265625 C 0.25 -0.253906 0.203125 -0.238281 0.171875 -0.21875 C 0.140625 -0.207031 0.125 -0.179688 0.125 -0.140625 C 0.125 -0.117188 0.132812 -0.0976562 0.15625 -0.078125 C 0.175781 -0.0664062 0.203125 -0.0625 0.234375 -0.0625 Z M 0.234375 -0.0625 "/></g></g></g><g clip-path="url(#c15f807b52)"><path fill="#d17ab3" d="M 242.550781 327.273438 C 248.128906 327.273438 252.65625 322.746094 252.65625 317.167969 L 252.65625 153.613281 C 252.65625 137.949219 265.398438 125.207031 281.058594 125.207031 L 528.6875 125.207031 C 544.347656 125.207031 557.089844 137.949219 557.089844 153.613281 L 557.089844 239.929688 C 557.089844 245.511719 561.617188 250.035156 567.195312 250.035156 C 572.777344 250.035156 577.300781 245.511719 577.300781 239.929688 L 577.300781 153.613281 C 577.300781 126.808594 555.492188 104.996094 528.6875 104.996094 L 281.058594 104.996094 C 254.25 104.996094 232.445312 126.808594 232.445312 153.613281 L 232.445312 317.167969 C 232.445312 322.746094 236.96875 327.273438 242.550781 327.273438 " fill-opacity="1" fill-rule="nonzero"/></g><g clip-path="url(#0891a6beaf)"><path fill="#d17ab3" d="M 567.195312 414.703125 C 561.617188 414.703125 557.089844 419.226562 557.089844 424.808594 L 557.089844 656.410156 C 557.089844 672.074219 544.347656 684.816406 528.6875 684.816406 L 281.058594 684.816406 C 265.398438 684.816406 252.65625 672.074219 252.65625 656.410156 L 252.65625 516.554688 C 252.65625 510.972656 248.128906 506.449219 242.550781 506.449219 C 236.96875 506.449219 232.445312 510.972656 232.445312 516.554688 L 232.445312 656.410156 C 232.445312 683.21875 254.25 705.027344 281.058594 705.027344 L 528.6875 705.027344 C 555.492188 705.027344 577.300781 683.21875 577.300781 656.410156 L 577.300781 424.808594 C 577.300781 419.226562 572.777344 414.703125 567.195312 414.703125 " fill-opacity="1" fill-rule="nonzero"/></g><path fill="#d17ab3" d="M 527.621094 585.878906 C 527.621094 580.300781 523.097656 575.773438 517.515625 575.773438 L 292.230469 575.773438 C 286.648438 575.773438 282.125 580.300781 282.125 585.878906 C 282.125 591.460938 286.648438 595.984375 292.230469 595.984375 L 517.515625 595.984375 C 523.097656 595.984375 527.621094 591.460938 527.621094 585.878906 " fill-opacity="1" fill-rule="nonzero"/><path fill="#d17ab3" d="M 292.230469 203 C 286.648438 203 282.125 207.523438 282.125 213.105469 C 282.125 218.6875 286.648438 223.210938 292.230469 223.210938 L 517.515625 223.210938 C 523.097656 223.210938 527.621094 218.6875 527.621094 213.105469 C 527.621094 207.523438 523.097656 203 517.515625 203 L 292.230469 203 " fill-opacity="1" fill-rule="nonzero"/><path fill="#d17ab3" d="M 380.429688 630.296875 C 374.847656 630.296875 370.324219 634.820312 370.324219 640.402344 C 370.324219 645.984375 374.847656 650.507812 380.429688 650.507812 L 429.289062 650.507812 C 434.875 650.507812 439.398438 645.984375 439.398438 640.402344 C 439.398438 634.820312 434.875 630.296875 429.289062 630.296875 L 380.429688 630.296875 " fill-opacity="1" fill-rule="nonzero"/><g clip-path="url(#5d6e1b2f89)"><path fill="#d17ab3" d="M 152.6875 441.394531 L 152.6875 372.566406 C 152.6875 365.796875 158.195312 360.289062 164.96875 360.289062 L 312.152344 360.289062 C 318.925781 360.289062 324.4375 365.796875 324.4375 372.566406 L 324.4375 441.394531 C 324.4375 448.164062 318.925781 453.675781 312.152344 453.675781 L 296.082031 453.675781 C 292.828125 453.675781 289.769531 455.246094 287.871094 457.890625 C 285.972656 460.539062 285.46875 463.9375 286.511719 467.023438 L 294.832031 491.601562 L 247.851562 455.746094 C 246.089844 454.402344 243.9375 453.675781 241.722656 453.675781 L 164.96875 453.675781 C 158.195312 453.675781 152.6875 448.164062 152.6875 441.394531 Z M 308.882812 527.75 C 310.6875 529.132812 312.847656 529.824219 315.011719 529.824219 C 317.078125 529.824219 319.140625 529.195312 320.902344 527.929688 C 324.515625 525.335938 326.007812 520.6875 324.582031 516.480469 L 310.171875 473.890625 L 312.152344 473.890625 C 330.074219 473.890625 344.652344 459.3125 344.652344 441.394531 L 344.652344 372.566406 C 344.652344 354.652344 330.074219 340.078125 312.152344 340.078125 L 164.96875 340.078125 C 147.050781 340.078125 132.472656 354.652344 132.472656 372.566406 L 132.472656 441.394531 C 132.472656 459.3125 147.050781 473.890625 164.96875 473.890625 L 238.304688 473.886719 L 308.882812 527.75 " fill-opacity="1" fill-rule="nonzero"/></g><g clip-path="url(#fbe09ce419)"><path fill="#d17ab3" d="M 657.3125 364.15625 C 657.3125 370.929688 651.800781 376.4375 645.027344 376.4375 L 568.273438 376.4375 C 566.058594 376.4375 563.90625 377.167969 562.144531 378.511719 L 515.167969 414.363281 L 523.488281 389.785156 C 524.53125 386.699219 524.023438 383.300781 522.125 380.652344 C 520.226562 378.007812 517.167969 376.4375 513.910156 376.4375 L 497.84375 376.4375 C 491.070312 376.4375 485.558594 370.929688 485.558594 364.15625 L 485.558594 295.332031 C 485.558594 288.558594 491.070312 283.050781 497.84375 283.050781 L 645.027344 283.050781 C 651.800781 283.050781 657.3125 288.558594 657.3125 295.332031 Z M 645.027344 262.839844 L 497.84375 262.839844 C 479.925781 262.839844 465.347656 277.417969 465.347656 295.332031 L 465.347656 364.15625 C 465.347656 382.074219 479.925781 396.652344 497.84375 396.652344 L 499.824219 396.652344 L 485.414062 439.242188 C 483.988281 443.453125 485.484375 448.101562 489.09375 450.691406 C 490.855469 451.957031 492.917969 452.585938 494.984375 452.585938 C 497.148438 452.585938 499.308594 451.894531 501.117188 450.511719 L 571.691406 396.652344 L 645.027344 396.652344 C 662.945312 396.652344 677.523438 382.074219 677.523438 364.15625 L 677.523438 295.332031 C 677.523438 277.417969 662.945312 262.839844 645.027344 262.839844 " fill-opacity="1" fill-rule="nonzero"/></g><path fill="#d17ab3" d="M 190.542969 386.730469 L 171.871094 386.730469 C 168.921875 386.730469 167.3125 388.335938 167.3125 391.289062 L 167.3125 422.515625 C 167.3125 425.359375 169.617188 427.667969 172.460938 427.667969 C 175.304688 427.667969 177.613281 425.359375 177.613281 422.515625 L 177.613281 412.480469 L 188.074219 412.480469 C 190.277344 412.480469 192.097656 410.660156 192.097656 408.40625 C 192.097656 406.203125 190.277344 404.378906 188.074219 404.378906 L 177.613281 404.378906 L 177.613281 395.046875 L 190.542969 395.046875 C 192.796875 395.046875 194.671875 393.167969 194.671875 390.859375 C 194.671875 388.605469 192.796875 386.730469 190.542969 386.730469 " fill-opacity="1" fill-rule="nonzero"/><path fill="#d17ab3" d="M 210.125 410.710938 L 212.703125 402.5 C 213.515625 399.902344 213.996094 398.019531 214.578125 395.6875 L 215.222656 395.6875 C 215.804688 398.023438 216.289062 399.902344 217.101562 402.5 L 219.675781 410.710938 Z M 223.164062 391.988281 C 222.035156 388.660156 218.871094 386.296875 215.167969 386.296875 C 211.414062 386.296875 208.25 388.660156 207.121094 391.988281 L 196.925781 421.496094 C 196.765625 421.980469 196.660156 422.464844 196.660156 423 C 196.660156 425.574219 198.75 427.667969 201.324219 427.667969 C 203.472656 427.667969 205.242188 426.324219 205.832031 424.394531 L 207.601562 418.652344 L 222.195312 418.652344 L 223.96875 424.285156 C 224.613281 426.21875 226.433594 427.667969 228.636719 427.667969 C 231.320312 427.667969 233.519531 425.46875 233.519531 422.785156 C 233.519531 422.25 233.414062 421.710938 233.25 421.175781 L 223.164062 391.988281 " fill-opacity="1" fill-rule="nonzero"/><path fill="#d17ab3" d="M 249.128906 422.625 L 249.128906 416.722656 L 253.585938 411.246094 L 262.382812 425.304688 C 263.292969 426.703125 264.90625 427.667969 266.730469 427.667969 C 269.519531 427.667969 271.773438 425.414062 271.773438 422.566406 C 271.773438 421.546875 271.453125 420.636719 270.96875 419.832031 L 260.503906 403.46875 L 268.714844 393.273438 C 269.304688 392.574219 269.679688 391.609375 269.679688 390.589844 C 269.679688 388.230469 267.75 386.296875 265.386719 386.296875 C 264.046875 386.296875 262.757812 386.996094 262.007812 387.960938 L 249.128906 404.488281 L 249.128906 391.339844 C 249.128906 388.550781 246.875 386.296875 244.035156 386.296875 C 241.246094 386.296875 238.992188 388.550781 238.992188 391.339844 L 238.992188 422.625 C 238.992188 425.414062 241.246094 427.667969 244.035156 427.667969 C 246.875 427.667969 249.128906 425.414062 249.128906 422.625 " fill-opacity="1" fill-rule="nonzero"/><path fill="#d17ab3" d="M 284.863281 427.238281 L 305.679688 427.238281 C 307.933594 427.238281 309.8125 425.359375 309.8125 423.050781 C 309.8125 420.796875 307.933594 418.921875 305.679688 418.921875 L 290.496094 418.921875 L 290.496094 411.035156 L 302.136719 411.035156 C 304.339844 411.035156 306.164062 409.207031 306.164062 406.953125 C 306.164062 404.757812 304.339844 402.929688 302.136719 402.929688 L 290.496094 402.929688 L 290.496094 395.046875 L 304.605469 395.046875 C 306.859375 395.046875 308.738281 393.167969 308.738281 390.914062 C 308.738281 388.605469 306.859375 386.730469 304.605469 386.730469 L 284.863281 386.730469 C 281.910156 386.730469 280.300781 388.335938 280.300781 391.289062 L 280.300781 422.675781 C 280.300781 425.625 281.910156 427.238281 284.863281 427.238281 " fill-opacity="1" fill-rule="nonzero"/><path fill="#d17ab3" d="M 523.417969 309.492188 L 504.746094 309.492188 C 501.796875 309.492188 500.183594 311.097656 500.183594 314.050781 L 500.183594 345.277344 C 500.183594 348.121094 502.492188 350.429688 505.335938 350.429688 C 508.179688 350.429688 510.488281 348.121094 510.488281 345.277344 L 510.488281 335.246094 L 520.949219 335.246094 C 523.148438 335.246094 524.972656 333.421875 524.972656 331.167969 C 524.972656 328.96875 523.148438 327.140625 520.949219 327.140625 L 510.488281 327.140625 L 510.488281 317.808594 L 523.417969 317.808594 C 525.671875 317.808594 527.546875 315.929688 527.546875 313.621094 C 527.546875 311.367188 525.671875 309.492188 523.417969 309.492188 " fill-opacity="1" fill-rule="nonzero"/><path fill="#d17ab3" d="M 543 333.472656 L 545.574219 325.265625 C 546.386719 322.664062 546.871094 320.78125 547.453125 318.453125 L 548.097656 318.453125 C 548.679688 320.785156 549.164062 322.664062 549.976562 325.265625 L 552.546875 333.472656 Z M 556.039062 314.75 C 554.910156 311.421875 551.746094 309.0625 548.042969 309.0625 C 544.285156 309.0625 541.121094 311.421875 539.996094 314.75 L 529.800781 344.257812 C 529.636719 344.742188 529.53125 345.226562 529.53125 345.761719 C 529.53125 348.335938 531.625 350.429688 534.199219 350.429688 C 536.347656 350.429688 538.117188 349.085938 538.707031 347.15625 L 540.476562 341.417969 L 555.070312 341.417969 L 556.839844 347.046875 C 557.488281 348.980469 559.308594 350.429688 561.511719 350.429688 C 564.195312 350.429688 566.390625 348.230469 566.390625 345.546875 C 566.390625 345.011719 566.285156 344.472656 566.125 343.9375 L 556.039062 314.75 " fill-opacity="1" fill-rule="nonzero"/><path fill="#d17ab3" d="M 593.378906 326.230469 L 601.589844 316.035156 C 602.179688 315.335938 602.554688 314.371094 602.554688 313.351562 C 602.554688 310.992188 600.625 309.0625 598.261719 309.0625 C 596.917969 309.0625 595.632812 309.757812 594.882812 310.726562 L 582.003906 327.25 L 582.003906 314.105469 C 582.003906 311.3125 579.75 309.0625 576.90625 309.0625 C 574.117188 309.0625 571.863281 311.3125 571.863281 314.105469 L 571.863281 345.386719 C 571.863281 348.175781 574.117188 350.429688 576.90625 350.429688 C 579.75 350.429688 582.003906 348.175781 582.003906 345.386719 L 582.003906 339.484375 L 586.460938 334.011719 L 595.257812 348.066406 C 596.167969 349.464844 597.777344 350.429688 599.605469 350.429688 C 602.394531 350.429688 604.648438 348.175781 604.648438 345.332031 C 604.648438 344.3125 604.324219 343.402344 603.84375 342.59375 L 593.378906 326.230469 " fill-opacity="1" fill-rule="nonzero"/><path fill="#d17ab3" d="M 638.554688 341.683594 L 623.371094 341.683594 L 623.371094 333.796875 L 635.011719 333.796875 C 637.214844 333.796875 639.035156 331.972656 639.035156 329.71875 C 639.035156 327.519531 637.214844 325.695312 635.011719 325.695312 L 623.371094 325.695312 L 623.371094 317.808594 L 637.480469 317.808594 C 639.734375 317.808594 641.613281 315.929688 641.613281 313.675781 C 641.613281 311.367188 639.734375 309.492188 637.480469 309.492188 L 617.738281 309.492188 C 614.785156 309.492188 613.175781 311.097656 613.175781 314.050781 L 613.175781 345.441406 C 613.175781 348.390625 614.785156 350 617.738281 350 L 638.554688 350 C 640.804688 350 642.6875 348.121094 642.6875 345.8125 C 642.6875 343.558594 640.804688 341.683594 638.554688 341.683594 " fill-opacity="1" fill-rule="nonzero"/></svg>