<svg xmlns="http://www.w3.org/2000/svg" xmlns:xlink="http://www.w3.org/1999/xlink" width="1080" zoomAndPan="magnify" viewBox="0 0 810 809.999993" height="1080" preserveAspectRatio="xMidYMid meet" version="1.0"><defs><g/></defs><g fill="#ffffff" fill-opacity="1"><g transform="translate(17.871166, 14.532539)"><g><path d="M 0.421875 0 L 0.40625 -0.078125 L 0.390625 -0.078125 C 0.367188 -0.046875 0.34375 -0.0195312 0.3125 0 C 0.289062 0.0078125 0.257812 0.015625 0.21875 0.015625 C 0.164062 0.015625 0.125 0 0.09375 -0.03125 C 0.0625 -0.0625 0.046875 -0.0976562 0.046875 -0.140625 C 0.046875 -0.253906 0.132812 -0.3125 0.3125 -0.3125 L 0.390625 -0.328125 L 0.390625 -0.359375 C 0.390625 -0.398438 0.378906 -0.429688 0.359375 -0.453125 C 0.347656 -0.472656 0.320312 -0.484375 0.28125 -0.484375 C 0.238281 -0.484375 0.1875 -0.46875 0.125 -0.4375 L 0.109375 -0.5 C 0.128906 -0.507812 0.15625 -0.519531 0.1875 -0.53125 C 0.21875 -0.539062 0.25 -0.546875 0.28125 -0.546875 C 0.351562 -0.546875 0.398438 -0.53125 0.421875 -0.5 C 0.453125 -0.46875 0.46875 -0.421875 0.46875 -0.359375 L 0.46875 0 Z M 0.234375 -0.0625 C 0.285156 -0.0625 0.320312 -0.0703125 0.34375 -0.09375 C 0.375 -0.125 0.390625 -0.164062 0.390625 -0.21875 L 0.390625 -0.265625 L 0.3125 -0.265625 C 0.25 -0.253906 0.203125 -0.238281 0.171875 -0.21875 C 0.140625 -0.207031 0.125 -0.179688 0.125 -0.140625 C 0.125 -0.117188 0.132812 -0.0976562 0.15625 -0.078125 C 0.175781 -0.0664062 0.203125 -0.0625 0.234375 -0.0625 Z M 0.234375 -0.0625 "/></g></g></g><path fill="#bdb6d7" d="M 521.210938 441.632812 C 511.105469 415.738281 490.894531 396.15625 466.261719 384.789062 C 478.894531 370.261719 486.472656 351.316406 486.472656 331.105469 C 486.472656 285.632812 449.84375 249 404.367188 249 C 358.894531 249 322.261719 285.632812 322.261719 331.105469 C 322.261719 351.949219 329.84375 370.261719 342.472656 384.789062 C 317.84375 396.15625 297.632812 416.367188 287.527344 441.632812 C 279.316406 463.105469 273.632812 485.210938 270.472656 507.949219 C 269.210938 520.578125 272.367188 533.210938 280.578125 542.050781 C 288.789062 551.527344 300.15625 556.578125 312.789062 556.578125 L 494.683594 556.578125 C 507.316406 556.578125 518.683594 551.527344 526.894531 542.050781 C 533.84375 534.472656 537.632812 524.367188 537.632812 513.632812 C 537.632812 511.738281 537.632812 509.84375 537 507.949219 C 535.738281 484.578125 530.050781 462.472656 521.210938 441.632812 Z M 405 276.789062 C 434.683594 276.789062 458.683594 300.789062 458.683594 330.472656 C 458.683594 360.15625 434.683594 384.15625 405 384.15625 C 375.316406 384.15625 351.316406 360.15625 351.316406 330.472656 C 351.316406 300.789062 375.316406 276.789062 405 276.789062 Z M 507.316406 523.105469 C 504.789062 526.261719 500.367188 528.15625 495.949219 528.15625 L 314.050781 528.15625 C 309.632812 528.15625 305.210938 526.261719 302.683594 523.105469 C 300.15625 519.949219 298.894531 515.527344 299.527344 511.105469 C 302.050781 490.894531 307.105469 470.683594 314.683594 451.738281 C 324.15625 427.738281 345.632812 410.683594 370.261719 405 C 381 410.050781 392.367188 412.578125 405 412.578125 C 417.632812 412.578125 429 409.421875 439.738281 405 C 465 410.683594 486.472656 428.367188 495.316406 451.738281 C 502.894531 470.683594 507.949219 490.894531 510.472656 511.105469 C 511.105469 515.527344 509.84375 519.949219 507.316406 523.105469 Z M 507.316406 523.105469 " fill-opacity="1" fill-rule="nonzero"/><path fill="#bdb6d7" d="M 691.105469 391.105469 L 666.472656 391.105469 C 659.527344 257.84375 552.15625 151.105469 418.894531 143.527344 L 418.894531 118.894531 C 418.894531 111.316406 412.578125 105 405 105 C 397.421875 105 391.105469 111.316406 391.105469 118.894531 L 391.105469 143.527344 C 257.84375 150.472656 150.472656 257.84375 143.527344 391.105469 L 118.894531 391.105469 C 111.316406 391.105469 105 397.421875 105 405 C 105 412.578125 111.316406 418.894531 118.894531 418.894531 L 143.527344 418.894531 C 150.472656 552.15625 257.84375 658.894531 391.105469 666.472656 L 391.105469 691.105469 C 391.105469 698.683594 397.421875 705 405 705 C 412.578125 705 418.894531 698.683594 418.894531 691.105469 L 418.894531 666.472656 C 552.15625 659.527344 658.894531 552.15625 666.472656 418.894531 L 691.105469 418.894531 C 698.683594 418.894531 705 412.578125 705 405 C 705 397.421875 698.683594 391.105469 691.105469 391.105469 Z M 418.894531 638.050781 L 418.894531 614.683594 C 418.894531 607.105469 412.578125 600.789062 405 600.789062 C 397.421875 600.789062 391.105469 607.105469 391.105469 614.683594 L 391.105469 638.050781 C 273.632812 631.105469 179.527344 537 171.949219 418.894531 L 195.316406 418.894531 C 202.894531 418.894531 209.210938 412.578125 209.210938 405 C 209.210938 397.421875 202.894531 391.105469 195.316406 391.105469 L 171.949219 391.105469 C 178.894531 273.632812 273 179.527344 391.105469 171.949219 L 391.105469 194.683594 C 391.105469 202.261719 397.421875 208.578125 405 208.578125 C 412.578125 208.578125 418.894531 202.261719 418.894531 194.683594 L 418.894531 171.949219 C 536.367188 178.894531 630.472656 273 638.050781 391.105469 L 615.316406 391.105469 C 607.738281 391.105469 601.421875 397.421875 601.421875 405 C 601.421875 412.578125 607.738281 418.894531 615.316406 418.894531 L 638.050781 418.894531 C 631.105469 536.367188 536.367188 631.105469 418.894531 638.050781 Z M 418.894531 638.050781 " fill-opacity="1" fill-rule="nonzero"/></svg>