<svg xmlns="http://www.w3.org/2000/svg" xmlns:xlink="http://www.w3.org/1999/xlink" width="1080" zoomAndPan="magnify" viewBox="0 0 810 809.999993" height="1080" preserveAspectRatio="xMidYMid meet" version="1.0"><defs><clipPath id="80eb6c8604"><path d="M 68.949219 105 L 740.949219 105 L 740.949219 403 L 68.949219 403 Z M 68.949219 105 " clip-rule="nonzero"/></clipPath></defs><g clip-path="url(#80eb6c8604)"><path fill="#bdb6d7" d="M 720.804688 261.523438 L 612.371094 261.523438 L 612.371094 105.480469 L 185.933594 105.480469 L 185.933594 261.523438 L 89.171875 261.523438 C 78.027344 261.523438 68.949219 270.601562 68.949219 281.742188 L 68.949219 381.953125 C 68.949219 393.097656 78.027344 402.175781 89.171875 402.175781 L 720.824219 402.175781 C 731.964844 402.175781 741.042969 393.097656 741.042969 381.953125 L 741.042969 281.742188 C 741.027344 270.601562 731.949219 261.523438 720.804688 261.523438 Z M 201.34375 120.890625 L 596.984375 120.890625 L 596.984375 261.542969 L 201.34375 261.542969 Z M 725.617188 381.953125 C 725.617188 384.601562 723.472656 386.765625 720.804688 386.765625 L 89.171875 386.765625 C 86.523438 386.765625 84.359375 384.601562 84.359375 381.953125 L 84.359375 281.742188 C 84.359375 279.074219 86.523438 276.933594 89.171875 276.933594 L 720.824219 276.933594 C 723.492188 276.933594 725.636719 279.074219 725.636719 281.742188 L 725.636719 381.953125 Z M 725.617188 381.953125 " fill-opacity="1" fill-rule="nonzero"/></g><path fill="#bdb6d7" d="M 185.933594 111.890625 L 185.933594 158.410156 L 149.777344 261.523438 L 133.472656 261.523438 Z M 185.933594 111.890625 " fill-opacity="1" fill-rule="nonzero"/><path fill="#bdb6d7" d="M 669.199219 261.523438 L 652.738281 261.523438 L 612.375 155.15625 L 612.375 111.734375 Z M 669.199219 261.523438 " fill-opacity="1" fill-rule="nonzero"/><path fill="#bdb6d7" d="M 268.574219 207.773438 L 272.507812 198.949219 C 277.398438 202.886719 285.171875 205.671875 292.671875 205.671875 C 302.175781 205.671875 306.210938 202.261719 306.210938 197.722656 C 306.210938 184.535156 269.898438 193.183594 269.898438 170.488281 C 269.898438 160.628906 277.75 152.234375 294.519531 152.234375 C 301.847656 152.234375 309.542969 154.164062 314.859375 157.648438 L 311.273438 166.476562 C 305.78125 163.242188 299.742188 161.683594 294.425781 161.683594 C 284.996094 161.683594 281.15625 165.34375 281.15625 169.980469 C 281.15625 182.996094 317.390625 174.519531 317.390625 196.960938 C 317.390625 206.742188 309.445312 215.117188 292.691406 215.117188 C 283.164062 215.097656 273.636719 212.136719 268.574219 207.773438 Z M 268.574219 207.773438 " fill-opacity="1" fill-rule="nonzero"/><path fill="#bdb6d7" d="M 382.945312 153.109375 L 382.945312 214.222656 L 371.589844 214.222656 L 371.589844 188.039062 L 339.988281 188.039062 L 339.988281 214.222656 L 328.632812 214.222656 L 328.632812 153.109375 L 339.988281 153.109375 L 339.988281 178.339844 L 371.589844 178.339844 L 371.589844 153.109375 Z M 382.945312 153.109375 " fill-opacity="1" fill-rule="nonzero"/><path fill="#bdb6d7" d="M 395.003906 183.675781 C 395.003906 165.597656 408.972656 152.253906 427.925781 152.253906 C 446.882812 152.253906 460.851562 165.519531 460.851562 183.675781 C 460.851562 201.832031 446.882812 215.097656 427.925781 215.097656 C 408.972656 215.097656 395.003906 201.753906 395.003906 183.675781 Z M 449.394531 183.675781 C 449.394531 171.1875 440.21875 162.207031 427.925781 162.207031 C 415.613281 162.207031 406.460938 171.207031 406.460938 183.675781 C 406.460938 196.164062 415.632812 205.144531 427.925781 205.144531 C 440.21875 205.144531 449.394531 196.164062 449.394531 183.675781 Z M 449.394531 183.675781 " fill-opacity="1" fill-rule="nonzero"/><path fill="#bdb6d7" d="M 524.046875 174.851562 C 524.046875 188.292969 514.089844 196.59375 498.019531 196.59375 L 484.226562 196.59375 L 484.226562 214.222656 L 472.871094 214.222656 L 472.871094 153.109375 L 498.019531 153.109375 C 514.089844 153.109375 524.046875 161.332031 524.046875 174.851562 Z M 512.609375 174.851562 C 512.609375 167.175781 507.46875 162.714844 497.511719 162.714844 L 484.246094 162.714844 L 484.246094 186.988281 L 497.511719 186.988281 C 507.449219 186.988281 512.609375 182.546875 512.609375 174.851562 Z M 512.609375 174.851562 " fill-opacity="1" fill-rule="nonzero"/><path fill="#bdb6d7" d="M 683.59375 402.175781 L 683.59375 685.585938 C 683.59375 695.96875 675.160156 704.421875 664.757812 704.421875 L 150.050781 704.421875 C 139.6875 704.421875 131.210938 695.988281 131.210938 685.585938 L 131.210938 402.175781 L 146.621094 402.175781 L 146.621094 685.585938 C 146.621094 687.472656 148.160156 689.011719 150.050781 689.011719 L 664.757812 689.011719 C 666.648438 689.011719 668.1875 687.472656 668.1875 685.585938 L 668.1875 402.175781 Z M 683.59375 402.175781 " fill-opacity="1" fill-rule="nonzero"/><path fill="#bdb6d7" d="M 321.054688 480.195312 L 321.054688 689.011719 L 305.644531 689.011719 L 305.644531 480.195312 C 305.644531 476.808594 302.898438 474.039062 299.488281 474.039062 L 215.761719 474.039062 C 212.371094 474.039062 209.605469 476.808594 209.605469 480.195312 L 209.605469 689.011719 L 194.195312 689.011719 L 194.195312 480.195312 C 194.195312 468.3125 203.875 458.632812 215.761719 458.632812 L 299.507812 458.632812 C 311.390625 458.632812 321.054688 468.3125 321.054688 480.195312 Z M 321.054688 480.195312 " fill-opacity="1" fill-rule="nonzero"/><path fill="#bdb6d7" d="M 609.996094 589.230469 L 383.101562 589.230469 C 371.78125 589.230469 362.570312 580.015625 362.570312 568.699219 L 362.570312 479.183594 C 362.570312 467.863281 371.78125 458.652344 383.101562 458.652344 L 609.996094 458.652344 C 621.316406 458.652344 630.527344 467.863281 630.527344 479.183594 L 630.527344 568.699219 C 630.527344 580.015625 621.316406 589.230469 609.996094 589.230469 Z M 383.101562 474.039062 C 380.277344 474.039062 377.976562 476.339844 377.976562 479.164062 L 377.976562 568.679688 C 377.976562 571.503906 380.277344 573.800781 383.101562 573.800781 L 609.996094 573.800781 C 612.820312 573.800781 615.121094 571.503906 615.121094 568.679688 L 615.121094 479.164062 C 615.121094 476.339844 612.820312 474.039062 609.996094 474.039062 Z M 383.101562 474.039062 " fill-opacity="1" fill-rule="nonzero"/><path fill="#bdb6d7" d="M 127.863281 276.933594 L 143.269531 276.933594 L 143.269531 386.765625 L 127.863281 386.765625 Z M 127.863281 276.933594 " fill-opacity="1" fill-rule="nonzero"/><path fill="#bdb6d7" d="M 204.832031 276.933594 L 220.242188 276.933594 L 220.242188 386.765625 L 204.832031 386.765625 Z M 204.832031 276.933594 " fill-opacity="1" fill-rule="nonzero"/><path fill="#bdb6d7" d="M 281.820312 276.933594 L 297.230469 276.933594 L 297.230469 386.765625 L 281.820312 386.765625 Z M 281.820312 276.933594 " fill-opacity="1" fill-rule="nonzero"/><path fill="#bdb6d7" d="M 358.808594 276.933594 L 374.199219 276.933594 L 374.199219 386.765625 L 358.808594 386.765625 Z M 358.808594 276.933594 " fill-opacity="1" fill-rule="nonzero"/><path fill="#bdb6d7" d="M 435.777344 276.933594 L 451.1875 276.933594 L 451.1875 386.765625 L 435.777344 386.765625 Z M 435.777344 276.933594 " fill-opacity="1" fill-rule="nonzero"/><path fill="#bdb6d7" d="M 512.765625 276.933594 L 528.175781 276.933594 L 528.175781 386.765625 L 512.765625 386.765625 Z M 512.765625 276.933594 " fill-opacity="1" fill-rule="nonzero"/><path fill="#bdb6d7" d="M 589.734375 276.933594 L 605.144531 276.933594 L 605.144531 386.765625 L 589.734375 386.765625 Z M 589.734375 276.933594 " fill-opacity="1" fill-rule="nonzero"/><path fill="#bdb6d7" d="M 666.726562 276.933594 L 682.132812 276.933594 L 682.132812 386.765625 L 666.726562 386.765625 Z M 666.726562 276.933594 " fill-opacity="1" fill-rule="nonzero"/></svg>