<svg xmlns="http://www.w3.org/2000/svg" xmlns:xlink="http://www.w3.org/1999/xlink" width="1080" zoomAndPan="magnify" viewBox="0 0 810 809.999993" height="1080" preserveAspectRatio="xMidYMid meet" version="1.0"><defs><g/><clipPath id="2ba72de28b"><path d="M 193.875 105 L 616.125 105 L 616.125 705 L 193.875 705 Z M 193.875 105 " clip-rule="nonzero"/></clipPath></defs><g fill="#ffffff" fill-opacity="1"><g transform="translate(17.871166, 14.532539)"><g><path d="M 0.421875 0 L 0.40625 -0.078125 L 0.390625 -0.078125 C 0.367188 -0.046875 0.34375 -0.0195312 0.3125 0 C 0.289062 0.0078125 0.257812 0.015625 0.21875 0.015625 C 0.164062 0.015625 0.125 0 0.09375 -0.03125 C 0.0625 -0.0625 0.046875 -0.0976562 0.046875 -0.140625 C 0.046875 -0.253906 0.132812 -0.3125 0.3125 -0.3125 L 0.390625 -0.328125 L 0.390625 -0.359375 C 0.390625 -0.398438 0.378906 -0.429688 0.359375 -0.453125 C 0.347656 -0.472656 0.320312 -0.484375 0.28125 -0.484375 C 0.238281 -0.484375 0.1875 -0.46875 0.125 -0.4375 L 0.109375 -0.5 C 0.128906 -0.507812 0.15625 -0.519531 0.1875 -0.53125 C 0.21875 -0.539062 0.25 -0.546875 0.28125 -0.546875 C 0.351562 -0.546875 0.398438 -0.53125 0.421875 -0.5 C 0.453125 -0.46875 0.46875 -0.421875 0.46875 -0.359375 L 0.46875 0 Z M 0.234375 -0.0625 C 0.285156 -0.0625 0.320312 -0.0703125 0.34375 -0.09375 C 0.375 -0.125 0.390625 -0.164062 0.390625 -0.21875 L 0.390625 -0.265625 L 0.3125 -0.265625 C 0.25 -0.253906 0.203125 -0.238281 0.171875 -0.21875 C 0.140625 -0.207031 0.125 -0.179688 0.125 -0.140625 C 0.125 -0.117188 0.132812 -0.0976562 0.15625 -0.078125 C 0.175781 -0.0664062 0.203125 -0.0625 0.234375 -0.0625 Z M 0.234375 -0.0625 "/></g></g></g><g clip-path="url(#2ba72de28b)"><path fill="#e6abbf" d="M 571.148438 105 L 239.789062 105 C 214.515625 105 193.921875 125.59375 193.921875 150.867188 L 193.921875 659.132812 C 193.921875 684.40625 214.515625 705 239.789062 705 L 570.210938 705 C 595.484375 705 616.078125 684.40625 616.078125 659.132812 L 616.078125 150.867188 C 616.078125 125.59375 595.484375 105 571.148438 105 Z M 239.789062 123.722656 L 570.210938 123.722656 C 585.1875 123.722656 597.355469 135.890625 597.355469 150.867188 L 597.355469 186.433594 L 213.582031 186.433594 L 213.582031 150.867188 C 213.582031 135.890625 225.75 123.722656 239.789062 123.722656 Z M 597.355469 205.15625 L 597.355469 603.90625 L 213.582031 603.90625 L 213.582031 205.15625 Z M 571.148438 685.34375 L 239.789062 685.34375 C 224.8125 685.34375 212.644531 673.175781 212.644531 658.199219 L 212.644531 622.628906 L 596.417969 622.628906 L 596.417969 658.199219 C 597.355469 673.175781 585.1875 685.34375 571.148438 685.34375 Z M 571.148438 685.34375 " fill-opacity="1" fill-rule="nonzero"/></g><path fill="#e6abbf" d="M 369.898438 163.96875 L 441.039062 163.96875 C 446.652344 163.96875 450.398438 160.226562 450.398438 154.609375 C 450.398438 148.992188 446.652344 145.25 441.039062 145.25 L 369.898438 145.25 C 364.28125 145.25 360.539062 148.992188 360.539062 154.609375 C 360.539062 160.226562 365.21875 163.96875 369.898438 163.96875 Z M 369.898438 163.96875 " fill-opacity="1" fill-rule="nonzero"/><path fill="#e6abbf" d="M 405.46875 627.308594 C 390.492188 627.308594 378.324219 639.476562 378.324219 654.453125 C 378.324219 669.429688 390.492188 681.597656 405.46875 681.597656 C 420.445312 681.597656 432.613281 669.429688 432.613281 654.453125 C 432.613281 639.476562 420.445312 627.308594 405.46875 627.308594 Z M 405.46875 661.941406 C 400.789062 661.941406 397.042969 658.199219 397.042969 653.519531 C 397.042969 648.835938 400.789062 645.09375 405.46875 645.09375 C 410.148438 645.09375 413.890625 648.835938 413.890625 653.519531 C 413.890625 658.199219 410.148438 661.941406 405.46875 661.941406 Z M 405.46875 661.941406 " fill-opacity="1" fill-rule="nonzero"/><path fill="#e6abbf" d="M 405.46875 469.117188 C 469.117188 469.117188 521.535156 416.699219 521.535156 353.050781 C 521.535156 289.398438 469.117188 236.980469 405.46875 236.980469 C 341.816406 236.980469 289.398438 289.398438 289.398438 353.050781 C 289.398438 416.699219 341.816406 469.117188 405.46875 469.117188 Z M 405.46875 255.703125 C 458.820312 255.703125 502.816406 299.695312 502.816406 353.050781 C 502.816406 406.402344 458.820312 450.398438 405.46875 450.398438 C 352.113281 450.398438 308.121094 406.402344 308.121094 353.050781 C 308.121094 299.695312 352.113281 255.703125 405.46875 255.703125 Z M 405.46875 255.703125 " fill-opacity="1" fill-rule="nonzero"/><path fill="#e6abbf" d="M 372.707031 411.085938 C 374.578125 412.019531 375.515625 412.019531 377.386719 412.019531 C 379.257812 412.019531 380.195312 412.019531 382.066406 411.085938 L 468.183594 361.472656 C 470.992188 359.601562 472.863281 356.792969 472.863281 353.050781 C 472.863281 349.304688 470.992188 346.496094 468.183594 344.625 L 382.066406 295.015625 C 379.257812 293.144531 375.515625 293.144531 372.707031 295.015625 C 369.898438 296.886719 368.027344 299.695312 368.027344 303.441406 L 368.027344 402.660156 C 368.027344 406.402344 369.898438 409.210938 372.707031 411.085938 Z M 386.746094 319.351562 L 444.78125 353.050781 L 386.746094 386.746094 Z M 386.746094 319.351562 " fill-opacity="1" fill-rule="nonzero"/><path fill="#e6abbf" d="M 267.871094 545.875 L 301.566406 545.875 L 301.566406 562.722656 C 301.566406 568.339844 305.3125 572.082031 310.929688 572.082031 C 316.542969 572.082031 320.289062 568.339844 320.289062 562.722656 L 320.289062 545.875 L 543.066406 545.875 C 548.683594 545.875 552.425781 542.128906 552.425781 536.511719 C 552.425781 530.898438 548.683594 527.152344 543.066406 527.152344 L 320.289062 527.152344 L 320.289062 510.304688 C 320.289062 504.6875 316.542969 500.945312 310.929688 500.945312 C 305.3125 500.945312 301.566406 504.6875 301.566406 510.304688 L 301.566406 527.152344 L 267.871094 527.152344 C 262.253906 527.152344 258.511719 530.898438 258.511719 536.511719 C 258.511719 541.195312 263.191406 545.875 267.871094 545.875 Z M 267.871094 545.875 " fill-opacity="1" fill-rule="nonzero"/></svg>