<?xml version="1.0" encoding="utf-8"?>
<!-- Generator: Adobe Illustrator 27.5.0, SVG Export Plug-In . SVG Version: 6.00 Build 0)  -->
<svg version="1.1" xmlns="http://www.w3.org/2000/svg" xmlns:xlink="http://www.w3.org/1999/xlink" x="0px" y="0px"
	 viewBox="0 0 3710 3710" style="enable-background:new 0 0 3710 3710;" xml:space="preserve">
<g id="Background">
	<g>
		<g>
			<rect style="fill:#FFFFFF;" width="3710" height="3710"/>
		</g>
	</g>
</g>
<g id="Illustration">
	<g>
		<linearGradient id="SVGID_1_" gradientUnits="userSpaceOnUse" x1="3509.9106" y1="3692.2993" x2="1543.8303" y2="1599.3755">
			<stop  offset="0" style="stop-color:#B37CFF"/>
			<stop  offset="1" style="stop-color:#F895E7"/>
		</linearGradient>
		<path style="opacity:0.3;fill:url(#SVGID_1_);" d="M2919.597,2852.627c-72.58,74.813-137.521,118.79-187.243,151.99
			c-484.925,323.789-1039.248,230.465-1210.631,198.567c-276.505-51.464-509.914-87.769-710.453-268.948
			c-455.687-411.695-433.523-1270.521-85.323-1802.527c41.286-63.08,388.959-578.44,944.482-651.058
			c13.587-1.776,23.725-2.788,32.605-3.728c85.938-9.099,618.479-57.121,1052.714,306.68
			c62.159,52.076,162.19,146.009,254.951,289.271C3349.875,1596.706,3350.949,2408.006,2919.597,2852.627z"/>
		<g>
			<g>
				
					<linearGradient id="SVGID_00000152954179229779387630000012320303491424393864_" gradientUnits="userSpaceOnUse" x1="208.5435" y1="192.5161" x2="-540.7517" y2="1040.2599" gradientTransform="matrix(-1 0 0 1 329.6428 0)">
					<stop  offset="0" style="stop-color:#CB236D"/>
					<stop  offset="1" style="stop-color:#4C246D"/>
				</linearGradient>
				<path style="fill:url(#SVGID_00000152954179229779387630000012320303491424393864_);" d="M993.361,1687.876
					c0,0,6.284-264.215-115.411-334.93c-121.694-70.716-353.079-114.927-361.752-494.315
					c-5.078-222.11-10.574-319.221-14.257-361.565c-1.437-16.518,13.242-29.851,29.535-26.782
					c115.255,21.712,489.668,111.081,568.167,366.635C1192.704,1139.881,993.361,1687.876,993.361,1687.876z"/>
				
					<linearGradient id="SVGID_00000002381815031333338500000002468160095147619720_" gradientUnits="userSpaceOnUse" x1="-66.1027" y1="794.0449" x2="-2445.2556" y2="2495.0032" gradientTransform="matrix(-1 0 0 1 329.6428 0)">
					<stop  offset="0" style="stop-color:#A737D5"/>
					<stop  offset="1" style="stop-color:#EF497A"/>
				</linearGradient>
				<path style="fill:url(#SVGID_00000002381815031333338500000002468160095147619720_);" d="M620.61,575.842
					c126.515,112.834,272.807,312.526,350.782,512.22c10.009,32.911,39.286,102.899,52,227.249
					c11.356,103.71,5.71,213.3-8.059,285.844c-0.871,4.586-5.294,7.598-9.88,6.728c-7.886-1.496-6.837-9.978-6.766-9.71
					c15.725-123.942,9.198-278.209-26.835-417.402c-46.035-170.913-148.712-336.62-254.912-477.162l-10.929-13.839
					c-82.28-105.667-99.602-106.446-91.91-113.811C615.918,574.217,618.762,574.201,620.61,575.842z"/>
			</g>
			<g>
				
					<linearGradient id="SVGID_00000006697399442307748860000017375902421971856288_" gradientUnits="userSpaceOnUse" x1="-118.6524" y1="915.6921" x2="-654.6455" y2="1582.9481" gradientTransform="matrix(-1 0 0 1 329.6428 0)">
					<stop  offset="0" style="stop-color:#CB236D"/>
					<stop  offset="1" style="stop-color:#4C246D"/>
				</linearGradient>
				<path style="fill:url(#SVGID_00000006697399442307748860000017375902421971856288_);" d="M1202.134,2143.207
					c16.465,8.073-155.872-208.642-209.857-549.009c-25.439-160.39-25.771-361.345-117.136-438.786
					c-76.04-64.452-334.795-23.761-419.46-8.297c-10.579,1.932-14.141,15.296-5.906,22.213
					c40.601,34.098,127.455,114.527,150.086,195.585c29.828,106.84,131.404,174.796,222.339,193.188
					c90.935,18.391,141.521,36.239,185.822,181.665C1052.322,1885.19,1155.35,2120.267,1202.134,2143.207z"/>
				
					<linearGradient id="SVGID_00000017507093388251367740000000340787410899290274_" gradientUnits="userSpaceOnUse" x1="-287.6864" y1="1243.3315" x2="-1638.6073" y2="2293.4395" gradientTransform="matrix(-1 0 0 1 329.6428 0)">
					<stop  offset="0" style="stop-color:#CB236D"/>
					<stop  offset="1" style="stop-color:#4C246D"/>
				</linearGradient>
				<path style="fill:url(#SVGID_00000017507093388251367740000000340787410899290274_);" d="M574.756,1192.256
					c108.019,4.524,223.969,53.799,282.81,146.228l5.554,8.82c12.827,20.681,85.523,167.697,125.898,289.565
					c0.503,1.519-0.321,3.159-1.84,3.662c-2.581,0.854-3.873-1.985-3.627-1.734c-28.13-68.847-68.532-156.133-100.71-221.407
					c-34.508-71.227-58.656-119.464-137.366-165.668c-87.607-49.759-171.302-54.882-171.051-54.83
					c-1.277-0.13-2.208-1.272-2.077-2.549C572.472,1193.115,573.539,1192.208,574.756,1192.256z"/>
			</g>
		</g>
		<g>
			
				<linearGradient id="SVGID_00000090276694347802959080000001521663118830268306_" gradientUnits="userSpaceOnUse" x1="1165.5349" y1="912.7756" x2="3024.0005" y2="3682.5554">
				<stop  offset="0" style="stop-color:#2B3582"/>
				<stop  offset="1" style="stop-color:#150E42"/>
			</linearGradient>
			<path style="fill:url(#SVGID_00000090276694347802959080000001521663118830268306_);" d="M945.626,600.241
				c-2.713,439.102-10.156,1953.696,12.3,2490.045c2.379,56.823,42.015,101.864,90.632,102.994
				c240.46,5.593,1121.809,15.69,1514.605-9.501c81.815-5.25,145.755-83.81,146.016-179.677
				c1.254-460.871-0.175-1757.044-51.918-2350.054c-6.202-71.053-54.773-126.979-115.594-133.173
				c-262.179-26.702-1148.094-88.292-1487.309-57.414C993.182,469.03,946.071,528.439,945.626,600.241z"/>
			
				<linearGradient id="SVGID_00000062905773056105399820000004552428192345211805_" gradientUnits="userSpaceOnUse" x1="3039.3713" y1="-104.4819" x2="1018.6922" y2="2885.5762">
				<stop  offset="0" style="stop-color:#A737D5"/>
				<stop  offset="1" style="stop-color:#EF497A"/>
			</linearGradient>
			<path style="fill:url(#SVGID_00000062905773056105399820000004552428192345211805_);" d="M1054.877,733.31
				c-7.616,354.5-30.727,1533.807-11.238,1969.472c2.849,63.677,46.542,114.546,100.996,117.451
				c224.196,11.974,988.825,34.312,1316.868-1.394c59.069-6.428,104.646-63.088,106.798-132.458
				c11.223-361.715,42.549-1459.963,23.666-1890.751c-3.01-68.723-49.378-124.187-108.037-129.46
				c-242.682-21.814-1055.554-70.182-1334.44-48.172C1097.139,622.127,1056.198,671.937,1054.877,733.31z"/>
			<path style="fill:#FFFFFF;" d="M1704.554,545.242L1704.554,545.242c0.202,13.471,9.342,24.444,20.85,24.976
				c56.815,2.627,216.861,10.064,288.398,13.845c14.103,0.743,24.941-14.24,22.024-30.411l-0.499-2.759
				c-1.987-11.037-9.956-19.244-19.563-20.128c-48.381-4.455-194.352-16.624-290.862-11.142
				C1713.304,520.282,1704.349,531.664,1704.554,545.242z"/>
		</g>
		<g>
			
				<linearGradient id="SVGID_00000090997277243026364620000007419197604450385547_" gradientUnits="userSpaceOnUse" x1="-2397.072" y1="2119.7312" x2="-2443.7322" y2="2185.564" gradientTransform="matrix(-1 0 0 1 334.8383 0)">
				<stop  offset="0" style="stop-color:#F9B776"/>
				<stop  offset="1" style="stop-color:#F47960"/>
			</linearGradient>
			<path style="fill:url(#SVGID_00000090997277243026364620000007419197604450385547_);" d="M2746.413,2156.712
				c0,0,6.554-11.854,5.849-21.391c-0.704-9.537,5.239-23.543-1.085-22.507c-6.324,1.036-7.629,0.191-9.346,11.635
				C2740.114,2135.894,2724.675,2178.104,2746.413,2156.712z"/>
			<g>
				
					<linearGradient id="SVGID_00000150783619789377128280000009299426733760764548_" gradientUnits="userSpaceOnUse" x1="2453.7349" y1="3177.3022" x2="2111.1804" y2="3446.2769" gradientTransform="matrix(1 0 0 1 710.1674 0)">
					<stop  offset="0" style="stop-color:#2B3582"/>
					<stop  offset="1" style="stop-color:#150E42"/>
				</linearGradient>
				<path style="fill:url(#SVGID_00000150783619789377128280000009299426733760764548_);" d="M3051.817,3245.996
					c-23.036-0.645-34.951-3.358-41.111-5.875c-0.014,2.29-0.001,4.622,0.073,7.036c0.08,2.58,1.991,4.64,4.341,4.625l126.481-0.816
					c4.036-0.026,6.395-4.708,4.646-8.409C3129.663,3243.927,3087.426,3246.993,3051.817,3245.996z"/>
				
					<linearGradient id="SVGID_00000066487919876182026020000018424225632644364930_" gradientUnits="userSpaceOnUse" x1="-2797.3962" y1="3243.5867" x2="-2494.2849" y2="3143.6421" gradientTransform="matrix(-1 0 0 1 334.8383 0)">
					<stop  offset="0" style="stop-color:#2B3582"/>
					<stop  offset="1" style="stop-color:#150E42"/>
				</linearGradient>
				<path style="fill:url(#SVGID_00000066487919876182026020000018424225632644364930_);" d="M3016.104,3197.5
					c2.896-10.285,12.393-17.262,23.073-16.926l10.563,0.334c56.217,13.479,84.667,44.558,95.836,60.166
					c0.217,0.303,0.348,0.632,0.5,0.954c-16.584,1.37-58.821,4.435-94.43,3.439c-23.036-0.645-34.951-3.358-41.111-5.875
					C3010.641,3221.609,3013.295,3207.475,3016.104,3197.5z"/>
			</g>
			
				<linearGradient id="SVGID_00000148648270185311579290000002306429845554984086_" gradientUnits="userSpaceOnUse" x1="-2707.9326" y1="3103.6877" x2="-2725.9187" y2="3260.6584" gradientTransform="matrix(-1 0 0 1 334.8383 0)">
				<stop  offset="0" style="stop-color:#F9B776"/>
				<stop  offset="1" style="stop-color:#F47960"/>
			</linearGradient>
			<path style="fill:url(#SVGID_00000148648270185311579290000002306429845554984086_);" d="M3067.5,3144.619l-8.834,42.526
				c-0.647,3.116-3.042,5.45-5.942,5.722c-3.55,0.333-8.604,0.529-13.686-0.218c-4.557-0.669-7.731-5.301-6.923-10.271l6.14-37.76
				H3067.5z"/>
			<g>
				
					<linearGradient id="SVGID_00000056409514405796324120000003543505589580204473_" gradientUnits="userSpaceOnUse" x1="-2437.542" y1="3177.3022" x2="-2780.0962" y2="3446.2769" gradientTransform="matrix(-1 0 0 1 334.8383 0)">
					<stop  offset="0" style="stop-color:#2B3582"/>
					<stop  offset="1" style="stop-color:#150E42"/>
				</linearGradient>
				<path style="fill:url(#SVGID_00000056409514405796324120000003543505589580204473_);" d="M2884.466,3245.996
					c23.036-0.645,34.951-3.358,41.111-5.875c0.014,2.29,0.001,4.622-0.073,7.036c-0.08,2.58-1.991,4.64-4.341,4.625l-126.481-0.816
					c-4.036-0.026-6.395-4.708-4.646-8.409C2806.619,3243.927,2848.856,3246.993,2884.466,3245.996z"/>
				
					<linearGradient id="SVGID_00000137825308408395754340000009569852967433971373_" gradientUnits="userSpaceOnUse" x1="-2580.7881" y1="3232.6538" x2="-2298.5027" y2="3139.5762" gradientTransform="matrix(-1 0 0 1 334.8383 0)">
					<stop  offset="0" style="stop-color:#2B3582"/>
					<stop  offset="1" style="stop-color:#150E42"/>
				</linearGradient>
				<path style="fill:url(#SVGID_00000137825308408395754340000009569852967433971373_);" d="M2790.035,3242.557
					c0.153-0.322,0.284-0.651,0.5-0.954c11.17-15.607,39.62-46.687,95.837-60.167l26.969-0.851c0,0,12.009,20.872,12.236,59.535
					c-6.16,2.518-18.075,5.23-41.111,5.875C2848.856,3246.993,2806.619,3243.927,2790.035,3242.557z"/>
			</g>
			
				<linearGradient id="SVGID_00000083806495779702341860000017724367327651920781_" gradientUnits="userSpaceOnUse" x1="-2561.4229" y1="3120.4753" x2="-2579.4089" y2="3277.4458" gradientTransform="matrix(-1 0 0 1 334.8383 0)">
				<stop  offset="0" style="stop-color:#F9B776"/>
				<stop  offset="1" style="stop-color:#F47960"/>
			</linearGradient>
			<path style="fill:url(#SVGID_00000083806495779702341860000017724367327651920781_);" d="M2918.342,3139.715
				c-0.299,2.01-3.996,32.563-5.427,44.409c-0.34,2.815-2.379,4.993-4.95,5.3c-4.592,0.548-12.023,1.048-18.524-0.285
				c-3.507-0.719-6.046-4.088-6.046-8.006v-47.959L2918.342,3139.715z"/>
			
				<linearGradient id="SVGID_00000169556432857653150930000014241848023072477100_" gradientUnits="userSpaceOnUse" x1="-2658.8774" y1="2621.0676" x2="-2658.8774" y2="3353.4478" gradientTransform="matrix(-1 0 0 1 334.8383 0)">
				<stop  offset="0" style="stop-color:#7C27DD"/>
				<stop  offset="1" style="stop-color:#2B41D9"/>
			</linearGradient>
			<path style="fill:url(#SVGID_00000169556432857653150930000014241848023072477100_);" d="M2939.978,2582.144
				c0,0-65.047,247.2-63.871,558.277c0.021,5.672,4.004,10.567,9.554,11.736c8.178,1.722,20.2,3.768,30.153,3.489
				c5.313-0.149,9.754-4.089,10.648-9.328c9.12-53.486,61.461-354.801,91.283-403.718c0,0,19.62,268.364,13.349,407.593
				c-0.156,3.462,2.379,6.465,5.821,6.863c5.222,0.604,13.576,1.062,24.208-0.067c4.036-0.428,7.292-3.479,7.869-7.497
				c6.496-45.267,43.889-314.711,42.299-508.809c-0.09-10.946-28.947-58.538-28.947-58.538H2939.978z"/>
			
				<linearGradient id="SVGID_00000054952465193884341240000002433382549991893423_" gradientUnits="userSpaceOnUse" x1="-2808.8318" y1="2305.8042" x2="-2745.7627" y2="2124.7354" gradientTransform="matrix(-1 0 0 1 334.8383 0)">
				<stop  offset="0" style="stop-color:#53D8FF"/>
				<stop  offset="1" style="stop-color:#3840F7"/>
			</linearGradient>
			<path style="fill:url(#SVGID_00000054952465193884341240000002433382549991893423_);" d="M3142.744,2367.152
				c17.681-48.388,11.267-106.819,11.2-107.403l-4.872,0.557c0.065,0.573,6.342,57.883-10.936,105.162L3142.744,2367.152z"/>
			<g>
				
					<linearGradient id="SVGID_00000125561024995365939090000013476539920056960959_" gradientUnits="userSpaceOnUse" x1="-2388.8801" y1="2398.8721" x2="-2494.6914" y2="3057.6331" gradientTransform="matrix(-1 0 0 1 334.8383 0)">
					<stop  offset="0" style="stop-color:#F9B776"/>
					<stop  offset="1" style="stop-color:#F47960"/>
				</linearGradient>
				<path style="fill:url(#SVGID_00000125561024995365939090000013476539920056960959_);" d="M2689.514,2387.393
					c-14.598-79.417,6.35-210.301,6.35-210.301l28.534,29.571c0,0,4.818,106.843,25.131,151.06
					C2736.159,2359.316,2710.242,2365.285,2689.514,2387.393z"/>
				
					<linearGradient id="SVGID_00000064321170653389659490000016746955992444196759_" gradientUnits="userSpaceOnUse" x1="-2627.3381" y1="2358.7727" x2="-2721.9419" y2="2947.7571" gradientTransform="matrix(-1 0 0 1 334.8383 0)">
					<stop  offset="0" style="stop-color:#CB236D"/>
					<stop  offset="1" style="stop-color:#4C246D"/>
				</linearGradient>
				<path style="fill:url(#SVGID_00000064321170653389659490000016746955992444196759_);" d="M2749.529,2357.723
					c3.834,8.346,8.219,14.469,13.229,17.213c18.341,10.071,53.924-47.393,80.444-97.198c19.073-35.797,33.478-67.626,33.478-67.626
					c19.073-21.545,66.314-24.506,110.259-21.759c45.745,2.838,87.859,11.841,90.911,12.512c0.122,0.031,0.183,0.031,0.183,0.031
					c21.057,2.777,39.337,5.096,52.551,6.775c15.442,1.952,29.572,9.582,39.764,21.362
					c40.374,46.722,128.997,174.681,24.688,303.616c-13.336-7.416-32.318-19.287-45.196-33.051
					c11.535-32.531,12.481-74.096-11.688-125.09c-0.824,4.059-1.861,8.057-3.082,11.994
					c-33.355,105.59-35.125,193.479-35.033,213.712c0,2.778-1.648,5.249-4.212,6.256c-43.854,17.578-128.325,7.111-156.645,2.899
					c-5.218-0.763-8.698-5.615-7.996-10.833c8.454-61.248-14.618-146.514-38.238-213.316
					c-138.608,137.358-188.115,85.496-203.431,2.173C2710.242,2365.285,2736.159,2359.316,2749.529,2357.723z"/>
			</g>
			
				<linearGradient id="SVGID_00000116921962414124617660000004858477228976230313_" gradientUnits="userSpaceOnUse" x1="-2860.2073" y1="2586.4243" x2="-2700.9614" y2="2586.4243" gradientTransform="matrix(-1 0 0 1 334.8383 0)">
				<stop  offset="0" style="stop-color:#F9B776"/>
				<stop  offset="1" style="stop-color:#F47960"/>
			</linearGradient>
			<path style="fill:url(#SVGID_00000116921962414124617660000004858477228976230313_);" d="M3072.364,2588.232
				c12.038-6.754,58.723-35.748,77.484-88.635c12.883,13.75,31.85,25.631,45.197,33.041c-19.932,24.638-46.905,49.312-82.611,73.462
				c-1.266,27.479-22.389,37.651-27.221,46.552c-4.832,8.901,2.035,6.866-1.017,18.056c-3.052,11.19-35.095-17.802-42.725-24.414
				c-7.629-6.612-3.052-24.923-3.052-24.923s-0.509-3.814-2.543-11.444C3033.847,2602.315,3072.208,2588.29,3072.364,2588.232z"/>
			<g>
				
					<linearGradient id="SVGID_00000123399839007602626200000006970115377770177447_" gradientUnits="userSpaceOnUse" x1="-2668.198" y1="2098.4146" x2="-2736.8723" y2="2395.1855" gradientTransform="matrix(-1 0 0 1 334.8383 0)">
					<stop  offset="0" style="stop-color:#F9B776"/>
					<stop  offset="1" style="stop-color:#F47960"/>
				</linearGradient>
				<path style="fill:url(#SVGID_00000123399839007602626200000006970115377770177447_);" d="M3054.928,2121.524l8.455,86.381
					c0,0-48.594,14.636-83.938-10.302l24.846-78.507L3054.928,2121.524z"/>
			</g>
			<g>
				
					<linearGradient id="SVGID_00000067930353851541114800000017683717535669362061_" gradientUnits="userSpaceOnUse" x1="3439.4258" y1="1957.4568" x2="2422.2551" y2="2660.6006">
					<stop  offset="0" style="stop-color:#CB236D"/>
					<stop  offset="1" style="stop-color:#4C246D"/>
				</linearGradient>
				<path style="fill:url(#SVGID_00000067930353851541114800000017683717535669362061_);" d="M2891.936,2382.321
					c0.063,0,0.127-0.004,0.191-0.012c0.836-0.104,1.429-0.866,1.325-1.703c-0.084-0.67-8.306-67.36-3.843-86.573
					c0.191-0.821-0.319-1.641-1.14-1.831c-0.815-0.203-1.642,0.319-1.831,1.14c-4.587,19.74,3.442,84.879,3.786,87.643
					C2890.519,2381.756,2891.178,2382.321,2891.936,2382.321z"/>
			</g>
			<g>
				
					<linearGradient id="SVGID_00000156569136936154625610000012215751132238545556_" gradientUnits="userSpaceOnUse" x1="-2343.5979" y1="2083.1907" x2="-2507.0269" y2="2313.7712" gradientTransform="matrix(-1 0 0 1 334.8383 0)">
					<stop  offset="0" style="stop-color:#2B3582"/>
					<stop  offset="1" style="stop-color:#150E42"/>
				</linearGradient>
				<path style="fill:url(#SVGID_00000156569136936154625610000012215751132238545556_);" d="M2698.625,2085.919
					c0.072-1.79,0.936-3.456,2.358-4.545c1.423-1.089,3.256-1.49,5.003-1.092l43.62,9.922c1.694,0.385,2.828,1.981,2.635,3.708
					l-12.683,113.374c-0.055,0.489-0.302,0.936-0.688,1.241c-0.386,0.305-0.878,0.444-1.366,0.384l-38.074-4.613
					c-3.119-0.378-5.425-3.087-5.299-6.227L2698.625,2085.919z"/>
				
					<linearGradient id="SVGID_00000173125165068967852640000013260738153002478721_" gradientUnits="userSpaceOnUse" x1="-2354.8477" y1="2094.5061" x2="-2486.5037" y2="2280.2585" gradientTransform="matrix(-1 0 0 1 334.8383 0)">
					<stop  offset="0" style="stop-color:#53D8FF"/>
					<stop  offset="1" style="stop-color:#3840F7"/>
				</linearGradient>
				<path style="fill:url(#SVGID_00000173125165068967852640000013260738153002478721_);" d="M2710.893,2092.46
					c0.056-1.016,0.563-1.954,1.383-2.558c0.819-0.604,1.865-0.811,2.853-0.563l28.699,7.175c1.66,0.415,2.756,1.994,2.564,3.693
					l-10.889,96.548c-0.057,0.507-0.321,0.966-0.729,1.271c-0.408,0.305-0.924,0.427-1.426,0.337l-26.466-4.71
					c-0.918-0.164-1.57-0.987-1.518-1.917L2710.893,2092.46z"/>
				
					<linearGradient id="SVGID_00000078038651363847519520000015671113301521012870_" gradientUnits="userSpaceOnUse" x1="-2441.251" y1="1611.5786" x2="-2452.438" y2="1627.3624" gradientTransform="matrix(-0.9792 -0.2029 -0.1066 0.5144 512.2762 763.8746)">
					<stop  offset="0" style="stop-color:#8D55D1"/>
					<stop  offset="0.9964" style="stop-color:#1C2873"/>
				</linearGradient>
				<path style="fill:url(#SVGID_00000078038651363847519520000015671113301521012870_);" d="M2727.384,2089.862
					c-0.071,0.342,0.399,0.728,1.05,0.863l9.597,1.989c0.651,0.135,1.236-0.033,1.306-0.375l0.069-0.332
					c0.071-0.342-0.399-0.728-1.05-0.863l-9.597-1.989c-0.65-0.135-1.235,0.033-1.306,0.375L2727.384,2089.862z"/>
			</g>
			
				<linearGradient id="SVGID_00000129194490339613353730000006576504471727315123_" gradientUnits="userSpaceOnUse" x1="-2339.8967" y1="2107.1201" x2="-2436.479" y2="2243.3875" gradientTransform="matrix(-1 0 0 1 334.8383 0)">
				<stop  offset="0" style="stop-color:#F9B776"/>
				<stop  offset="1" style="stop-color:#F47960"/>
			</linearGradient>
			<path style="fill:url(#SVGID_00000129194490339613353730000006576504471727315123_);" d="M2683.476,2114.725
				c7.047-2.597,20.838-26.462,23.479-18.611c2.641,7.851-1.116,18.611,0,21.949c1.115,3.339,8.745,21.889,5.311,30.422
				c-2.477,6.157-6.564,25.106-8.648,35.178c-0.692,3.343-3.635,5.741-7.05,5.743c-3.414,0.002-6.36-2.393-7.055-5.736
				C2689.235,2182.331,2676.429,2117.322,2683.476,2114.725z"/>
			<g>
				
					<linearGradient id="SVGID_00000173842056765938777640000012149078401903736478_" gradientUnits="userSpaceOnUse" x1="-2298.1045" y1="3257.9924" x2="-2437.2766" y2="3364.4805" gradientTransform="matrix(-0.9808 0.1949 0.1949 0.9808 79.5209 -659.8097)">
					<stop  offset="0" style="stop-color:#F9B776"/>
					<stop  offset="1" style="stop-color:#F47960"/>
				</linearGradient>
				<path style="fill:url(#SVGID_00000173842056765938777640000012149078401903736478_);" d="M2963.896,2038.452
					c0,0-12.979,59.595-8.862,88.703c4.117,29.108,1.625,49.022,36.066,48.205c34.44-0.817,59.188-22.972,68.682-54.668
					c0,0,15.023-48.919,6.087-65.955C3056.934,2037.702,2963.896,2038.452,2963.896,2038.452z"/>
				
					<linearGradient id="SVGID_00000171706556526632294320000007406583736538991017_" gradientUnits="userSpaceOnUse" x1="-2396.0764" y1="3173.677" x2="-2266.4578" y2="3340.5608" gradientTransform="matrix(-0.9808 0.1949 0.1949 0.9808 79.5209 -659.8097)">
					<stop  offset="0" style="stop-color:#2B3582"/>
					<stop  offset="1" style="stop-color:#150E42"/>
				</linearGradient>
				<path style="fill:url(#SVGID_00000171706556526632294320000007406583736538991017_);" d="M3044.31,2102.334l-2.061-0.459
					c-2.624-0.584-4.226-3.25-3.48-5.833c2.892-10.002,7.913-32.604-4.872-35.104c-16.477-3.221-79.271-3.537-96.546-22.364
					c-16.603-18.094-10.794-46.863,4.368-57.73c1.015-0.727,2.409-0.587,3.196,0.382l1.911,2.352c1.308,1.61,3.91,0.81,4.087-1.257
					c0.17-1.984,2.594-2.844,3.958-1.393c5.275,5.611,18.144,13.85,48.1,13.442c42.573-0.581,73.026,10.644,79.34,38.887
					c0.401,1.794,2.518,2.416,3.872,1.171c2.665-2.45,7.345-4.282,14.914-0.117c13.162,7.242,13.435,32.76-7.268,57.908
					c-0.983,1.194-0.61,3.026,0.827,3.601c5.062,2.027,13.124,7.642-2.351,20.337c-16.006,13.131-29.534,15.003-34.852,15.176
					c-1.323,0.043-2.395-1.033-2.367-2.356l0.54-26.034c0.031-1.473-1.31-2.597-2.755-2.31L3044.31,2102.334z"/>
				
					<linearGradient id="SVGID_00000041274858247097147800000010333106706151944066_" gradientUnits="userSpaceOnUse" x1="-2315.3672" y1="3235.4321" x2="-2454.5393" y2="3341.9199" gradientTransform="matrix(-0.9808 0.1949 0.1949 0.9808 79.5209 -659.8097)">
					<stop  offset="0" style="stop-color:#F9B776"/>
					<stop  offset="1" style="stop-color:#F47960"/>
				</linearGradient>
				<path style="fill:url(#SVGID_00000041274858247097147800000010333106706151944066_);" d="M3044.321,2107.802
					c0,0,2.147-36.848,19.808-30.145c17.661,6.703-0.351,40.878-12.72,44.699L3044.321,2107.802z"/>
			</g>
		</g>
		<g>
			<defs>
				<path id="SVGID_00000000204662930545419520000011173669959789097376_" d="M989.269,741.531
					c-13.781,354.592-56.34,1534.191-30.679,1969.763c3.75,63.664,67.901,114.225,148.284,116.741
					c330.946,10.372,1459.782,27.243,1944.402-10.812c87.263-6.851,154.963-63.843,158.638-133.236
					c19.159-361.834,73.267-1460.424,48.467-1891.123c-3.953-68.709-72.02-123.847-158.594-128.701
					c-358.17-20.08-1558.053-62.64-1969.992-38.633C1052.464,630.034,991.658,680.142,989.269,741.531z"/>
			</defs>
			<clipPath id="SVGID_00000064335883161740022000000003061576052016902588_">
				<use xlink:href="#SVGID_00000000204662930545419520000011173669959789097376_"  style="overflow:visible;"/>
			</clipPath>
			<g style="clip-path:url(#SVGID_00000064335883161740022000000003061576052016902588_);">
				
					<linearGradient id="SVGID_00000158020437200230577620000010616686375474838178_" gradientUnits="userSpaceOnUse" x1="1948.6003" y1="1842.7273" x2="852.9802" y2="3138.0166">
					<stop  offset="0" style="stop-color:#FDF53F"/>
					<stop  offset="1" style="stop-color:#D93C65"/>
				</linearGradient>
				<path style="fill:url(#SVGID_00000158020437200230577620000010616686375474838178_);" d="M1480.177,1617.793
					c-14.321,8.488,150.478,580.453,101.247,976.112c0,0,192.108,69.01,386.45,4.83c0,0,271.534-559.509,272.846-622.817
					c1.487-71.733-98.705-425.839-98.705-425.839S1833.551,1408.364,1480.177,1617.793z"/>
				
					<linearGradient id="SVGID_00000083785611304320257910000010165755400833233043_" gradientUnits="userSpaceOnUse" x1="2230.696" y1="2160.6875" x2="2618.5815" y2="1440.33" gradientTransform="matrix(0.9919 -0.1267 0.1267 0.9919 -672.3746 6.8559)">
					<stop  offset="0" style="stop-color:#F9B776"/>
					<stop  offset="1" style="stop-color:#F47960"/>
				</linearGradient>
				<path style="fill:url(#SVGID_00000083785611304320257910000010165755400833233043_);" d="M1966.037,1805.407
					c175.346-16.369,170.136-167.75,147.448-266.25c-61.011-20.856-214.334-60.39-404.562-14.985
					C1716.229,1609.79,1755.508,1825.06,1966.037,1805.407z"/>
				
					<linearGradient id="SVGID_00000109001638968735208150000013632496050125863571_" gradientUnits="userSpaceOnUse" x1="2226.6426" y1="2158.5076" x2="2614.5396" y2="1438.1288" gradientTransform="matrix(0.9919 -0.1267 0.1267 0.9919 -672.3746 6.8559)">
					<stop  offset="0" style="stop-color:#F9B776"/>
					<stop  offset="1" style="stop-color:#F47960"/>
				</linearGradient>
				<path style="fill:url(#SVGID_00000109001638968735208150000013632496050125863571_);" d="M1945.08,1228.701
					c0,0-63.326,194.33-104.12,278.066c-11.972,24.574-3.534,54.363,19.687,68.785c26.512,16.466,68.015,30.839,128.726,23.703
					c25.525-3,45.723-23.108,49.298-48.559l30.433-216.633L1945.08,1228.701z"/>
				
					<linearGradient id="SVGID_00000072240298901318011600000015698214482716886146_" gradientUnits="userSpaceOnUse" x1="3463.4792" y1="1609.5006" x2="2618.7043" y2="2291.7251" gradientTransform="matrix(0.9919 -0.1267 0.1267 0.9919 -672.3746 6.8559)">
					<stop  offset="0" style="stop-color:#F9B776"/>
					<stop  offset="1" style="stop-color:#F47960"/>
				</linearGradient>
				<path style="fill:url(#SVGID_00000072240298901318011600000015698214482716886146_);" d="M2142.015,1550.08
					c0,0,314.758,433.748,727.781-0.692l63.158,76.525c0,0-270.956,564.468-733.259,255.766L2142.015,1550.08z"/>
				
					<linearGradient id="SVGID_00000044148431388078743870000017408427100953532546_" gradientUnits="userSpaceOnUse" x1="3679.0142" y1="1876.3807" x2="2834.2185" y2="2558.6221" gradientTransform="matrix(0.9919 -0.1267 0.1267 0.9919 -672.3746 6.8559)">
					<stop  offset="0" style="stop-color:#F9B776"/>
					<stop  offset="1" style="stop-color:#F47960"/>
				</linearGradient>
				<path style="fill:url(#SVGID_00000044148431388078743870000017408427100953532546_);" d="M3232.323,1576.339
					c-8.079-18.132-23.968-31.607-43.177-36.62l-187.471-48.94c0,0-5.611-22.525,32.771-43.22
					c38.385-20.695,23.174-64.7,23.174-64.7s-51.936,32.199-127.581,82.41c-43.259,28.714-64.021,72.311-73.888,104.393
					l53.611,54.505c114.116,18.982,226.127,11.095,336.609-16.321L3232.323,1576.339z"/>
				
					<linearGradient id="SVGID_00000174593032835214686030000010697313021875693983_" gradientUnits="userSpaceOnUse" x1="1539.062" y1="2296.6365" x2="2252.3225" y2="2296.6365" gradientTransform="matrix(0.9919 -0.1267 0.1267 0.9919 -672.3746 6.8559)">
					<stop  offset="0" style="stop-color:#F9B776"/>
					<stop  offset="1" style="stop-color:#F47960"/>
				</linearGradient>
				<path style="fill:url(#SVGID_00000174593032835214686030000010697313021875693983_);" d="M1480.177,1617.793
					c0,0-404.418,279.576-302.552,696.561c101.866,416.985,708.229-55.186,708.229-55.186l-28.908-99.79
					c0,0-386.448,167.698-466.08,76.07c-58.408-67.207,83.975-260.316,164.023-358.481c29.354-35.997,32.657-86.595,8.12-126.033
					L1480.177,1617.793z"/>
				<g>
					
						<linearGradient id="SVGID_00000082342563754781515870000009807743430830665403_" gradientUnits="userSpaceOnUse" x1="2534.5122" y1="1594.0208" x2="1817.0946" y2="2408.8027">
						<stop  offset="0" style="stop-color:#53D8FF"/>
						<stop  offset="1" style="stop-color:#3840F7"/>
					</linearGradient>
					<path style="fill:url(#SVGID_00000082342563754781515870000009807743430830665403_);" d="M1865.804,2431.51
						c-12.275,1.451-22.558-9.189-20.688-21.408l100.626-657.402c1.142-7.462,6.614-13.497,13.941-15.315
						c32.414-8.04,126.381-30.992,235.276-54.359c131.167-28.147,283.992-56.897,376.998-60.916
						c13.222-0.571,22.894,12.255,18.579,24.767c-38.809,112.546-199.063,570.656-288.836,725.488
						c-2.974,5.129-8.147,8.566-14.035,9.263L1865.804,2431.51z"/>
					
						<linearGradient id="SVGID_00000034781795881994357860000001953492005725189040_" gradientUnits="userSpaceOnUse" x1="2783.9385" y1="1682.8032" x2="2692.2542" y2="2085.4172" gradientTransform="matrix(0.9919 -0.1267 0.1267 0.9919 -672.3746 6.8559)">
						<stop  offset="0" style="stop-color:#53D8FF"/>
						<stop  offset="1" style="stop-color:#3840F7"/>
					</linearGradient>
					<path style="fill:url(#SVGID_00000034781795881994357860000001953492005725189040_);" d="M2206.775,1625.637l128.868-38.751
						c6.863-2.064,13.461,3.904,12.096,10.939l-7.991,41.16c-0.696,3.583-3.377,6.454-6.905,7.391L2208.3,1679.48
						c-6.444,1.713-12.608-3.553-11.924-10.186l3.666-35.512C2200.437,1629.957,2203.093,1626.744,2206.775,1625.637z"/>
					
						<linearGradient id="SVGID_00000011026374093001813370000010406124488967332776_" gradientUnits="userSpaceOnUse" x1="2735.9517" y1="1851.6951" x2="2692.1038" y2="2114.783" gradientTransform="matrix(0.9919 -0.1267 0.1267 0.9919 -672.3746 6.8559)">
						<stop  offset="0" style="stop-color:#53D8FF"/>
						<stop  offset="1" style="stop-color:#3840F7"/>
					</linearGradient>
					<path style="fill:url(#SVGID_00000011026374093001813370000010406124488967332776_);" d="M2122.419,1749.693l3.632-57.885
						c0.364-5.806,4.496-10.685,10.163-12l262.494-60.943c8.835-2.051,17.05,5.237,16.066,14.253l-7.92,72.563
						c-0.634,5.806-5.017,10.501-10.766,11.531l-258.207,46.265C2129.477,1764.983,2121.884,1758.214,2122.419,1749.693z"/>
					
						<linearGradient id="SVGID_00000014594663377478615090000009708120189813997493_" gradientUnits="userSpaceOnUse" x1="2219.3718" y1="2440.0898" x2="2463.2971" y2="2440.0898" gradientTransform="matrix(0.9919 -0.1267 0.1267 0.9919 -672.3746 6.8559)">
						<stop  offset="0" style="stop-color:#F9B776"/>
						<stop  offset="1" style="stop-color:#F47960"/>
					</linearGradient>
					<path style="fill:url(#SVGID_00000014594663377478615090000009708120189813997493_);" d="M1869.427,2251.274
						c0,0-38.58-100.794-33.088-139.003c5.492-38.209,19.204-88.184,86.455-86.055s148.534,19.965,148.534,19.965
						s2.211,48.574-49.856,39.459l34.128,20.067c0,0,0.476,39.058-44.458,23.896l32.958,28.185c0,0-14.133,33.932-47.848,17.63
						C1962.536,2159.116,1959.3,2252.528,1869.427,2251.274z"/>
				</g>
				<g>
					
						<linearGradient id="SVGID_00000090279219502825281420000013664564182759720363_" gradientUnits="userSpaceOnUse" x1="-466.1974" y1="-3208.5225" x2="-10.334" y2="-2898.8799" gradientTransform="matrix(-0.8047 -0.5937 -0.5937 0.8047 -2.9051 3524.2236)">
						<stop  offset="0" style="stop-color:#F9B776"/>
						<stop  offset="1" style="stop-color:#F47960"/>
					</linearGradient>
					<path style="fill:url(#SVGID_00000090279219502825281420000013664564182759720363_);" d="M2222.332,1039.905
						c0,0,52.004,87.632,22.828,234.684c-29.176,147.052-104.719,169.151-158.002,140.523
						c-53.283-28.629-124.557-82.844-148.742-209.588S2152.032,929.643,2222.332,1039.905z"/>
					
						<linearGradient id="SVGID_00000040572810977279244030000017434584815146975897_" gradientUnits="userSpaceOnUse" x1="1240.3844" y1="863.1949" x2="2299.1716" y2="1122.1669">
						<stop  offset="0" style="stop-color:#2B3582"/>
						<stop  offset="1" style="stop-color:#150E42"/>
					</linearGradient>
					<path style="fill:url(#SVGID_00000040572810977279244030000017434584815146975897_);" d="M2032.644,1185.047
						c0,0,60.84-201.749,203.821-99.168l16.135,47.869c0,0,117.28-50.212,63.198-155.391s-209.078-161.421-330.123-73.318
						c-121.045,88.103-154.537,177.953-134.722,277.456c19.816,99.503,90.676,55.541,90.676,55.541s5.055-75.662,38.73-93.291
						c33.675-17.629,40.053,38.339,40.053,38.339L2032.644,1185.047z"/>
					
						<linearGradient id="SVGID_00000137116804322042836280000003793239060049529232_" gradientUnits="userSpaceOnUse" x1="-438.8716" y1="-3248.7529" x2="16.9903" y2="-2939.1113" gradientTransform="matrix(-0.8047 -0.5937 -0.5937 0.8047 -2.9051 3524.2236)">
						<stop  offset="0" style="stop-color:#F9B776"/>
						<stop  offset="1" style="stop-color:#F47960"/>
					</linearGradient>
					<path style="fill:url(#SVGID_00000137116804322042836280000003793239060049529232_);" d="M2003.641,1191.119
						c0,0,31.883-103.525-30.73-99.126c-62.612,4.399-24.826,99.042-7.878,133.17L2003.641,1191.119z"/>
					
						<linearGradient id="SVGID_00000034082807900545047000000002588741860556011953_" gradientUnits="userSpaceOnUse" x1="1211.0103" y1="983.2839" x2="2269.8003" y2="1242.2566">
						<stop  offset="0" style="stop-color:#2B3582"/>
						<stop  offset="1" style="stop-color:#150E42"/>
					</linearGradient>
					<path style="fill:url(#SVGID_00000034082807900545047000000002588741860556011953_);" d="M1946.054,976.793
						c30.993-7.853,38.691-48.367,14.292-69.029c-78.76-66.695-219.923-133.83-389.375,18.482
						c-190.88,171.572-295.792,251.566-348.98,244.385c-34.929-4.716-60.033,32.443-40.108,61.516
						c14.732,21.496,41.81,42.455,88.974,58.682C1634.673,1416.004,1764.269,1022.85,1946.054,976.793z"/>
				</g>
				
					<linearGradient id="SVGID_00000083806546227875377520000013362446584486369936_" gradientUnits="userSpaceOnUse" x1="2044.7126" y1="2450.8267" x2="1610.0846" y2="3147.1421">
					<stop  offset="0" style="stop-color:#CB236D"/>
					<stop  offset="1" style="stop-color:#4C246D"/>
				</linearGradient>
				<path style="fill:url(#SVGID_00000083806546227875377520000013362446584486369936_);" d="M1370.505,2926.344
					c58.163-126.186,117.511-250.872,210.919-332.438c139.514,35.197,285.434,33.49,386.45,4.83
					c57.735,92.453,109.033,219.282,156.979,364.019L1370.505,2926.344z"/>
			</g>
		</g>
		<g>
			
				<linearGradient id="SVGID_00000071561470434193385020000016184038582288384140_" gradientUnits="userSpaceOnUse" x1="-640.8191" y1="1906.8943" x2="-740.5349" y2="2212.5439" gradientTransform="matrix(-1 0 0 1 29.0782 0)">
				<stop  offset="0" style="stop-color:#F9B776"/>
				<stop  offset="1" style="stop-color:#F47960"/>
			</linearGradient>
			<path style="fill:url(#SVGID_00000071561470434193385020000016184038582288384140_);" d="M766.984,1929.497
				c0,0,138.723,177.611-19.55,358.255l-59.503-5.545c0,0,114.543-183.919,63.525-330.528l-84.288,6.154l-46.61-30.381
				L766.984,1929.497z"/>
			<g>
				
					<linearGradient id="SVGID_00000182513309746561967980000005658882988778869435_" gradientUnits="userSpaceOnUse" x1="1209.2737" y1="1537.4874" x2="444.686" y2="2213.6091">
					<stop  offset="0" style="stop-color:#53D8FF"/>
					<stop  offset="1" style="stop-color:#3840F7"/>
				</linearGradient>
				<path style="fill:url(#SVGID_00000182513309746561967980000005658882988778869435_);" d="M631.555,1548.952l658.699-34.009
					c12.917-0.667,23.801,7.131,24.181,17.324l14.878,398.875c0.383,10.261-9.998,18.938-23.013,19.211
					c-119.258,2.506-648.732,13.706-672.046,15.516c-23.039,1.789-24.771-319.087-24.848-398.274
					C609.396,1557.804,619.161,1549.593,631.555,1548.952z"/>
				<path style="fill:#FFFFFF;" d="M644.82,1951.409l-0.456-1.674c-9.922-36.466-16.456-186.602-16.644-382.497
					c0-2.291,2.034-4.188,4.629-4.321l658.696-34.008c1.274-0.047,2.394,0.265,3.332,0.937c1.09,0.792,1.708,1.914,1.754,3.16
					l14.876,398.876c0.092,2.351-1.983,4.359-4.623,4.475l-0.144,0.004c-94.913,1.995-572.784,12.088-659.688,14.991
					L644.82,1951.409z M1291.385,1533.285c-0.04,0-0.083,0-0.126,0l-658.686,34.008c-0.332,0.017-0.505,0.15-0.533,0.184
					c0.249,192.409,6.537,340.555,16.122,379.435c91.402-2.98,563.687-12.953,657.984-14.936h0.139
					c0.208-0.013,0.373-0.137,0.398-0.172l-14.933-398.636C1291.702,1533.29,1291.556,1533.29,1291.385,1533.285z"/>
				<path style="fill:#FFFFFF;" d="M1062.126,1595.092L1062.126,1595.092c0.449,10.085,4.171,18.112,8.313,17.927l183.091-8.156
					c4.142-0.184,7.135-8.51,6.686-18.596l0,0c-0.449-10.085-4.171-18.112-8.313-17.927l-183.091,8.156
					C1064.67,1576.681,1061.677,1585.006,1062.126,1595.092z"/>
				<path style="fill:#FFFFFF;" d="M1062.921,1644.765L1062.921,1644.765c0.224,5.043,3.764,8.981,7.906,8.797l183.091-8.155
					c4.142-0.185,7.317-4.422,7.093-9.465l0,0c-0.225-5.042-3.764-8.981-7.906-8.796l-183.091,8.155
					C1065.871,1635.485,1062.696,1639.723,1062.921,1644.765z"/>
				<path style="fill:#FFFFFF;" d="M1062.921,1682.798L1062.921,1682.798c0.224,5.043,3.764,8.981,7.906,8.797l183.091-8.156
					c4.142-0.184,7.317-4.422,7.093-9.465l0,0c-0.225-5.043-3.764-8.981-7.906-8.797l-183.091,8.156
					C1065.871,1673.517,1062.696,1677.755,1062.921,1682.798z"/>
				<path style="fill:#FFFFFF;" d="M812.02,1904.097c-4.042,0-6.605-0.009-7.312-0.013c-4.44-0.017-8.167-3.349-8.679-7.759
					l-15.949-137.449c-0.27-2.325,0.401-4.659,1.863-6.487c1.456-1.82,3.578-2.989,5.896-3.242
					c0.31-0.034,13.279-1.606,24.022-8.718c3.623-2.398,7.798-13.454,11.482-23.208c5.689-15.064,12.771-33.811,25.776-48.666
					c21.093-24.095,17.578-60.278,17.106-64.329c-1.029-8.889,5.835-21.946,16.565-26.112c6.556-2.548,19.691-3.867,33.995,15.938
					c17.873,24.742,10.072,58.056,4.909,80.104c-1.604,6.847-3.117,13.317-3.316,17.317c-0.009,0.167-0.009,0.299-0.002,0.402
					c4.475,2.813,24.748-0.317,36.967-2.214c6.451-1.002,13.122-2.034,19.616-2.787c22.69-2.634,49.372-1.653,54.367,29.559
					c2.062,12.897-3.432,22.536-8.992,28.706c10.016,8.582,15.203,17.946,15.452,27.945c0.222,9.056-3.787,16.52-7.886,21.744
					c8.761,8.166,12.48,19.243,10.093,31.169c-1.653,8.256-6.117,15.694-12.046,20.986c4.507,5.121,5.093,10.589,5.01,13.531
					c-0.422,15.231-18.796,30.445-43.69,36.175C957.119,1903.621,842.551,1904.097,812.02,1904.097z M798.44,1764.922
					l14.113,121.627c30.683-0.021,142.935-0.548,170.782-6.954c19.801-4.556,29.966-15,30.092-19.564
					c0.047-1.756-3.248-3.897-8.202-5.331c-4.053-1.169-6.695-5.061-6.292-9.262c0.402-4.197,3.736-7.515,7.936-7.896
					c6.031-0.544,12.409-7.408,13.927-14.987c1.096-5.481,0.169-13.198-10.484-18.82c-2.689-1.417-4.451-4.128-4.657-7.164
					c-0.206-3.032,1.175-5.956,3.65-7.725c0.049-0.039,9.204-6.997,8.943-15.402c-0.253-8.157-9.232-15.608-16.721-20.421
					c-2.576-1.657-4.1-4.535-4.025-7.596c0.077-3.062,1.743-5.858,4.398-7.387c0.437-0.257,11.96-7.258,10.106-18.832
					c-1.396-8.735-2.952-18.635-35.025-14.914c-6.158,0.715-12.662,1.726-18.95,2.698c-23.418,3.635-41.919,6.5-51.654-2.269
					c-2.715-2.445-5.875-6.881-5.515-14.122c0.278-5.584,1.89-12.469,3.757-20.442c4.702-20.078,11.14-47.578-2.049-65.837
					c-5.113-7.078-10.164-10.928-13.193-9.939c-3.182,0.998-5.684,6.205-5.714,8.02c0.548,4.637,4.727,47.925-21.346,77.706
					c-10.917,12.469-17.104,28.852-22.564,43.308c-5.511,14.589-9.861,26.112-18.207,31.636
					C813.469,1760.4,804.719,1763.346,798.44,1764.922z M918.407,1692.145L918.407,1692.145L918.407,1692.145z"/>
			</g>
			
				<linearGradient id="SVGID_00000075883619104547551360000004137558546344758190_" gradientUnits="userSpaceOnUse" x1="-661.9291" y1="2993.0337" x2="-451.8222" y2="2993.0337" gradientTransform="matrix(-1 0 0 1 29.0782 0)">
				<stop  offset="0" style="stop-color:#F9B776"/>
				<stop  offset="1" style="stop-color:#F47960"/>
			</linearGradient>
			<path style="fill:url(#SVGID_00000075883619104547551360000004137558546344758190_);" d="M691.007,2799.074
				c0,0-112.395,244.968-171.364,346.432c0,0-11.712,63.844,0,83.919l9.981,4.437l-46.583-1.386c0,0-4.138-85.877-0.907-90.673
				c3.232-4.797,9.696-4.482,9.696-4.482s19.975-158.25,77.822-192.023l56.061-193.092L691.007,2799.074z"/>
			
				<linearGradient id="SVGID_00000041280167020987941740000011133488126293021568_" gradientUnits="userSpaceOnUse" x1="-373.1316" y1="2523.1704" x2="-477.183" y2="3199.5015" gradientTransform="matrix(-1 0 0 1 29.0782 0)">
				<stop  offset="0" style="stop-color:#53D8FF"/>
				<stop  offset="1" style="stop-color:#3840F7"/>
			</linearGradient>
			<path style="fill:url(#SVGID_00000041280167020987941740000011133488126293021568_);" d="M549.519,3245.889
				c0.069,1.124-36.375,0.61-56.173,0.249c-7.31-0.134-13.542-5.271-15.1-12.415l-14.95-78.546
				c-1.421-7.464,3.319-14.715,10.727-16.408l8.345-1.907c0,0,11.905,16.331,8.157,31.706c-3.747,15.375-7.082,55.202,2.388,59.844
				c9.47,4.641,36.712,5.451,36.712,5.451S548.896,3235.773,549.519,3245.889z"/>
			
				<linearGradient id="SVGID_00000046341320024522094800000012892473998633423751_" gradientUnits="userSpaceOnUse" x1="-593.293" y1="2489.2998" x2="-697.3448" y2="3165.6333" gradientTransform="matrix(-1 0 0 1 29.0782 0)">
				<stop  offset="0" style="stop-color:#53D8FF"/>
				<stop  offset="1" style="stop-color:#3840F7"/>
			</linearGradient>
			<path style="fill:url(#SVGID_00000046341320024522094800000012892473998633423751_);" d="M797.538,3247.314
				c3.686,2.1,2.166,7.728-2.076,7.685c-33.13-0.333-107.368-1.381-113.965-4.124c-8.517-3.542,3.104-34.146,15.334-44.504
				l67.527,22.04L797.538,3247.314z"/>
			
				<linearGradient id="SVGID_00000056393731549196890300000008955217077172795557_" gradientUnits="userSpaceOnUse" x1="-789.4208" y1="3008.6565" x2="-667.7521" y2="3008.6565" gradientTransform="matrix(-1 0 0 1 29.0782 0)">
				<stop  offset="0" style="stop-color:#F9B776"/>
				<stop  offset="1" style="stop-color:#F47960"/>
			</linearGradient>
			<path style="fill:url(#SVGID_00000056393731549196890300000008955217077172795557_);" d="M818.499,2783.451
				c0,0-72.632,351.369-93.179,419.91l48.606,30.502c0,0-24.357-4.143-42.42-5.451c-18.062-1.31-34.676-22.04-34.676-22.04
				l5.823-9.287c0,0,18.214-349.456,13.78-389.137L818.499,2783.451z"/>
			
				<linearGradient id="SVGID_00000034061033449916182430000000492463360496501408_" gradientUnits="userSpaceOnUse" x1="-1051.5172" y1="2095.8196" x2="-813.3285" y2="2095.8196" gradientTransform="matrix(-1 0 0 1 29.0782 0)">
				<stop  offset="0" style="stop-color:#F9B776"/>
				<stop  offset="1" style="stop-color:#F47960"/>
			</linearGradient>
			<path style="fill:url(#SVGID_00000034061033449916182430000000492463360496501408_);" d="M998.798,1963.881
				c0,0,10.018,182.779-156.391,276.179l40.064,91.374c0,0,150.661-91.128,145.09-339.669c-0.16-7.133,2.413-14.059,7.071-19.463
				l32.02-37.148c12.2-14.153,16.759-33.353,12.224-51.479l-4.215-16.848c-1.411-5.641-7.835-8.354-12.863-5.434l-3.349,1.945
				c-10.66,6.191-19.104,15.577-24.137,26.83l-15.723,35.147c-5.873,13.129-19.415,21.1-33.744,19.862l-9.722-0.839
				L998.798,1963.881z"/>
			
				<linearGradient id="SVGID_00000153688400243990834300000002859192817565461431_" gradientUnits="userSpaceOnUse" x1="-790.5032" y1="2225.3037" x2="-343.9503" y2="3109.7388" gradientTransform="matrix(-1 0 0 1 29.0782 0)">
				<stop  offset="0" style="stop-color:#FDF53F"/>
				<stop  offset="1" style="stop-color:#D93C65"/>
			</linearGradient>
			<path style="fill:url(#SVGID_00000153688400243990834300000002859192817565461431_);" d="M848.199,2226.363
				c-27.84,7.721-122.157,32.532-181.038,31.518l36.152,204.01l-2.877,33.275l117.87-0.529c0,0,33.181-77.06,59.36-115.479
				c7.561-11.096,1.934-24.331-2.352-37.056l5.888-3.92c5.991-3.989,8.589-11.482,6.354-18.324l-28.703-87.82
				C857.361,2227.613,852.7,2225.115,848.199,2226.363z"/>
			
				<linearGradient id="SVGID_00000057834743373107477140000015907305078001416867_" gradientUnits="userSpaceOnUse" x1="-896.8425" y1="2459.0088" x2="-506.6509" y2="2899.0581" gradientTransform="matrix(-1 0 0 1 29.0782 0)">
				<stop  offset="0" style="stop-color:#53D8FF"/>
				<stop  offset="1" style="stop-color:#3840F7"/>
			</linearGradient>
			<path style="fill:url(#SVGID_00000057834743373107477140000015907305078001416867_);" d="M827.75,2477.225l-2.318,20.159
				c0,0,33.309,99.755-16.656,332.746c0,0-108.213,30.656-197.152-42.7c0,0,25.089-219.908,31.942-230.151
				c34.132-51.021,56.87-62.112,56.87-62.112l1.026-22.024C701.461,2473.142,796.587,2490.341,827.75,2477.225z"/>
			
				<linearGradient id="SVGID_00000028289246920221744660000009647173262192294789_" gradientUnits="userSpaceOnUse" x1="-752.5365" y1="2212.759" x2="-678.0819" y2="2212.759" gradientTransform="matrix(-1 0 0 1 29.0782 0)">
				<stop  offset="0" style="stop-color:#F9B776"/>
				<stop  offset="1" style="stop-color:#F47960"/>
			</linearGradient>
			<path style="fill:url(#SVGID_00000028289246920221744660000009647173262192294789_);" d="M781.61,2242.805
				c0.413-0.546-24.608-75.543-24.608-75.543l-35.841,3.252l-14.001,85.08C707.16,2255.594,763.33,2266.932,781.61,2242.805z"/>
			
				<linearGradient id="SVGID_00000152970547627580154580000015298607959165710489_" gradientUnits="userSpaceOnUse" x1="-634.2047" y1="2116.5422" x2="-92.2716" y2="2153.3936" gradientTransform="matrix(-1 0 0 1 29.0782 0)">
				<stop  offset="0" style="stop-color:#F9B776"/>
				<stop  offset="1" style="stop-color:#F47960"/>
			</linearGradient>
			<path style="fill:url(#SVGID_00000152970547627580154580000015298607959165710489_);" d="M729.742,2048.992
				c2.39,1.488,76.587,32.152,60.645,109.181c-0.942,4.552-3.98,8.41-8.225,10.304c-10.888,4.856-34.328,13.172-62.364,10.323
				c-38.87-3.95-64.339-71.778-63.256-91.515C657.625,2067.547,706.055,2034.243,729.742,2048.992z"/>
			
				<linearGradient id="SVGID_00000006707776897036546560000001283018755309532858_" gradientUnits="userSpaceOnUse" x1="-545.1302" y1="2083.8755" x2="-735.8901" y2="2465.3943" gradientTransform="matrix(-1 0 0 1 29.0782 0)">
				<stop  offset="0" style="stop-color:#2B3582"/>
				<stop  offset="1" style="stop-color:#150E42"/>
			</linearGradient>
			<path style="fill:url(#SVGID_00000006707776897036546560000001283018755309532858_);" d="M707.16,2019.045
				c1.951,0.256,42.878,14.51,22.582,44.167c-20.296,29.656-27.91,47.115-18.31,60.137c8.745,11.865,28.12,5.103,26.429,29.787
				c-0.339,4.941,1.799,9.738,5.9,12.514c18.257,12.359,62.799,50.396,18.668,104.644c-3.587,4.409-4.326,10.496-1.558,15.46
				c12.926,23.183,40.075,91.099-58.217,128.772c-97.129,37.227-132.198-26.264-141.995-51.642c-2.119-5.489-7.523-8.849-13.4-8.572
				c-10.672,0.504-25.797-1.271-25.101-15.534c0.422-8.663,5.827-16.427,12.216-22.651c6.322-6.161,5.073-16.947-2.602-21.308
				c-5.798-3.294-10.929-8.437-13.094-16.461c-5.886-21.812,5.865-87.031,68.379-98.083c5.214-0.922,10.675-5.811,11.434-11.052
				c0.011-0.078,0.023-0.156,0.036-0.234c0.838-5.069-0.877-10.251-5.019-13.289c-9.982-7.323-22.783-22.065-12.386-45.706
				c9.222-20.968,26.908-28.041,40.045-30.295c7.713-1.323,12.785-8.618,11.159-16.273
				C627.893,2042.566,631.755,2009.158,707.16,2019.045z"/>
		</g>
		<g>
			<circle style="fill:#FFFFFF;" cx="1870.427" cy="1871.708" r="282.296"/>
			<path style="fill:#FFFFFF;" d="M2015.047,1888.594c3.99-2.304,6.449-6.562,6.449-11.17s-2.458-8.866-6.449-11.17
				l-217.306-125.462c-3.99-2.304-8.907-2.304-12.898,0c-3.99,2.304-6.449,6.562-6.449,11.17v250.923
				c0,4.608,2.458,8.866,6.449,11.17c3.991,2.304,8.907,2.304,12.898,0L2015.047,1888.594z"/>
		</g>
	</g>
</g>
</svg>
